<svg width="17" height="18" viewBox="0 0 17 18" fill="none" xmlns="http://www.w3.org/2000/svg">
<path d="M16.9324 9.00036C16.9324 4.34236 13.1584 0.568359 8.50036 0.568359C3.84236 0.568359 0.0683594 4.34236 0.0683594 9.00036C0.0683594 13.2079 3.15386 16.7014 7.18286 17.3304V11.4399H5.04086V9.00036H7.18286V7.13886C7.18286 5.02236 8.44086 3.85786 10.3704 3.85786C11.2969 3.85786 12.2574 4.01936 12.2574 4.01936V6.09336H11.1949C10.1494 6.09336 9.81786 6.73936 9.81786 7.41086V9.00036H12.1554L11.7814 11.4399H9.81786V17.3304C13.8554 16.7014 16.9324 13.2079 16.9324 9.00036Z" fill="#4373B9"/>
<path d="M11.7815 11.4407L12.1555 9.00119H9.81802V7.42019C9.81802 6.75719 10.141 6.10269 11.195 6.10269H12.2575V4.02869C12.2575 4.02869 11.2885 3.86719 10.3705 3.86719C8.44102 3.86719 7.18302 5.03169 7.18302 7.14819V9.00119H5.04102V11.4407H7.18302V17.3312C7.61652 17.3992 8.05002 17.4332 8.50052 17.4332C8.95102 17.4332 9.39302 17.3992 9.81802 17.3312V11.4407H11.7815Z" fill="white"/>
</svg>
