<svg width="162" height="46" viewBox="0 0 162 46" fill="none" xmlns="http://www.w3.org/2000/svg">
<g clip-path="url(#clip0_6349_71638)">
<path d="M11.7225 3.23438C10.2929 16.753 20.9094 28.1921 34.5078 27.4272C38.708 27.185 42.7455 25.8066 46.3085 23.2576C44.802 24.8574 43.0826 26.0487 41.0853 27.0484C37.0462 29.0522 32.3094 29.6419 27.8786 28.7254C16.2923 26.3695 8.42119 14.7552 11.7225 3.23438Z" fill="#A5E5D9"/>
<path d="M5.0131 9.37695C3.76088 20.1328 9.56366 30.8797 19.5075 35.171C26.6039 38.378 34.9466 37.8314 41.8182 34.0792C34.0225 39.8872 22.961 39.9169 14.9214 34.4521C6.88182 29.1997 2.59294 18.7291 5.0131 9.37695Z" fill="#A5E5D9"/>
<path d="M0.755586 20.8027C0.498342 33.2519 9.57285 43.9557 21.99 45.1975C24.7443 45.4916 27.5075 45.2673 30.2233 44.6583C26.7091 45.9788 22.8239 46.3205 19.1131 45.6758C7.43506 43.6988 -0.913543 32.6028 0.755586 20.8027Z" fill="#A5E5D9"/>
<path d="M46.3099 23.2577C46.3586 18.4391 44.2859 13.7289 40.5012 10.5278C41.1088 10.5516 41.7223 10.6897 42.3122 10.9437C43.0647 11.2675 43.8084 12.5272 43.8246 12.5361C43.1963 11.2779 41.8524 9.22363 41.1812 8.42745C40.5899 7.72486 39.8625 7.11881 39.0109 6.64943C38.4373 6.33303 37.84 6.09983 37.2339 5.94237C37.3004 5.53834 37.3447 5.10163 37.3329 4.6976C37.089 4.51193 36.0245 3.72615 34.8861 3.06663C33.7433 2.40414 32.5251 1.86939 32.2413 1.75056C31.8864 1.94218 31.5316 2.19767 31.2152 2.45761C30.7762 2.01051 30.2765 1.60796 29.7161 1.26781C28.8853 0.762768 27.9982 0.434493 27.0949 0.271099C26.0718 0.0869087 23.6251 -0.0527193 22.2235 0.0304633C22.2398 0.0393758 23.699 0.0572006 24.3554 0.547384C24.8699 0.932104 25.2957 1.39704 25.6209 1.91247C20.9639 0.226537 15.859 0.782078 11.7224 3.233C14.7309 1.83672 18.3235 1.84266 21.4281 3.51374C15.4066 2.68488 9.22384 4.80901 4.98227 9.3692C9.08191 6.2246 14.4988 5.17887 19.5136 6.65388C12.8962 8.51658 3.72266 14.7939 0.796875 20.7994C5.33117 14.837 13.5245 11.3062 20.0784 10.8591C13.1623 15.0836 6.52277 19.5992 3.69457 34.0774C10.4347 22.3605 16.0615 19.9928 23.8956 15.8901C18.9858 24.7773 14.0863 34.2824 11.987 42.8264C18.3161 36.7318 24.0745 27.7229 29.2963 19.0169C29.6688 27.8714 30.4391 33.9408 23.6886 45.6532C34.7782 35.9579 35.3578 27.9338 35.5485 19.8161C38.4403 25.7309 39.4855 34.6122 36.6041 41.5312C40.3282 35.9876 41.1635 24.8828 39.4604 18.2059C43.2421 21.8228 45.0458 27.0485 44.3805 32.182C46.1975 26.2181 44.9408 19.7878 41.2152 14.9721C44.2105 16.8334 46.0112 19.9497 46.3099 23.2607V23.2577Z" fill="url(#paint0_linear_6349_71638)"/>
<path d="M62.344 32.9752C61.7733 32.6484 61.077 32.3409 60.2579 32.0498L59.8188 31.8968C58.9702 31.6071 58.3256 31.3531 57.8866 31.1348C57.4475 30.9179 57.1104 30.649 56.8768 30.3297C56.6432 30.0103 56.5249 29.5974 56.5249 29.0894C56.5249 28.4076 56.723 27.8639 57.1178 27.4569C57.5125 27.0514 58.1275 26.8479 58.9628 26.8479C59.4759 26.8479 59.977 26.9712 60.4664 27.2178C60.8641 27.4183 61.2588 27.6886 61.6521 28.0214L63.5947 31.0902L63.7041 31.0471L62.9664 26.0547H62.857L61.9019 26.836C61.6787 26.7558 61.4599 26.6845 61.2455 26.6295C60.6896 26.484 60.082 26.4112 59.4226 26.4112C58.3537 26.4112 57.4238 26.5894 56.6343 26.9444C55.8434 27.2995 55.2402 27.8045 54.8233 28.4566C54.4064 29.1087 54.1979 29.8573 54.1979 30.6981C54.1979 31.4096 54.3325 32.0141 54.6045 32.5147C54.875 33.0153 55.2698 33.4357 55.7902 33.7773C56.3091 34.1189 56.9862 34.4413 57.8215 34.7458L58.3493 34.9196C59.2127 35.2389 59.8898 35.5331 60.3806 35.8004C60.8715 36.0693 61.2485 36.3961 61.5116 36.7793C61.7748 37.164 61.9064 37.6676 61.9064 38.2914C61.9064 39.2198 61.6018 39.9492 60.9957 40.478C60.388 41.0083 59.4921 41.2727 58.3049 41.2727C57.8954 41.2727 57.4992 41.2043 57.1193 41.0662C56.9729 41.0127 56.8191 40.9488 56.661 40.8775L54.0235 36.8773H53.9141L54.6828 41.0335C55.2979 41.2652 55.8907 41.4331 56.4614 41.5341C57.032 41.6351 57.6988 41.6871 58.4602 41.6871C59.5291 41.6722 60.5137 41.4613 61.4141 41.0558C62.3144 40.6503 63.0359 40.0695 63.577 39.3149C64.1181 38.5603 64.3886 37.6899 64.3886 36.7036C64.3886 35.7172 64.192 34.9849 63.7958 34.3759C63.401 33.7669 62.9176 33.299 62.3469 32.9722L62.344 32.9752Z" fill="white"/>
<path d="M75.2981 40.3213C74.8147 40.3213 74.5737 40.0599 74.5737 39.5385V33.7291C74.5737 32.7131 74.2839 31.9407 73.7058 31.4119C73.1278 30.8831 72.223 30.6172 70.993 30.6172C70.2759 30.6172 69.5249 30.7583 68.7428 31.042C67.9593 31.3242 67.2969 31.6837 66.7558 32.1189C66.2147 32.5542 65.9442 32.9389 65.9442 33.2716C65.9442 33.5033 66.024 33.6741 66.1852 33.7826C66.3463 33.891 66.5873 33.946 66.9096 33.946C67.1432 33.946 67.3634 33.8984 67.5689 33.8049C67.773 33.7098 67.9267 33.6058 68.0302 33.49C68.147 33.3444 68.2357 33.1201 68.2934 32.8156C68.3481 32.5334 68.4013 32.1041 68.456 31.5337C68.7369 31.4891 69.0695 31.4668 69.4569 31.4668C70.1739 31.4668 70.7047 31.6332 71.0491 31.9674C71.3936 32.3016 71.5651 32.7948 71.5651 33.4469V34.9962C69.9995 35.4507 68.8005 35.8622 67.9755 36.232C67.1328 36.6093 66.5695 37.0044 66.2842 37.4189C65.9989 37.8318 65.8555 38.3517 65.8555 38.9741C65.8555 39.8163 66.1157 40.4728 66.6346 40.9437C67.1535 41.4146 67.875 41.6582 68.7975 41.6731C69.5293 41.6731 70.1414 41.4413 70.6307 40.9764C71.0787 40.5531 71.3936 39.944 71.5799 39.1568C71.6272 39.7287 71.7055 40.1951 71.8179 40.5516C71.9421 40.9511 72.1461 41.2408 72.4329 41.422C72.7197 41.6032 73.1026 41.6939 73.5861 41.6939C74.1139 41.6939 74.5885 41.5854 75.0142 41.3671C75.4385 41.1487 75.9146 40.7506 76.4424 40.1698V40.0614C76.2369 40.149 76.0432 40.2144 75.8599 40.2575C75.6766 40.3005 75.4903 40.3228 75.2996 40.3228L75.2981 40.3213ZM70.8954 39.7227C70.6825 39.8312 70.4371 39.8861 70.1591 39.8861C69.7348 39.8861 69.3977 39.745 69.1494 39.4613C68.8995 39.1791 68.7753 38.7617 68.7753 38.2106C68.7753 37.7323 68.8493 37.3401 68.9956 37.0356C69.142 36.7311 69.4155 36.4266 69.8191 36.1221C70.2064 35.828 70.7904 35.4938 71.5651 35.1209V38.2982C71.5651 38.6458 71.506 38.9444 71.3892 39.1909C71.2724 39.4375 71.1068 39.6158 70.8954 39.7242V39.7227Z" fill="white"/>
<path d="M87.1143 40.2529V31.6316C87.1143 31.6316 87.1143 31.6287 87.1143 31.6272H87.1128V30.623H87.0034L82.8091 31.7757V31.8842L83.5483 32.3981C83.9106 32.6491 84.1264 33.0621 84.1264 33.5047V38.8106H84.1279V39.4374C83.8958 39.5072 83.6518 39.5607 83.3916 39.5919C83.0915 39.6291 82.781 39.6469 82.4588 39.6469C82.0625 39.6469 81.7447 39.5889 81.5037 39.4731C81.2627 39.3572 81.0794 39.1834 80.9552 38.9502C80.831 38.7185 80.7689 38.4066 80.7689 38.0144V37.6446H80.7763V30.623H80.6669L76.4727 31.7757V31.8842L77.2119 32.3981C77.5593 32.6387 77.7663 33.0309 77.7825 33.4527V38.5165C77.7825 39.5607 78.0161 40.345 78.4848 40.8664C78.9534 41.3893 79.6335 41.6492 80.5265 41.6492C80.9803 41.6492 81.3751 41.5942 81.7122 41.4858C82.0478 41.3774 82.4144 41.1739 82.8091 40.8768C83.1773 40.6005 83.6193 40.1816 84.1264 39.6335V40.1712L84.258 41.67H84.3245L88.6504 41.061V40.9525L87.1364 40.2871C87.1231 40.2811 87.1143 40.2678 87.1143 40.2529Z" fill="white"/>
<path d="M106.108 30.605H105.999L101.805 31.7577V31.8661L102.544 32.3786C102.906 32.6296 103.122 33.0426 103.122 33.4852V41.2316L101.936 41.5584V41.6668H107.294V41.5584L106.108 41.2539V30.6035V30.605Z" fill="white"/>
<path d="M117.802 31.1916C117.195 30.8069 116.475 30.6152 115.639 30.6152C115.245 30.6152 114.885 30.6776 114.563 30.7994C114.241 30.9227 113.882 31.1292 113.487 31.4203C113.116 31.6922 112.706 32.0813 112.257 32.5834V30.6316H112.147L107.953 31.7842V31.8927L108.672 32.3903C109.047 32.6502 109.27 33.0795 109.27 33.5385V45.5406L108.063 45.8882V45.9966H113.663V45.8882L112.257 45.5406V41.4914C112.824 41.6057 113.389 41.6666 113.948 41.6666C115.06 41.6666 116.046 41.4275 116.902 40.9492C117.758 40.4709 118.428 39.7668 118.911 38.8384C119.395 37.9101 119.636 36.8005 119.636 35.5096C119.636 34.4803 119.482 33.5979 119.174 32.8656C118.867 32.1333 118.41 31.5748 117.802 31.1901V31.1916ZM116.232 39.1771C116.042 39.8812 115.768 40.4026 115.409 40.7442C115.05 41.0858 114.622 41.2552 114.124 41.2552C113.567 41.2552 113.117 41.0665 112.773 40.6892C112.428 40.312 112.257 39.8262 112.257 39.2306V32.7498C112.483 32.6384 112.725 32.5448 112.992 32.4735C113.292 32.3933 113.617 32.3532 113.969 32.3532C114.554 32.3532 115.041 32.4987 115.429 32.7884C115.817 33.078 116.095 33.5251 116.263 34.1267C116.432 34.7283 116.516 35.5082 116.516 36.4662C116.516 37.5684 116.42 38.4715 116.231 39.1756L116.232 39.1771Z" fill="white"/>
<path d="M128.836 39.2979C128.353 39.5014 127.825 39.6024 127.254 39.6024C126.113 39.6024 125.256 39.2296 124.685 38.4824C124.114 37.7352 123.829 36.5499 123.829 34.9249C123.829 34.8877 123.829 34.8521 123.829 34.8164H130.174C130.087 33.4959 129.695 32.4665 128.999 31.7268C128.304 30.9871 127.347 30.6172 126.134 30.6172C125.035 30.6172 124.099 30.8786 123.323 31.4C122.547 31.9229 121.954 32.618 121.545 33.4885C121.134 34.3589 120.93 35.3096 120.93 36.339C120.93 37.4708 121.138 38.4349 121.555 39.2325C121.973 40.0302 122.554 40.6362 123.301 41.0492C124.048 41.4621 124.911 41.6701 125.893 41.6701C126.508 41.6701 127.064 41.572 127.562 41.376C128.059 41.1799 128.535 40.8427 128.989 40.3644C129.442 39.8861 129.889 39.2251 130.328 38.3844L130.241 38.319C129.787 38.7691 129.318 39.0959 128.835 39.2979H128.836ZM124.719 31.4416C125.004 31.1668 125.366 31.0286 125.806 31.0286C126.289 31.0286 126.666 31.2975 126.936 31.8337C127.185 32.3254 127.342 33.126 127.413 34.2267H123.847C123.878 33.637 123.947 33.132 124.059 32.7146C124.213 32.1412 124.434 31.7179 124.719 31.4416Z" fill="white"/>
<path d="M141.794 27.9603L141.904 26.0664H141.794L137.138 27.0898V27.1983L138.015 27.6721C138.516 27.9425 138.828 28.4683 138.828 29.0402V30.7439C138.322 30.6593 137.811 30.6147 137.29 30.6147C136.134 30.6147 135.113 30.8539 134.227 31.3322C133.341 31.8105 132.65 32.5041 132.153 33.4102C131.655 34.3163 131.406 35.4007 131.406 36.6633C131.406 37.6644 131.585 38.5453 131.944 39.3073C132.302 40.0693 132.808 40.6531 133.46 41.0586C134.112 41.4641 134.869 41.6676 135.732 41.6676C136.097 41.6676 136.442 41.6171 136.764 41.5146C137.086 41.4136 137.423 41.2101 137.774 40.9056C138.092 40.6293 138.446 40.2461 138.835 39.7574L138.97 41.6676H139.079L143.328 41.0155V40.9279L141.791 40.3619V27.9588L141.794 27.9603ZM137.116 39.9074C136.501 39.9223 136.007 39.7841 135.635 39.4945C135.26 39.2048 134.983 38.7473 134.799 38.1234C134.616 37.4996 134.524 36.6796 134.524 35.6651C134.524 34.5911 134.616 33.7073 134.799 33.0107C134.983 32.314 135.253 31.8105 135.612 31.4985C135.972 31.1866 136.414 31.0306 136.941 31.0306C137.497 31.0306 137.951 31.2193 138.303 31.5966C138.655 31.9739 138.831 32.4522 138.831 33.033V39.539C138.321 39.7856 137.75 39.9089 137.117 39.9089L137.116 39.9074Z" fill="white"/>
<path d="M160.358 40.256C160.175 40.2991 159.989 40.3213 159.798 40.3213C159.315 40.3213 159.074 40.0599 159.074 39.5385V33.7291C159.074 32.7131 158.784 31.9407 158.206 31.4119C157.628 30.8831 156.723 30.6172 155.493 30.6172C154.776 30.6172 154.025 30.7583 153.243 31.042C152.459 31.3242 151.797 31.6837 151.256 32.1189C150.715 32.5542 150.444 32.9389 150.444 33.2716C150.444 33.5033 150.524 33.6741 150.685 33.7826C150.846 33.891 151.087 33.946 151.41 33.946C151.643 33.946 151.863 33.8984 152.069 33.8049C152.273 33.7098 152.427 33.6058 152.53 33.49C152.647 33.3444 152.734 33.1201 152.793 32.8156C152.848 32.5334 152.901 32.1041 152.956 31.5337C153.237 31.4891 153.57 31.4668 153.957 31.4668C154.674 31.4668 155.205 31.6332 155.549 31.9674C155.894 32.3016 156.065 32.7948 156.065 33.4469V34.9962C154.499 35.4507 153.3 35.8622 152.476 36.232C151.633 36.6093 151.07 37.0044 150.784 37.4189C150.499 37.8318 150.355 38.3517 150.355 38.9741C150.355 39.8163 150.616 40.4728 151.135 40.9437C151.654 41.4146 152.375 41.6582 153.298 41.6731C154.029 41.6731 154.641 41.4413 155.131 40.9764C155.579 40.5531 155.894 39.944 156.08 39.1568C156.127 39.7287 156.206 40.1951 156.316 40.5516C156.441 40.9511 156.646 41.2408 156.931 41.422C157.217 41.6032 157.601 41.6939 158.085 41.6939C158.612 41.6939 159.087 41.5854 159.513 41.3671C159.937 41.1487 160.413 40.7506 160.941 40.1698V40.0614C160.735 40.149 160.542 40.2144 160.358 40.2575V40.256ZM155.395 39.7227C155.182 39.8312 154.937 39.8861 154.659 39.8861C154.235 39.8861 153.898 39.745 153.649 39.4613C153.4 39.1791 153.275 38.7617 153.275 38.2106C153.275 37.7323 153.349 37.3401 153.496 37.0356C153.642 36.7311 153.915 36.4266 154.319 36.1221C154.706 35.828 155.29 35.4938 156.065 35.1209V38.2982C156.065 38.6458 156.006 38.9444 155.889 39.1909C155.772 39.4375 155.607 39.6158 155.395 39.7242V39.7227Z" fill="white"/>
<path d="M105.754 28.8233C106.087 28.3316 106.351 27.987 106.548 27.791L103.961 26.0664C103.825 26.3531 103.605 26.7274 103.303 27.1894C103 27.6513 102.744 27.9945 102.531 28.2217L105.096 29.9686C105.201 29.6967 105.422 29.3135 105.754 28.8233Z" fill="white"/>
<path d="M148.147 30.6055H148.038L143.844 31.7581V31.8666L144.599 32.3909C144.951 32.6345 145.161 33.0371 145.161 33.4678V41.2335L143.975 41.5603V41.6688H149.333V41.5603L148.147 41.2558V30.6055Z" fill="white"/>
<path d="M147.793 28.8233C148.126 28.3316 148.391 27.987 148.587 27.791L146 26.0664C145.864 26.3531 145.644 26.7274 145.342 27.1894C145.039 27.6513 144.783 27.9945 144.57 28.2217L147.135 29.9686C147.24 29.6967 147.461 29.3135 147.793 28.8233Z" fill="white"/>
<path d="M99.7609 27.9603L99.8717 26.0664H99.7609L95.1053 27.0898V27.1983L95.9835 27.6721C96.4847 27.9425 96.7966 28.4683 96.7966 29.0402V30.7439C96.291 30.6593 95.7795 30.6147 95.2591 30.6147C94.103 30.6147 93.0814 30.8539 92.1958 31.3322C91.3102 31.8105 90.6183 32.5041 90.1216 33.4102C89.6234 34.3163 89.375 35.4007 89.375 36.6633C89.375 37.6644 89.5539 38.5453 89.9131 39.3073C90.2724 40.0693 90.7765 40.6531 91.4285 41.0586C92.0805 41.4641 92.8374 41.6676 93.7008 41.6676C94.066 41.6676 94.4105 41.6171 94.7328 41.5146C95.0551 41.4136 95.3921 41.2101 95.7425 40.9056C96.0604 40.6293 96.4152 40.2461 96.804 39.7559L96.9386 41.6661H97.048L101.297 41.014V40.9264L99.7594 40.3605V27.9573L99.7609 27.9603ZM95.0832 39.9074C94.4681 39.9223 93.9744 39.7841 93.6018 39.4945C93.2278 39.2048 92.9498 38.7473 92.7665 38.1234C92.5832 37.4996 92.4915 36.6796 92.4915 35.6651C92.4915 34.5911 92.5832 33.7073 92.7665 33.0107C92.9498 32.314 93.2204 31.8105 93.5796 31.4985C93.9389 31.1866 94.3809 31.0306 94.9087 31.0306C95.4646 31.0306 95.9185 31.2193 96.2703 31.5966C96.6222 31.9739 96.7981 32.4522 96.7981 33.033V39.539C96.2881 39.7856 95.7174 39.9089 95.0846 39.9089L95.0832 39.9074Z" fill="white"/>
<path d="M59.8299 13.9757C59.1794 13.9906 58.6427 13.9044 58.2184 13.7143C57.7941 13.5256 57.4733 13.2152 57.2545 12.7844C57.0357 12.3536 56.9248 11.7743 56.9248 11.048C56.9248 7.75037 56.91 5.51632 56.879 4.34285C56.8494 3.17087 56.7888 2.31676 56.6972 1.77905C56.607 1.24282 56.4177 0.648654 56.1294 -0.00195312C55.918 0.360486 55.5854 0.8373 55.1315 1.42701C54.6776 2.01671 54.2992 2.45639 53.9961 2.74307C54.3435 3.40854 54.586 4.01755 54.722 4.57012C54.858 5.12269 54.9556 5.9768 55.0177 7.13393C55.0783 8.29106 55.1315 10.1181 55.1759 12.6136C55.2054 14.4599 55.5765 15.7894 56.2876 16.6064C56.9988 17.4233 58.1785 17.8318 59.8284 17.8318C60.4494 17.8318 61.0156 17.7872 61.5301 17.6952C62.0446 17.6045 62.4985 17.4605 62.8917 17.2644C63.1031 17.1738 63.3678 16.8262 63.6856 16.2201C64.0035 15.6156 64.4041 14.7006 64.889 13.4751C64.3287 13.6712 63.591 13.8034 62.6759 13.8717C61.7607 13.9401 60.8116 13.9742 59.8284 13.9742L59.8299 13.9757Z" fill="white"/>
<path d="M64.141 6.28516C63.9902 6.69364 63.7211 7.19719 63.3352 7.79433C62.9494 8.39146 62.6212 8.8653 62.3477 9.21289L64.8891 13.479C65.0546 13.0111 65.2025 12.5224 65.3311 12.0158C65.4597 11.5093 65.5248 11.1053 65.5248 10.8023C65.5248 10.4086 65.4346 9.9244 65.2527 9.34954C65.0709 8.77469 64.6998 7.75422 64.141 6.28664V6.28516Z" fill="white"/>
<path d="M61.8618 21.0685C61.6593 21.3685 61.4745 21.6151 61.3044 21.8171L58.7187 20.002C58.5975 20.2738 58.389 20.6288 58.0948 21.0685C57.7991 21.5067 57.5315 21.8394 57.2891 22.0667L59.8541 23.9041C59.9753 23.6323 60.1986 23.2654 60.5238 22.8034C60.7382 22.4989 60.923 22.2568 61.0827 22.0682L63.6684 23.9041C63.7586 23.6323 63.9671 23.2654 64.2923 22.8034C64.6176 22.3415 64.8852 22.0132 65.098 21.8171L62.533 20.002C62.3807 20.2738 62.159 20.6288 61.8633 21.0685H61.8618ZM61.1093 22.034C61.1743 21.9567 61.2364 21.8869 61.2926 21.8305C61.229 21.9048 61.1684 21.9731 61.1093 22.034Z" fill="white"/>
<path d="M82.061 21.0685C81.8585 21.3685 81.6737 21.6151 81.5036 21.8171L78.9179 20.002C78.7967 20.2738 78.5897 20.6288 78.294 21.0685C77.9983 21.5067 77.7307 21.8394 77.4883 22.0667L80.0533 23.9041C80.1746 23.6323 80.3978 23.2654 80.7231 22.8034C80.9374 22.5004 81.1222 22.2553 81.2804 22.0667L83.8662 23.9041C83.9563 23.6323 84.1648 23.2654 84.49 22.8034C84.8153 22.3415 85.0829 22.0132 85.2958 21.8171L82.7307 20.002C82.5799 20.2738 82.3567 20.6288 82.061 21.0685ZM81.4948 21.8275C81.4268 21.9077 81.3602 21.982 81.2967 22.0459C81.3676 21.9612 81.4342 21.8869 81.4948 21.8275Z" fill="white"/>
<path d="M93.3264 21.1249C93.0233 21.5869 92.7676 21.93 92.5547 22.1573L95.1197 23.9041C95.2247 23.6323 95.445 23.249 95.7776 22.7589C96.1103 22.2672 96.3749 21.9226 96.5715 21.7265L93.9843 20.002C93.8483 20.2886 93.628 20.663 93.3264 21.1249Z" fill="white"/>
<path d="M106.582 6.28516C106.43 6.69364 106.163 7.19719 105.777 7.79433C105.391 8.39146 105.061 8.8653 104.789 9.21289L107.33 13.479C107.496 13.0096 107.644 12.5224 107.773 12.0158C107.901 11.5093 107.966 11.1053 107.966 10.8023C107.966 10.4086 107.876 9.92588 107.694 9.34954C107.512 8.77469 107.141 7.75422 106.582 6.28664V6.28516Z" fill="white"/>
<path d="M104.299 21.0685C104.097 21.3685 103.912 21.6151 103.742 21.8171L101.156 20.002C101.035 20.2738 100.827 20.6288 100.532 21.0685C100.238 21.5067 99.969 21.8394 99.7266 22.0667L102.292 23.9041C102.413 23.6323 102.636 23.2654 102.961 22.8034C103.174 22.5004 103.36 22.2553 103.519 22.0667L106.104 23.9041C106.195 23.6323 106.403 23.2654 106.728 22.8034C107.054 22.3415 107.323 22.0132 107.534 21.8171L104.969 20.002C104.818 20.2738 104.595 20.6288 104.299 21.0685ZM103.733 21.8275C103.665 21.9077 103.599 21.982 103.535 22.0459C103.606 21.9612 103.672 21.8884 103.733 21.8275Z" fill="white"/>
<path d="M102.268 13.9754C101.496 13.9903 100.85 13.8967 100.328 13.6917C99.8061 13.4868 99.4986 13.2045 99.4084 12.8406L100.044 10.4135H99.9303C99.6583 11.0343 99.3936 11.6018 99.1364 12.1157C98.8791 12.6297 98.6677 13.0085 98.5007 13.2506C98.304 13.4927 97.862 13.6739 97.173 13.7957C96.4841 13.9175 95.4063 13.9769 93.9383 13.9769H88.9915C88.2198 13.9918 87.5737 13.8982 87.0503 13.6932C86.5285 13.4882 86.2224 13.206 86.1308 12.8421L86.7665 10.4149H86.6527C86.3806 11.0358 86.116 11.6033 85.8587 12.1172C85.6015 12.6312 85.3901 13.0099 85.223 13.2521C85.0264 13.4942 84.5829 13.6754 83.8954 13.7972C83.2065 13.919 82.1287 13.9784 80.6606 13.9784H80.2526C79.4498 13.9784 78.8111 13.8804 78.3351 13.6828C77.859 13.4868 77.4806 13.1392 77.1997 12.6386C76.9203 12.1395 76.7118 11.4131 76.5758 10.461C76.3333 8.93399 76.1411 7.99818 75.9962 7.27182C75.8528 6.54546 75.1003 5.07491 74.7825 4.53125C74.6612 4.89369 73.3987 6.95543 73.171 7.22726C73.5347 7.68179 73.8511 8.18832 74.1246 8.74683C74.3966 9.30682 74.6361 9.73908 74.8401 10.4268C75.019 11.0329 75.1772 11.7028 75.3162 12.4306C74.6745 12.9312 73.9176 13.3649 73.0439 13.6308C72.1524 13.9027 71.2476 14.0378 70.3265 14.0378C69.5415 14.0378 68.9161 13.8863 68.4475 13.5848C67.9788 13.2833 67.7452 12.8391 67.7452 12.3564C67.7452 11.9939 67.7822 11.5869 67.8576 11.1339C67.933 10.6808 68.0616 10.1075 68.242 9.41377H68.1296C67.7526 10.6066 67.4761 11.6241 67.3032 12.4692C67.1302 13.3144 67.043 14.0913 67.043 14.7998C67.043 15.8411 67.2884 16.6076 67.7792 17.0978C68.27 17.588 68.9679 17.833 69.8727 17.833C70.7774 17.833 71.6305 17.6444 72.4761 17.2671C73.3218 16.8898 73.9856 16.3476 74.4676 15.6376C74.6494 15.3658 74.8032 15.0078 74.9318 14.5622C75.0545 14.1359 75.1876 13.4526 75.3324 12.5212C75.3457 12.5911 75.359 12.6579 75.3724 12.7277C75.5542 13.9977 75.8454 15.0048 76.2461 15.7461C76.6467 16.4873 77.1612 17.0205 77.7896 17.3458C78.4179 17.6711 79.2384 17.833 80.2526 17.833C80.872 17.833 81.4442 17.7766 81.9661 17.6622C82.488 17.5493 82.8857 17.3934 83.1577 17.1973C83.3543 17.0606 83.5997 16.7784 83.8954 16.3462C84.1896 15.9154 84.5415 15.2767 84.951 14.4285C84.9658 15.5024 85.2984 16.3387 85.9489 16.9359C86.5994 17.5345 87.5382 17.8316 88.7638 17.8316H93.5302C94.1512 17.8316 94.7218 17.7751 95.2437 17.6607C95.7656 17.5478 96.1633 17.3919 96.4353 17.1958C96.6319 17.0591 96.8774 16.7769 97.173 16.3447C97.4687 15.9139 97.8191 15.2752 98.2286 14.427C98.2434 15.501 98.5761 16.3372 99.228 16.9344C99.8785 17.533 100.817 17.8301 102.041 17.8301H102.268C102.889 17.8301 103.455 17.7855 103.971 17.6934C104.485 17.6028 104.939 17.4587 105.332 17.2626C105.544 17.172 105.808 16.8245 106.126 16.2184C106.444 15.6139 106.845 14.6988 107.33 13.4734C106.769 13.6695 106.032 13.8017 105.117 13.87C104.201 13.9383 103.252 13.9725 102.268 13.9725V13.9754Z" fill="white"/>
<path d="M117.444 15.8376C117.795 15.2553 118.142 14.4592 118.485 13.4491L118.489 13.4372C118.492 13.4283 118.495 13.4194 118.498 13.409C118.501 13.4001 118.504 13.3911 118.507 13.3807L118.517 13.3466C118.646 12.9262 118.761 12.4984 118.862 12.0587C118.968 11.5968 119.02 11.2225 119.02 10.9358C119.02 10.2243 118.767 9.46819 118.26 8.66607C117.753 7.86396 117.114 7.1985 116.343 6.66969C115.571 6.14089 114.799 5.875 114.028 5.875C113.906 5.875 113.659 5.875 113.387 6.01017L113.006 6.21516C112.945 6.59394 112.824 7.16136 112.642 7.91743C112.46 8.6735 112.317 9.1726 112.212 9.41472L112.62 9.32411C112.984 9.24835 113.21 9.21122 113.302 9.21122C113.936 9.21122 114.617 9.44146 115.343 9.90342C116.069 10.3654 116.727 10.9239 117.317 11.5819C117.86 12.188 118.235 12.7509 118.445 13.2738C118.464 13.3585 118.381 13.4446 118.37 13.455C117.857 13.6422 117.2 13.7744 116.397 13.8501C115.527 13.9333 114.6 13.9749 113.617 13.9749C112.633 13.9749 111.847 13.9066 111.256 13.7714C110.666 13.6348 110.241 13.4238 109.986 13.1357C109.986 12.9232 110.008 12.6143 110.054 12.2058C110.099 11.7973 110.151 11.4794 110.212 11.2536H110.098C109.931 11.8582 109.787 12.5133 109.666 13.2159C109.545 13.9199 109.484 14.5735 109.484 15.1781C109.484 15.7826 109.606 16.3055 109.848 16.6977C110.089 17.0913 110.457 17.378 110.948 17.5607C111.439 17.7419 112.048 17.8325 112.775 17.8325C113.577 17.8325 114.307 17.7538 114.965 17.5948C115.623 17.4359 116.156 17.2279 116.564 16.971C116.791 16.8046 117.082 16.4258 117.438 15.8361L117.444 15.8376Z" fill="white"/>
<path d="M156.58 13.0678L157.306 10.4134H157.192C156.935 11.0491 156.678 11.6165 156.421 12.1156C156.163 12.6147 155.945 12.9935 155.763 13.2505C155.611 13.4926 155.309 13.6738 154.855 13.7956C154.401 13.9174 153.826 13.9769 153.13 13.9769C152.555 13.9769 152.059 13.9174 151.644 13.7956C151.227 13.6753 150.906 13.4703 150.68 13.1837L152.178 10.1207H152.064C151.746 10.7105 151.406 11.2482 151.042 11.7309C150.679 12.2152 150.346 12.6162 150.043 12.9341C149.679 13.298 149.018 13.5624 148.057 13.7288C147.096 13.8952 145.693 13.9783 143.847 13.9783C142.5 13.9783 141.512 13.959 140.886 13.9219C140.593 13.9041 140.123 13.7689 139.684 13.6174C140.276 12.946 140.77 12.2939 141.159 11.6641C141.56 11.0135 141.761 10.4698 141.761 10.0301C141.761 9.25921 141.455 8.63831 140.841 8.16893C140.229 7.70102 139.31 7.46484 138.084 7.46484C137.237 7.46484 135.988 7.52575 134.339 7.64606L133.727 7.69063L133.637 7.94017C133.547 8.33381 133.384 8.82102 133.149 9.4033C132.914 9.98558 132.714 10.4282 132.547 10.7312C133.773 10.8976 134.771 11.0863 135.543 11.2987C136.314 11.5111 136.938 11.7681 137.414 12.0696C137.89 12.3726 138.288 12.7425 138.606 13.1807C138 13.4525 137.043 13.653 135.735 13.7823C134.426 13.9115 131.002 13.9754 128.915 13.9754H128.909C128.878 13.1124 128.711 12.2761 128.405 11.468C128.065 10.5679 127.621 9.84595 127.077 9.3008C126.532 8.75566 125.927 8.48383 125.262 8.48383C124.536 8.48383 123.912 8.85073 123.39 9.58452C122.868 10.3183 122.38 11.5022 121.926 13.1346C122.213 12.5895 122.531 12.1736 122.88 11.8869C123.227 11.6002 123.629 11.4487 124.083 11.4324C125.083 11.4324 125.967 11.829 126.739 12.6237C127.113 13.0099 127.459 13.4852 127.776 14.0482C127.587 14.0615 127.391 14.0749 127.181 14.0868C126.644 14.1165 125.943 14.1313 125.081 14.1313C124.143 14.1313 123.428 14.0482 122.936 13.8818C122.444 13.7154 122.107 13.4659 121.926 13.1331C121.82 13.5268 121.73 13.9353 121.654 14.3586C121.579 14.7819 121.548 15.1295 121.564 15.4028C121.564 16.1738 121.829 16.7724 122.358 17.1957C122.887 17.6191 123.705 17.8315 124.809 17.8315H127.765C127.365 18.237 126.881 18.6544 126.285 19.0451C125.028 19.8695 123.727 20.5572 122.382 21.1098C121.035 21.6623 120.044 21.9371 119.409 21.9371C119.166 21.9371 118.856 21.8658 118.479 21.7218C118.1 21.5777 117.42 21.2717 116.436 20.8023L116.277 20.7117V20.8246C117.442 21.5806 118.724 22.3219 120.124 23.0482C121.523 23.7746 122.564 24.2514 123.245 24.4772C123.835 24.189 124.415 23.8563 124.981 23.479C125.548 23.1002 126.085 22.6813 126.592 22.2194C127.099 21.7574 127.519 21.2776 127.852 20.7785C128.08 20.4309 128.264 19.9615 128.408 19.3718C128.496 19.0064 128.557 18.4628 128.629 17.8285H130.643C131.718 17.8285 132.905 17.6815 134.206 17.3859C135.507 17.0903 136.475 16.7323 137.111 16.3075C137.414 16.0965 137.747 15.8084 138.109 15.4459C138.437 15.1176 138.797 14.7196 139.187 14.2561C139.69 15.1949 140.083 15.9376 140.334 16.4441C140.614 17.0086 140.946 17.3933 141.402 17.5671C141.855 17.7409 142.544 17.8285 143.467 17.8285H143.853C144.518 17.8285 145.188 17.7528 145.862 17.6012C146.535 17.4497 147.039 17.2611 147.371 17.0338C147.825 16.7308 148.423 15.9524 149.165 14.6973C149.089 15.7267 149.301 16.505 149.8 17.0338C150.3 17.5626 150.973 17.8285 151.82 17.8285C152.501 17.8285 153.106 17.6206 153.635 17.2046C154.165 16.7887 154.709 15.9911 155.269 14.8102C155.148 15.8232 155.427 16.5986 156.109 17.1363C156.789 17.6725 157.66 17.9637 158.718 18.0097L160.398 14.2888C159.49 14.2888 158.684 14.1833 157.98 13.9709C157.277 13.76 156.811 13.457 156.585 13.0633L156.58 13.0678Z" fill="white"/>
<path d="M160.958 10.5945C160.883 10.2009 160.754 9.64089 160.572 8.91602C160.376 9.18784 160.08 9.53691 159.687 9.96025C159.293 10.3836 158.968 10.7015 158.711 10.9124C159.286 11.6997 159.706 12.3681 159.971 12.9207C160.235 13.4732 160.368 13.8624 160.368 14.0897C160.368 14.1342 160.371 14.1729 160.38 14.2026C160.387 14.2338 160.39 14.2635 160.39 14.2932C160.633 13.6738 160.807 13.1702 160.912 12.784C161.017 12.3978 161.07 12.0324 161.07 11.6833C161.07 11.3343 161.032 10.9882 160.957 10.5945H160.958Z" fill="white"/>
<path d="M155.952 4.50421L156.638 3.81053C156.352 3.65308 156.1 3.50899 155.872 3.37234C155.927 3.31886 155.98 3.26687 156.03 3.21043C156.282 2.93266 156.477 2.6326 156.614 2.31027L155.352 3.04703C155.049 2.8465 154.824 2.67271 154.682 2.53011C154.385 2.23006 154.235 1.96417 154.235 1.73393C154.235 1.65669 154.286 1.55272 154.385 1.422C154.484 1.29128 154.621 1.17542 154.796 1.0759C154.972 0.976378 155.165 0.925875 155.38 0.925875C155.745 0.925875 156.043 1.04471 156.271 1.28386C156.5 1.52301 156.614 1.86465 156.614 2.31176C156.69 2.14242 156.752 1.96566 156.796 1.77998C156.842 1.59579 156.864 1.42646 156.864 1.27197C156.864 0.887254 156.772 0.579775 156.589 0.348052C156.406 0.116329 156.193 0.00195312 155.949 0.00195312C155.63 0.00195312 155.319 0.156435 155.023 0.463914C154.726 0.772878 154.482 1.1264 154.292 1.52598C154.101 1.92704 154.005 2.26571 154.005 2.54199C154.005 2.84947 154.138 3.1421 154.405 3.41987C154.439 3.45552 154.479 3.49265 154.522 3.53127L152.061 4.96766L151.945 5.77572L155.085 3.96353C155.326 4.12841 155.612 4.30814 155.949 4.50421H155.952Z" fill="white"/>
<path d="M64.5119 0L59.8223 2.6559L59.707 3.46396L64.3966 1.03978L64.5119 0Z" fill="white"/>
</g>
<defs>
<linearGradient id="paint0_linear_6349_71638" x1="14.5816" y1="42.0615" x2="31.5863" y2="6.56023" gradientUnits="userSpaceOnUse">
<stop stop-color="#00A19B"/>
<stop offset="1" stop-color="#90D5AC"/>
</linearGradient>
<clipPath id="clip0_6349_71638">
<rect width="160.531" height="46" fill="white" transform="translate(0.542969)"/>
</clipPath>
</defs>
</svg>
