<svg width="285" height="81" viewBox="0 0 285 81" fill="none" xmlns="http://www.w3.org/2000/svg">
<g clip-path="url(#clip0_1_2)">
<path d="M250.991 39.1627C250.589 39.4365 250.354 39.8819 250.354 40.3598V52.3728C250.354 53.1802 251.024 53.8344 251.861 53.8344C252.698 53.8344 253.368 53.1848 253.368 52.3728V41.1162L266.527 32.1795C266.976 32.4022 267.479 32.5322 268.024 32.5322C269.808 32.5322 271.257 31.1309 271.257 29.3955C271.257 27.6602 269.813 26.2589 268.024 26.2589C266.235 26.2589 264.79 27.6602 264.79 29.3955C264.79 29.5254 264.8 29.6507 264.814 29.7853L251 39.1674L250.991 39.1581V39.1627Z" fill="white"/>
<path d="M241.653 35.9704V47.937C240.625 48.4659 239.927 49.5053 239.927 50.7163C239.927 52.447 241.371 53.853 243.16 53.853C244.949 53.853 246.394 52.4517 246.394 50.7163C246.394 49.5099 245.686 48.4659 244.657 47.937V36.7314L264.111 23.5213C264.513 23.2475 264.747 22.8021 264.747 22.3242V13.4061C264.747 12.5987 264.078 11.9445 263.241 11.9445C262.404 11.9445 261.734 12.5941 261.734 13.4061V21.5678L242.28 34.7779C241.878 35.0517 241.644 35.4971 241.644 35.975H241.653V35.9704Z" fill="white"/>
<path d="M264.977 39.9701L260.007 43.3434C259.328 43.8074 259.165 44.7122 259.644 45.371C259.931 45.7747 260.399 45.9882 260.878 45.9882C261.174 45.9882 261.471 45.9046 261.739 45.7237L266.709 42.3504C267.388 41.8864 267.55 40.9816 267.072 40.3227C266.594 39.6638 265.661 39.5061 264.982 39.9701H264.977Z" fill="white"/>
<path d="M274.462 48.4566C273.979 47.7885 273.023 47.6214 272.329 48.0947L248.852 64.0378L225.376 48.0947C224.687 47.6261 223.726 47.7885 223.242 48.4566C222.759 49.1341 222.927 50.0574 223.615 50.5261L246.174 65.8474L239.563 70.3342C239.113 70.1115 238.602 69.9816 238.056 69.9816C236.234 69.9816 234.765 71.4107 234.765 73.1739C234.765 74.9371 236.239 76.3662 238.056 76.3662C239.874 76.3662 241.347 74.9371 241.347 73.1739C241.347 73.044 241.338 72.9002 241.323 72.7702L248.852 67.6616L256.381 72.7702C256.362 72.9002 256.357 73.0347 256.357 73.1739C256.357 74.9418 257.831 76.3662 259.648 76.3662C261.466 76.3662 262.939 74.9371 262.939 73.1739C262.939 71.4107 261.466 69.9816 259.648 69.9816C259.103 69.9816 258.591 70.1115 258.142 70.3342L251.531 65.8474L274.089 50.5261C274.778 50.0574 274.95 49.1294 274.462 48.4566Z" fill="white"/>
<path d="M232.718 13.9211L237.688 10.5478C238.367 10.0838 238.53 9.17904 238.052 8.52016C237.765 8.11648 237.296 7.90304 236.817 7.90304C236.521 7.90304 236.224 7.98656 235.956 8.16752L230.987 11.5408C230.307 12.0048 230.145 12.9096 230.623 13.5685C231.101 14.2274 232.034 14.3851 232.713 13.9211H232.718Z" fill="white"/>
<path d="M253.043 9.13728V17.1645L233.589 30.3746C233.187 30.6483 232.953 31.0938 232.953 31.5717V40.4898C232.953 41.2971 233.622 41.9514 234.459 41.9514C235.296 41.9514 235.966 41.3018 235.966 40.4898V32.328L255.42 19.1179C255.822 18.8442 256.056 18.3987 256.056 17.9208V9.13264C257.084 8.60368 257.783 7.56432 257.783 6.35328C257.783 4.62256 256.338 3.21664 254.549 3.21664C252.76 3.21664 251.316 4.61792 251.316 6.35328C251.316 7.55968 252.024 8.60368 253.052 9.13264H253.043V9.13728Z" fill="white"/>
<path d="M229.681 27.637C231.465 27.637 232.914 26.2357 232.914 24.5003C232.914 24.3704 232.905 24.2451 232.89 24.1106L246.705 14.7285C247.106 14.4547 247.341 14.0093 247.341 13.5314V4.69216C247.341 3.8848 246.671 3.23056 245.834 3.23056C244.997 3.23056 244.327 3.88016 244.327 4.69216V12.7704L231.168 21.7163C230.719 21.4936 230.216 21.3637 229.671 21.3637C227.887 21.3637 226.438 22.765 226.438 24.5003C226.438 26.2357 227.882 27.637 229.671 27.637H229.681Z" fill="white"/>
<path d="M61.9388 29.2099V15.4894H66.6695C68.8125 15.4894 70.5249 16.1019 71.7925 17.3222C73.0696 18.5426 73.7058 20.2083 73.7058 22.3149C73.7058 24.4214 73.0696 26.129 71.7829 27.3632C70.4962 28.5974 68.7981 29.2192 66.6695 29.2192H61.9388V29.2099ZM66.593 17.8837H64.8327V26.8203H66.593C69.3386 26.8203 70.721 25.317 70.721 22.3149C70.721 19.3128 69.3434 17.8837 66.593 17.8837Z" fill="white"/>
<path d="M77.2024 17.8651C76.6906 17.8651 76.2936 17.7259 76.0114 17.4522C75.7292 17.1784 75.5857 16.8072 75.5857 16.3525C75.5857 15.8978 75.7292 15.5266 76.0114 15.2528C76.2936 14.979 76.6906 14.8398 77.2024 14.8398C77.7142 14.8398 78.0969 14.979 78.3743 15.2528C78.6518 15.5266 78.8001 15.8978 78.8001 16.3525C78.8001 16.8072 78.6566 17.1784 78.3743 17.4522C78.0921 17.7259 77.7047 17.8651 77.2024 17.8651ZM78.5992 19.2014V29.2192H75.8105V19.2014H78.5992Z" fill="white"/>
<path d="M85.1045 32.9405C83.77 32.9405 82.5932 32.7363 81.5648 32.328L82.1532 30.189C82.9855 30.5184 83.9134 30.6762 84.9419 30.6762C85.7311 30.6762 86.3529 30.5184 86.7882 30.2075C87.2235 29.892 87.4436 29.4419 87.4436 28.8526V28.3979C86.8074 28.6392 86.176 28.7506 85.5446 28.7506C84.0283 28.7506 82.8563 28.3469 81.9953 27.5302C81.1343 26.7136 80.7086 25.5675 80.7086 24.0874C80.7086 22.519 81.2109 21.2755 82.2058 20.3429C83.2007 19.4195 84.5209 18.9462 86.1712 18.9462C87.6492 18.9462 89.0029 19.2107 90.2131 19.7304V28.5742C90.2131 29.943 89.7635 31.0149 88.8498 31.7758C87.941 32.5414 86.6878 32.9219 85.0997 32.9219V32.9312L85.1045 32.9405ZM83.5643 23.8646C83.5643 24.6906 83.7747 25.3355 84.2005 25.8042C84.6262 26.2728 85.2193 26.5048 85.9846 26.5048C86.4678 26.5048 86.9556 26.3981 87.4388 26.1754V21.4147C86.97 21.2755 86.5443 21.2013 86.1616 21.2013C85.3341 21.2013 84.6979 21.4426 84.2387 21.9251C83.7795 22.4123 83.5499 23.0573 83.5499 23.8646H83.5595H83.5643Z" fill="white"/>
<path d="M94.2981 17.8651C93.7863 17.8651 93.3892 17.7259 93.107 17.4522C92.8248 17.1784 92.6813 16.8072 92.6813 16.3525C92.6813 15.8978 92.8248 15.5266 93.107 15.2528C93.3892 14.979 93.7863 14.8398 94.2981 14.8398C94.8099 14.8398 95.1926 14.979 95.47 15.2528C95.7474 15.5266 95.8957 15.8978 95.8957 16.3525C95.8957 16.8072 95.7522 17.1784 95.47 17.4522C95.1878 17.7259 94.8003 17.8651 94.2981 17.8651ZM95.6948 19.2014V29.2192H92.9061V19.2014H95.6948Z" fill="white"/>
<path d="M104.099 29.2702C103.616 29.3862 103.028 29.4419 102.339 29.4419C99.9137 29.4419 98.6987 28.1566 98.6987 25.5814V21.3498H97.3211V19.1968H98.6987V17.0206L101.487 16.8814V19.1922H103.731V21.3451H101.487V25.535C101.487 26.6486 101.956 27.2008 102.884 27.2008C103.248 27.2008 103.606 27.159 103.956 27.0848L104.099 29.261V29.2702Z" fill="white"/>
<path d="M113.704 28.5835C112.546 29.1589 111.073 29.4512 109.299 29.4512C107.964 29.4512 106.936 29.1635 106.218 28.6021C105.496 28.0314 105.137 27.289 105.137 26.3749C105.137 25.4608 105.51 24.6674 106.252 24.1245C106.993 23.5723 107.978 23.2893 109.203 23.2846C109.729 23.2846 110.327 23.3357 110.997 23.4424V22.9738C110.997 21.7952 110.308 21.2059 108.94 21.2059C107.945 21.2059 107.05 21.3637 106.271 21.6746L105.769 19.5541C106.74 19.1597 107.902 18.9694 109.265 18.9694C110.738 18.9694 111.843 19.3314 112.59 20.0506C113.336 20.7698 113.714 21.7998 113.714 23.1454V28.6021L113.704 28.5928V28.5835ZM109.576 27.5024C110.169 27.5024 110.638 27.4096 110.987 27.2286V25.1314C110.485 25.0246 110.007 24.9736 109.547 24.9736C108.442 24.9736 107.888 25.4005 107.888 26.245C107.888 27.0894 108.447 27.4978 109.562 27.4978H109.571L109.576 27.5024Z" fill="white"/>
<path d="M118.961 15.0022V25.5907C118.961 26.6718 119.324 27.2147 120.052 27.2147C120.262 27.2147 120.458 27.1962 120.64 27.159L120.846 29.2981C120.334 29.4048 119.86 29.4558 119.434 29.4558C117.268 29.4558 116.187 28.1845 116.187 25.6371V15.1646L118.975 15.0069H118.966L118.961 15.0022Z" fill="white"/>
<path d="M19.5776 51.8949C18.1331 52.6141 16.6407 52.976 15.11 52.976C12.924 52.976 11.2211 52.3496 9.98703 51.0875C8.75293 49.8254 8.14067 48.1411 8.14067 46.0392C8.14067 43.9373 8.77207 42.1184 10.0396 40.7821C11.3072 39.4458 13.034 38.7869 15.2391 38.7869C16.6694 38.7869 17.9465 39.0282 19.0754 39.4875L18.4296 41.84C17.4442 41.4502 16.3967 41.2554 15.2726 41.2554C13.9094 41.2554 12.8809 41.6776 12.1778 42.5174C11.4794 43.3573 11.1207 44.5312 11.1207 46.0392C11.1207 47.4498 11.4699 48.5494 12.1778 49.3336C12.8762 50.1178 13.895 50.5122 15.2296 50.5122C15.7988 50.5122 16.368 50.4472 16.9468 50.3126V47.2781H14.6269V44.9674H19.5776V51.9088V51.8995V51.8949Z" fill="white"/>
<path d="M31.5216 47.7189C31.5216 49.3104 31.072 50.591 30.1679 51.5376C29.2639 52.4934 28.0393 52.9667 26.4943 52.9667C24.9493 52.9667 23.7104 52.4888 22.8016 51.5237C21.8927 50.5678 21.4383 49.2965 21.4383 47.7096C21.4383 46.1227 21.888 44.8606 22.8016 43.9048C23.7152 42.949 24.9349 42.4757 26.4943 42.4757C28.0537 42.4757 29.2686 42.9536 30.1679 43.9048C31.072 44.8606 31.5216 46.1227 31.5216 47.7096V47.7189ZM24.2844 47.7189C24.2844 48.6608 24.4805 49.4032 24.8632 49.9322C25.2459 50.4704 25.7912 50.7349 26.4895 50.7349C27.1879 50.7349 27.7332 50.4704 28.1063 49.9322C28.4794 49.3939 28.6755 48.6608 28.6755 47.7189C28.6755 46.777 28.489 46.0438 28.1063 45.5149C27.7332 44.9859 27.1879 44.7214 26.4895 44.7214C25.7912 44.7214 25.2459 44.9859 24.8632 45.5242C24.4805 46.0624 24.2844 46.7955 24.2844 47.7189Z" fill="white"/>
<path d="M32.7701 42.7216H35.5779C35.7644 45.603 36.4723 48.2107 37.7064 50.5586C38.3378 49.3707 38.8401 48.1643 39.1941 46.944C39.548 45.7237 39.7728 44.3131 39.8494 42.717H42.6381C42.4324 44.6797 42.0832 46.3872 41.5809 47.8674C41.0787 49.3382 40.3038 50.9622 39.261 52.7347H36.1662C35.0613 50.9298 34.2529 49.2918 33.7506 47.8349C33.2484 46.3779 32.9183 44.6658 32.7701 42.717V42.7216Z" fill="white"/>
<path d="M52.7453 52.3078C51.7312 52.7533 50.5593 52.976 49.2056 52.976C47.5649 52.976 46.2351 52.5074 45.2306 51.5562C44.2261 50.605 43.7239 49.329 43.7239 47.7189C43.7239 46.1088 44.1927 44.907 45.1206 43.9326C46.0486 42.9675 47.254 42.4803 48.7368 42.4803C50.057 42.4803 51.1189 42.8933 51.9177 43.7192C52.7166 44.5451 53.1184 45.617 53.1184 46.9394C53.1184 47.408 53.0944 47.9045 53.0323 48.4334H46.6417C46.8952 49.9507 47.8423 50.7117 49.4735 50.7117C50.4158 50.7117 51.3533 50.5214 52.2813 50.141L52.7213 52.3171L52.7405 52.3078H52.7453ZM48.7464 44.6426C48.1676 44.6426 47.6893 44.8328 47.3162 45.2133C46.9431 45.5938 46.7135 46.1134 46.6178 46.7816H50.454V46.5403C50.454 45.9789 50.301 45.5149 50.0044 45.1715C49.6983 44.8189 49.2821 44.6426 48.7368 44.6426H48.7464Z" fill="white"/>
<path d="M55.2469 43.348C56.4284 42.7726 57.8491 42.4803 59.4898 42.4803C60.212 42.4803 60.8243 42.536 61.3122 42.652L60.9104 44.8653C60.6043 44.7586 60.2025 44.7075 59.7193 44.7075C59.0879 44.7075 58.5283 44.8235 58.0452 45.037V52.7208H55.2565V43.3294L55.2469 43.348Z" fill="white"/>
<path d="M65.6603 52.744H62.8859V43.3526C64.2731 42.7773 65.7942 42.485 67.454 42.485C68.9321 42.485 70.0848 42.833 70.8884 43.5243C71.6968 44.2157 72.1034 45.2086 72.1034 46.5032V52.7394H69.3147V46.6981C69.3147 45.3757 68.6833 44.7168 67.4349 44.7168C66.77 44.7168 66.1864 44.8328 65.6555 45.0694V52.7347L65.6603 52.744Z" fill="white"/>
<path d="M77.4225 45.0787V52.744H74.6481V43.3526C76.0114 42.7773 77.5229 42.485 79.1971 42.485C80.3786 42.485 81.3304 42.7494 82.0479 43.2877C83.1529 42.7494 84.2531 42.485 85.3389 42.485C86.7691 42.485 87.8645 42.833 88.6394 43.5336C89.4143 44.2342 89.8065 45.2272 89.8065 46.5032V52.7394H87.0322V46.6981C87.0322 45.3757 86.4295 44.7168 85.2097 44.7168C84.5401 44.7168 83.9087 44.8746 83.3299 45.1854C83.4925 45.7237 83.5786 46.3315 83.5786 47.0275V52.7301H80.8712V46.6888C80.8712 46.0206 80.7277 45.5242 80.436 45.1947C80.149 44.8653 79.6898 44.7075 79.0488 44.7075C78.4796 44.7075 77.9343 44.8235 77.4177 45.0602V45.0694L77.4225 45.0787Z" fill="white"/>
<path d="M100.823 52.3078C99.8085 52.7533 98.6366 52.976 97.2829 52.976C95.6422 52.976 94.3124 52.5074 93.3079 51.5562C92.3034 50.605 91.8012 49.329 91.8012 47.7189C91.8012 46.1088 92.2699 44.907 93.1979 43.9326C94.1259 42.9675 95.3313 42.4803 96.8141 42.4803C98.1343 42.4803 99.1962 42.8933 99.995 43.7192C100.794 44.5451 101.196 45.617 101.196 46.9394C101.196 47.408 101.172 47.9045 101.11 48.4334H94.719C94.9725 49.9507 95.9196 50.7117 97.5507 50.7117C98.4931 50.7117 99.4306 50.5214 100.359 50.141L100.799 52.3171L100.818 52.3078H100.823ZM96.8285 44.6426C96.2497 44.6426 95.7713 44.8328 95.3982 45.2133C95.0251 45.5938 94.7955 46.1134 94.6999 46.7816H98.5361V46.5403C98.5361 45.9789 98.383 45.5149 98.0865 45.1715C97.7803 44.8189 97.3642 44.6426 96.8189 44.6426H96.8285Z" fill="white"/>
<path d="M106.079 52.744H103.305V43.3526C104.692 42.7773 106.213 42.485 107.873 42.485C109.351 42.485 110.504 42.833 111.308 43.5243C112.116 44.2157 112.523 45.2086 112.523 46.5032V52.7394H109.734V46.6981C109.734 45.3757 109.102 44.7168 107.854 44.7168C107.189 44.7168 106.606 44.8328 106.075 45.0694V52.7347L106.079 52.744Z" fill="white"/>
<path d="M120.798 52.8043C120.315 52.9203 119.726 52.976 119.037 52.976C116.612 52.976 115.397 51.6907 115.397 49.1155V44.8838H114.02V42.7309H115.397V40.5547L118.186 40.4155V42.7262H120.429V44.8792H118.186V49.0691C118.186 50.1827 118.655 50.7349 119.583 50.7349C119.946 50.7349 120.305 50.6931 120.654 50.6189L120.798 52.795V52.8043Z" fill="white"/>
<path d="M44.317 76.2688L43.4656 73.2482H38.2518C37.9695 74.1622 37.6825 75.1691 37.4003 76.2688H34.4299C36.0466 70.5338 37.6778 65.9541 39.3376 62.5483H42.3511C44.0587 66.0654 45.7042 70.6451 47.2827 76.2688H44.3122H44.317ZM40.8635 65.5272C40.3803 66.5526 39.7489 68.3251 38.9645 70.8586H42.7433C41.9349 68.2323 41.3035 66.4506 40.8635 65.5272Z" fill="white"/>
<path d="M57.9782 75.6424C56.5384 76.2178 55.003 76.5101 53.3671 76.5101C51.7312 76.5101 50.5688 76.1482 49.8705 75.4197C49.1721 74.6912 48.8134 73.6611 48.8134 72.3109V66.2557H51.5877V72.3109C51.5877 73.6147 52.2 74.2736 53.4245 74.2736C54.0894 74.2736 54.6729 74.1576 55.1848 73.921V66.2557H57.9734V75.647L57.9782 75.6424Z" fill="white"/>
<path d="M66.3491 76.3291C65.8659 76.4451 65.2776 76.5008 64.5888 76.5008C62.1636 76.5008 60.9487 75.2155 60.9487 72.6403V68.4086H59.5711V66.2557H60.9487V64.0795L63.7374 63.9403V66.251H65.9807V68.404H63.7374V72.6032C63.7374 73.7168 64.2061 74.269 65.1341 74.269C65.4976 74.269 65.8564 74.2272 66.2056 74.153L66.3491 76.3291Z" fill="white"/>
<path d="M70.855 76.2688H68.0663V62.191L70.855 62.0518V66.3995C71.4242 66.135 72.113 66.0051 72.9405 66.0051C74.275 66.0051 75.3322 66.3531 76.1118 67.0538C76.8963 67.7544 77.2838 68.7474 77.2838 70.0234V76.2595H74.4951V70.2461C74.4951 68.9237 73.8302 68.2648 72.4956 68.2648C71.9408 68.2648 71.4003 68.3901 70.8645 68.636V76.2595L70.855 76.2688Z" fill="white"/>
<path d="M89.3665 71.253C89.3665 72.8445 88.9168 74.1251 88.0128 75.0717C87.1087 76.0275 85.8842 76.5008 84.3392 76.5008C82.7942 76.5008 81.5553 76.0229 80.6464 75.0578C79.7376 74.0926 79.2832 72.8213 79.2832 71.2437C79.2832 69.6661 79.7328 68.3947 80.6464 67.4389C81.5601 66.483 82.7798 66.0098 84.3392 66.0098C85.8985 66.0098 87.1135 66.4877 88.0128 67.4389C88.9168 68.3947 89.3665 69.6568 89.3665 71.2437V71.253ZM82.1293 71.253C82.1293 72.1949 82.3254 72.9373 82.7081 73.4662C83.0907 74.0045 83.636 74.269 84.3344 74.269C85.0328 74.269 85.5781 74.0045 85.9512 73.4662C86.3243 72.928 86.5204 72.1949 86.5204 71.253C86.5204 70.311 86.3338 69.5779 85.9512 69.049C85.5781 68.52 85.0328 68.2555 84.3344 68.2555C83.636 68.2555 83.0907 68.52 82.7081 69.0582C82.3254 69.5965 82.1293 70.3296 82.1293 71.253Z" fill="white"/>
<path d="M91.495 66.8821C92.6765 66.3067 94.0972 66.0144 95.7379 66.0144C96.4601 66.0144 97.0724 66.0701 97.5603 66.1861L97.1585 68.3994C96.8524 68.2926 96.4506 68.2416 95.9675 68.2416C95.3361 68.2416 94.7764 68.3483 94.2933 68.571V76.2549H91.5046V66.8635L91.495 66.8821Z" fill="white"/>
<path d="M100.545 64.9147C100.033 64.9147 99.6363 64.7755 99.3541 64.5018C99.0718 64.228 98.9283 63.8568 98.9283 63.4021C98.9283 62.9474 99.0718 62.5762 99.3541 62.3024C99.6363 62.0286 100.033 61.8894 100.545 61.8894C101.057 61.8894 101.44 62.0286 101.717 62.3024C101.994 62.5762 102.143 62.9474 102.143 63.4021C102.143 63.8568 101.999 64.228 101.717 64.5018C101.435 64.7755 101.047 64.9147 100.545 64.9147ZM101.937 66.2557V76.2734H99.1484V66.2557H101.937Z" fill="white"/>
<path d="M110.341 76.3291C109.858 76.4451 109.27 76.5008 108.581 76.5008C106.156 76.5008 104.941 75.2155 104.941 72.6403V68.4086H103.563V66.2557H104.941V64.0795L107.73 63.9403V66.251H109.973V68.404H107.73V72.6032C107.73 73.7168 108.198 74.269 109.126 74.269C109.49 74.269 109.849 74.2272 110.198 74.153L110.341 76.3291Z" fill="white"/>
<path d="M117.822 75.4058C116.273 78.0459 114.335 79.5493 112.006 79.9112L111.566 77.619C112.188 77.5262 112.81 77.3035 113.436 76.9416C114.063 76.5797 114.527 76.1574 114.823 75.6795C113.69 74.1854 112.843 72.7099 112.264 71.2483C111.695 69.7867 111.327 68.121 111.183 66.2464H113.991C114.101 68.8726 114.857 71.3272 116.273 73.6147C116.808 72.5011 117.215 71.4014 117.473 70.3157C117.736 69.2253 117.909 67.8658 117.99 66.2464H120.764C120.516 69.4062 119.549 72.4594 117.837 75.4058H117.827H117.822Z" fill="white"/>
<path d="M142.227 29.3259H141.17C139.649 29.3259 138.635 28.8155 138.142 27.7994C137.472 27.8736 136.851 27.9154 136.281 27.9154C134.894 27.9154 133.799 27.6694 133 27.173C132.201 26.6765 131.799 25.9248 131.799 24.9226C131.799 23.7579 132.182 22.7278 132.947 21.837C133.713 20.9461 134.708 20.2686 135.942 19.8232C137.166 19.3778 138.52 19.155 139.984 19.155V24.8994C139.984 25.5258 140.127 25.9573 140.419 26.1707C140.706 26.3934 141.227 26.5002 141.983 26.5002H142.232V29.3306L142.227 29.3259ZM136.774 25.4469C137.176 25.4469 137.487 25.4283 137.702 25.4051V21.8416C136.588 21.9808 135.679 22.3056 134.98 22.7974C134.282 23.2939 133.942 23.7858 133.942 24.2683C133.942 24.607 134.191 24.8854 134.674 25.1082C135.157 25.3309 135.856 25.4376 136.774 25.4376V25.4469ZM138.534 17.9997L136.918 16.6866L135.669 18.0554L133.966 16.6866L135.377 15.1043L136.994 16.4592L138.243 15.0486L139.945 16.4592L138.534 18.009V17.9997Z" fill="white"/>
<path d="M142.227 29.3259C142.05 29.3259 141.902 29.1867 141.777 28.913C141.653 28.6392 141.581 28.3005 141.581 27.9154C141.581 27.5302 141.648 27.1915 141.777 26.9178C141.907 26.644 142.06 26.5048 142.227 26.5048H147.058V29.3259H142.227Z" fill="white"/>
<path d="M147.058 29.3259C146.881 29.3259 146.733 29.1867 146.609 28.913C146.484 28.6392 146.412 28.3005 146.412 27.9154C146.412 27.5302 146.479 27.1915 146.609 26.9178C146.738 26.644 146.891 26.5048 147.058 26.5048H151.889V29.3259H147.058Z" fill="white"/>
<path d="M151.889 29.3259C151.712 29.3259 151.564 29.1867 151.44 28.913C151.315 28.6392 151.244 28.3005 151.244 27.9154C151.244 27.5302 151.311 27.1915 151.44 26.9178C151.569 26.644 151.722 26.5048 151.889 26.5048H152.196C153.286 26.5048 154.008 26.3656 154.362 26.0918C154.716 25.8181 154.898 25.4144 154.898 24.8947V22.1478L157.323 21.9762V24.6395C157.323 25.201 157.28 25.7114 157.204 26.1661C157.936 26.3888 158.811 26.4955 159.835 26.4955H159.954V29.3166H159.409C157.936 29.3166 156.778 29.0197 155.931 28.4165C155.176 29.0197 154.018 29.3166 152.454 29.3166H151.885L151.894 29.3259H151.889ZM157.428 20.2918C155.95 20.5378 154.458 20.9414 152.961 21.5029L152.578 20.3475C153.147 20.1062 153.583 19.9438 153.889 19.8371C153.363 19.4845 153.1 18.9555 153.1 18.2549C153.1 17.6517 153.305 17.1738 153.712 16.8258C154.118 16.4731 154.621 16.2968 155.219 16.2968C155.817 16.2968 156.333 16.4267 156.878 16.6866L156.453 17.7862C156.06 17.6702 155.697 17.6146 155.362 17.6146C155.066 17.6146 154.826 17.6795 154.63 17.8141C154.444 17.944 154.348 18.1296 154.348 18.3662C154.348 18.6307 154.444 18.8534 154.63 19.0437C154.817 19.2339 155.099 19.3221 155.458 19.3221C155.754 19.3221 156.324 19.2386 157.175 19.0669L157.424 20.3058L157.433 20.2965L157.428 20.2918Z" fill="white"/>
<path d="M159.954 29.3259C159.777 29.3259 159.629 29.1867 159.504 28.913C159.38 28.6392 159.308 28.3005 159.308 27.9154C159.308 27.5302 159.375 27.1915 159.504 26.9178C159.634 26.644 159.787 26.5048 159.954 26.5048H164.785V29.3259H159.954Z" fill="white"/>
<path d="M164.785 29.3259C164.608 29.3259 164.46 29.1867 164.336 28.913C164.211 28.6392 164.14 28.3005 164.14 27.9154C164.14 27.5302 164.206 27.1915 164.336 26.9178C164.465 26.644 164.618 26.5048 164.785 26.5048H169.616V29.3259H164.785Z" fill="white"/>
<path d="M173.257 33.8174L171.64 32.5043L170.391 33.8731L168.688 32.5043L170.1 30.9221L171.716 32.277L172.965 30.8664L174.668 32.277L173.257 33.8267V33.8174ZM169.616 29.3259C169.439 29.3259 169.291 29.1867 169.167 28.913C169.042 28.6392 168.971 28.3005 168.971 27.9154C168.971 27.5302 169.038 27.1915 169.167 26.9178C169.296 26.644 169.449 26.5048 169.616 26.5048H169.923C171.013 26.5048 171.735 26.3656 172.089 26.0918C172.443 25.8181 172.625 25.4144 172.625 24.8947V22.1478L175.05 21.9762V24.6395C175.05 25.201 175.007 25.7114 174.931 26.1661C175.663 26.3888 176.538 26.4955 177.562 26.4955H177.681V29.3166H177.136C175.663 29.3166 174.505 29.0197 173.658 28.4165C172.903 29.0197 171.745 29.3166 170.181 29.3166H169.612L169.621 29.3259H169.616Z" fill="white"/>
<path d="M177.681 29.3259C177.504 29.3259 177.356 29.1867 177.232 28.913C177.107 28.6392 177.035 28.3005 177.035 27.9154C177.035 27.5302 177.102 27.1915 177.232 26.9178C177.361 26.644 177.514 26.5048 177.681 26.5048H182.512V29.3259H177.681Z" fill="white"/>
<path d="M182.512 29.3259C182.335 29.3259 182.187 29.1867 182.063 28.913C181.938 28.6392 181.867 28.3005 181.867 27.9154C181.867 27.5302 181.934 27.1915 182.063 26.9178C182.192 26.644 182.345 26.5048 182.512 26.5048H187.343V29.3259H182.512Z" fill="white"/>
<path d="M187.343 29.3259C187.166 29.3259 187.018 29.1867 186.894 28.913C186.769 28.6392 186.698 28.3005 186.698 27.9154C186.698 27.5302 186.765 27.1915 186.894 26.9178C187.023 26.644 187.176 26.5048 187.343 26.5048H192.175V29.3259H187.343Z" fill="white"/>
<path d="M202.138 29.9523C200.278 29.9523 198.489 29.4976 196.762 28.5835C195.628 29.08 194.27 29.3259 192.677 29.3259H192.175C191.998 29.3259 191.849 29.1867 191.725 28.913C191.601 28.6392 191.529 28.3005 191.529 27.9154C191.529 27.5302 191.596 27.1915 191.725 26.9178C191.854 26.644 192.007 26.5048 192.175 26.5048H192.438C193.031 26.5048 193.648 26.4723 194.275 26.4074C193.935 25.832 193.772 25.2288 193.772 24.5838C193.772 22.8346 194.667 21.0621 196.461 19.271C198.747 19.6979 200.67 20.5934 202.229 21.9298C203.784 23.2661 204.559 24.8112 204.559 26.5512C204.559 28.8294 203.75 29.957 202.134 29.957L202.138 29.9523ZM195.791 24.0966C195.791 24.788 196.197 25.3819 197.006 25.8784C197.585 25.5814 198.025 25.252 198.316 24.8947C198.613 24.5421 198.757 24.2173 198.757 23.9389C198.757 22.983 198.068 22.3381 196.7 21.9994C196.097 22.7186 195.791 23.4192 195.791 24.0966ZM201.856 27.5302C202.229 27.5302 202.425 27.3586 202.425 27.0198C202.425 25.832 201.823 24.7184 200.603 23.6883V23.7069C200.603 24.8437 200.11 25.9109 199.13 26.8992C200.302 27.3214 201.215 27.5256 201.861 27.5256L201.851 27.5349L201.856 27.5302Z" fill="white"/>
<path d="M142.074 52.8507H141.017C139.496 52.8507 138.482 52.3403 137.989 51.3242C137.319 51.3984 136.698 51.4402 136.128 51.4402C134.741 51.4402 133.646 51.1942 132.847 50.6978C132.048 50.2013 131.646 49.4496 131.646 48.4474C131.646 47.2827 132.029 46.2526 132.794 45.3618C133.56 44.4709 134.555 43.7934 135.789 43.348C137.013 42.9026 138.367 42.6798 139.831 42.6798V48.4242C139.831 49.0506 139.974 49.4821 140.266 49.6955C140.553 49.9182 141.074 50.025 141.83 50.025H142.079V52.8554L142.074 52.8507ZM136.621 48.9763C137.023 48.9763 137.334 48.9578 137.549 48.9346V45.371C136.434 45.5102 135.526 45.835 134.827 46.3269C134.129 46.8234 133.789 47.3152 133.789 47.7978C133.789 48.1365 134.038 48.4149 134.521 48.6376C135.004 48.8603 135.703 48.967 136.621 48.967V48.9763ZM138.381 41.5245L136.765 40.2114L135.516 41.5802L133.813 40.2114L135.224 38.6291L136.841 39.984L138.089 38.5734L139.792 39.984L138.381 41.5338V41.5245Z" fill="white"/>
<path d="M142.074 52.8507C141.897 52.8507 141.749 52.7115 141.624 52.4378C141.5 52.164 141.428 51.8253 141.428 51.4402C141.428 51.055 141.495 50.7163 141.624 50.4426C141.754 50.1688 141.907 50.0296 142.074 50.0296H146.905V52.8507H142.074Z" fill="white"/>
<path d="M153.736 52.8693C152.119 52.8693 150.722 52.5398 149.55 51.8856C148.885 52.5306 148.063 52.8414 147.068 52.8414H146.905C146.728 52.8414 146.58 52.7022 146.456 52.4285C146.331 52.1547 146.259 51.816 146.259 51.4309C146.259 51.0458 146.326 50.707 146.456 50.4333C146.585 50.1595 146.738 50.0203 146.905 50.0203H147.245C147.757 50.0203 148.173 49.8394 148.488 49.4682C148.804 49.097 149.168 48.5123 149.593 47.6864C149.617 47.6354 149.646 47.5936 149.651 47.5704C149.656 47.5472 149.684 47.5147 149.703 47.473C149.723 47.4312 149.737 47.3987 149.756 47.357C150.282 46.3733 150.847 45.6309 151.44 45.1205C152.033 44.6101 152.86 44.3549 153.898 44.3549C155.046 44.3549 155.974 44.791 156.687 45.668C157.4 46.545 157.759 47.6214 157.759 48.9021C157.759 50.1827 157.529 51.403 157.07 52.4331C156.218 52.7208 155.113 52.86 153.736 52.86V52.8693ZM154.205 50.2802C154.621 50.2802 155.032 50.2616 155.439 50.2245C155.491 49.8718 155.515 49.547 155.515 49.2408C155.515 48.5634 155.372 48.0019 155.075 47.5658C154.779 47.1296 154.362 46.9069 153.827 46.9069C153.324 46.9069 152.908 47.0739 152.55 47.408C152.2 47.7374 151.76 48.4242 151.215 49.4542C151.119 49.6352 151.071 49.7512 151.052 49.7837C151.928 50.1131 152.985 50.2709 154.209 50.2709V50.2802H154.205Z" fill="white"/>
<path d="M161.92 57.0035C161.222 57.0035 160.48 56.9061 159.701 56.7066L159.949 54.3726C160.461 54.4654 161.006 54.5118 161.566 54.5118C162.748 54.5118 163.695 54.3077 164.398 53.8854C165.101 53.4632 165.546 52.9946 165.752 52.4749C165.173 52.5398 164.465 52.5723 163.652 52.5723C162.197 52.5723 161.174 52.2429 160.59 51.584C160.007 50.9251 159.715 50.0157 159.715 48.8696C159.715 47.5101 160.098 46.3594 160.882 45.4221C161.657 44.4802 162.633 44.0115 163.8 44.0115C165.077 44.0115 166.129 44.5498 166.966 45.6216C167.794 46.6934 168.234 48.1643 168.268 50.0342H169.439V52.8554H167.942C167.158 55.6301 165.158 57.0128 161.934 57.0128L161.925 57.0035H161.92ZM164.503 50.0203H165.957C165.914 49.1526 165.694 48.3638 165.278 47.6261C164.871 46.893 164.317 46.5264 163.628 46.5264C163.058 46.5264 162.633 46.7259 162.336 47.111C162.04 47.5008 161.896 47.9462 161.896 48.4474C161.896 48.9485 162.092 49.3475 162.489 49.612C162.886 49.8765 163.561 50.0157 164.498 50.0157H164.508L164.503 50.0203Z" fill="white"/>
<path d="M169.416 52.8507C169.239 52.8507 169.09 52.7115 168.966 52.4378C168.842 52.164 168.77 51.8253 168.77 51.4402C168.77 51.055 168.837 50.7163 168.966 50.4426C169.095 50.1688 169.248 50.0296 169.416 50.0296H169.798C172.08 50.0296 173.831 49.8254 175.055 49.4032C174.5 48.5123 173.854 47.7282 173.118 47.0414C172.381 46.3547 171.367 45.7469 170.09 45.2086V42.0163C172.702 40.2253 175.643 38.9632 178.901 38.2301V40.8795C176.452 41.4549 174.28 42.3226 172.41 43.4872C173.075 43.8259 173.658 44.1971 174.189 44.5915C174.72 44.9859 175.194 45.4314 175.629 45.9278C176.064 46.415 176.371 46.7955 176.571 47.0414C176.768 47.2966 177.04 47.6864 177.389 48.2061C177.442 48.2989 177.552 48.4613 177.705 48.6933C177.858 48.9346 177.959 49.083 178.021 49.1573C178.073 49.2315 178.164 49.3475 178.303 49.5053C178.442 49.663 178.556 49.7605 178.662 49.8115C178.762 49.8626 178.891 49.909 179.044 49.96C179.197 50.011 179.37 50.0342 179.561 50.0342H179.824V52.8554H179.499C178.25 52.8554 177.27 52.4656 176.562 51.7C174.892 52.4656 172.668 52.8554 169.894 52.8554H169.416V52.8507Z" fill="white"/>
<path d="M179.81 52.8507C179.633 52.8507 179.484 52.7115 179.36 52.4378C179.236 52.164 179.164 51.8253 179.164 51.4402C179.164 51.055 179.231 50.7163 179.36 50.4426C179.489 50.1688 179.642 50.0296 179.81 50.0296H180.575C183.732 50.0296 186.234 49.8579 188.094 49.5192C186.062 47.64 184.674 46.6981 183.952 46.6981C183.646 46.6981 183.383 46.763 183.187 46.9022C182.991 47.0414 182.771 47.3059 182.541 47.6957L180.738 47.0275C181.13 46.0206 181.599 45.2968 182.134 44.8421C182.67 44.3874 183.316 44.1646 184.072 44.1646C185.091 44.1646 186.43 44.856 188.071 46.2434C188.353 46.4846 189.075 47.111 190.233 48.1411C191.127 48.9438 191.806 49.4542 192.285 49.677C192.763 49.909 193.399 50.025 194.188 50.025H194.495V52.8461H194.069C193.303 52.8461 192.639 52.7486 192.079 52.5584C191.519 52.3682 190.941 52.0387 190.328 51.5701C187.104 52.4192 183.694 52.8414 180.078 52.8414H179.795L179.814 52.86L179.81 52.8507Z" fill="white"/>
<path d="M194.499 52.8507C194.322 52.8507 194.174 52.7115 194.05 52.4378C193.925 52.164 193.854 51.8253 193.854 51.4402C193.854 51.055 193.921 50.7163 194.05 50.4426C194.179 50.1688 194.332 50.0296 194.499 50.0296H194.662C195.451 50.0296 196.183 49.9554 196.848 49.8162C196.901 48.9902 196.924 47.937 196.924 46.6378C196.924 44.7632 196.905 42.1741 196.867 38.8565L199.455 38.643C199.474 42.0859 199.474 44.6101 199.474 46.2341C199.474 47.7282 199.441 48.8835 199.378 49.7141C199.321 50.5493 199.182 51.2917 198.962 51.9413C198.493 52.1872 197.848 52.4053 197.025 52.5862C196.197 52.7672 195.399 52.86 194.619 52.86H194.499L194.509 52.8507H194.499Z" fill="white"/>
<path d="M204.42 52.8507H201.851V38.8472L204.42 38.6338V52.8507Z" fill="white"/>
<path d="M142.428 76.3802H141.371C139.85 76.3802 138.836 75.8698 138.343 74.8536C137.673 74.9371 137.052 74.9696 136.482 74.9696C135.095 74.9696 134 74.7237 133.201 74.2272C132.402 73.7307 132 72.979 132 71.9768C132 70.8122 132.383 69.7821 133.148 68.8912C133.914 68.0003 134.909 67.3229 136.143 66.8774C137.377 66.432 138.721 66.2093 140.185 66.2093V71.9536C140.185 72.58 140.328 73.0115 140.62 73.225C140.907 73.4477 141.428 73.5544 142.184 73.5544H142.433V76.3848L142.428 76.3802ZM136.98 72.5011C137.382 72.5011 137.692 72.4826 137.908 72.4594V68.8958C136.793 69.035 135.884 69.3598 135.186 69.8517C134.488 70.3482 134.148 70.84 134.148 71.3226C134.148 71.6613 134.397 71.9397 134.88 72.1624C135.363 72.3851 136.061 72.4918 136.98 72.4918V72.5011ZM138.74 65.0493L137.123 63.7362L135.875 65.105L134.172 63.7362L135.583 62.1539L137.2 63.5088L138.448 62.0982L140.151 63.5088L138.74 65.0586V65.0493Z" fill="white"/>
<path d="M142.428 76.3802C142.251 76.3802 142.103 76.241 141.978 75.9672C141.854 75.6934 141.782 75.3547 141.782 74.9696C141.782 74.5845 141.849 74.2458 141.978 73.972C142.107 73.6982 142.261 73.559 142.428 73.559H147.259V76.3802H142.428Z" fill="white"/>
<path d="M150.904 80.867L149.287 79.5539L148.039 80.9227L146.336 79.5539L147.747 77.9717L149.364 79.3266L150.612 77.916L152.315 79.3266L150.904 80.8763V80.867ZM147.264 76.3802C147.087 76.3802 146.939 76.241 146.814 75.9672C146.69 75.6934 146.618 75.3547 146.618 74.9696C146.618 74.5845 146.685 74.2458 146.814 73.972C146.943 73.6982 147.096 73.559 147.264 73.559H147.57C148.661 73.559 149.383 73.4198 149.737 73.1461C150.091 72.8723 150.273 72.4686 150.273 71.949V69.2021L152.698 69.0304V71.6938C152.698 72.2552 152.655 72.7656 152.578 73.2203C153.31 73.443 154.185 73.5498 155.209 73.5498H155.329V76.3709H154.783C153.31 76.3709 152.152 76.0739 151.306 75.4707C150.55 76.0739 149.392 76.3709 147.828 76.3709H147.259L147.269 76.3802H147.264Z" fill="white"/>
<path d="M155.329 76.3802C155.152 76.3802 155.003 76.241 154.879 75.9672C154.755 75.6934 154.683 75.3547 154.683 74.9696C154.683 74.5845 154.75 74.2458 154.879 73.972C155.008 73.6982 155.161 73.559 155.329 73.559H160.16V76.3802H155.329Z" fill="white"/>
<path d="M172.74 76.3802C171.592 76.3802 170.726 76.1342 170.138 75.6378C169.21 76.1482 168.114 76.4034 166.861 76.4034C165.23 76.4034 163.876 76.0878 162.786 75.4614C162.116 76.0739 161.298 76.3848 160.327 76.3848H160.165C159.988 76.3848 159.839 76.2456 159.715 75.9718C159.591 75.6981 159.519 75.3594 159.519 74.9742C159.519 74.5891 159.586 74.2504 159.715 73.9766C159.844 73.7029 159.997 73.5637 160.165 73.5637H160.504C160.786 73.5637 161.04 73.5126 161.25 73.4152C161.461 73.3178 161.676 73.1368 161.882 72.877C162.087 72.6125 162.241 72.3805 162.351 72.1856C162.461 71.9814 162.633 71.6566 162.867 71.2019C162.877 71.1787 162.891 71.1509 162.91 71.1277C162.929 71.1045 162.944 71.0627 162.968 71.021C162.992 70.9792 163.011 70.9374 163.025 70.905C163.551 69.9166 164.116 69.1742 164.709 68.6592C165.302 68.1442 166.12 67.8982 167.143 67.8982C169.004 67.8982 170.248 69.1696 170.884 71.717C171.061 72.4779 171.276 72.9698 171.52 73.211C171.764 73.4523 172.228 73.5637 172.883 73.5637H173.324V76.3848H172.735L172.726 76.3662L172.74 76.3802ZM167.143 73.8142C167.842 73.8142 168.464 73.7168 169.004 73.5173C168.722 72.3805 168.449 71.587 168.186 71.123C167.923 70.6683 167.531 70.4363 167.005 70.4363C166.522 70.4363 166.101 70.6034 165.761 70.9328C165.421 71.2622 164.977 71.9397 164.436 72.9698L164.25 73.3224C165.115 73.6426 166.077 73.8096 167.143 73.8096V73.8142Z" fill="white"/>
<path d="M173.333 76.3802C173.156 76.3802 173.008 76.241 172.883 75.9672C172.759 75.6934 172.687 75.3547 172.687 74.9696C172.687 74.5845 172.754 74.2458 172.883 73.972C173.013 73.6982 173.166 73.559 173.333 73.559H173.716C176.997 73.559 179.365 73.3595 180.809 72.9744C180.852 72.6218 180.867 72.297 180.867 71.9907C180.154 72.2134 179.346 72.3202 178.442 72.3202C176.002 72.3202 174.782 71.2576 174.782 69.1278C174.782 67.8333 175.165 66.7336 175.93 65.8288C176.696 64.9194 177.638 64.4693 178.762 64.4693C180.006 64.4693 181.015 65.0446 181.814 66.2C182.603 67.3554 183.005 68.9654 183.005 71.0349C183.005 72.7749 182.828 74.1205 182.46 75.0717C180.8 75.9486 177.925 76.3848 173.826 76.3848H173.324L173.333 76.3802ZM180.312 63.597L178.695 62.2838L177.447 63.6526L175.744 62.2838L177.155 60.7016L178.772 62.0565L180.02 60.6459L181.723 62.0565L180.312 63.6062V63.597ZM179.398 70.1811C179.881 70.1811 180.341 70.1301 180.776 70.0419C180.642 69.0165 180.393 68.2277 180.035 67.657C179.676 67.0862 179.217 66.8078 178.647 66.8078C178.078 66.8078 177.652 67.0074 177.361 67.3925C177.074 67.7869 176.925 68.2277 176.925 68.7056C176.925 69.6893 177.753 70.1765 179.394 70.1765V70.1858L179.398 70.1811Z" fill="white"/>
<path d="M184.861 80.4541C184.239 80.4541 183.612 80.3891 182.981 80.2546L183.201 77.9206C183.541 77.9717 183.89 77.9949 184.258 77.9949C185.545 77.9949 186.478 77.6051 187.066 76.8395C187.659 76.0739 187.961 75.132 187.961 74.0184C187.961 73.0765 187.688 71.652 187.133 69.745L189.539 69.035C189.563 69.165 189.616 69.3877 189.702 69.7032C189.788 70.0187 189.836 70.2414 189.874 70.3621C189.912 70.4827 189.96 70.6683 190.027 70.9003C190.094 71.1323 190.156 71.3226 190.199 71.4618C190.252 71.601 190.309 71.7494 190.376 71.9258C190.453 72.0974 190.529 72.2552 190.606 72.3944C190.998 73.16 191.773 73.5498 192.926 73.5498H193.428V76.3709H192.696C191.581 76.3709 190.706 76.1064 190.094 75.5867C189.864 77.0622 189.309 78.2454 188.424 79.127C187.54 80.0086 186.349 80.4494 184.861 80.4494V80.4587V80.4541Z" fill="white"/>
<path d="M193.428 76.3802C193.251 76.3802 193.103 76.241 192.978 75.9672C192.854 75.6934 192.782 75.3547 192.782 74.9696C192.782 74.5845 192.849 74.2458 192.978 73.972C193.107 73.6982 193.26 73.559 193.428 73.559H193.59C194.38 73.559 195.112 73.4848 195.776 73.3456C195.829 72.5197 195.853 71.4664 195.853 70.1672C195.853 68.2926 195.834 65.7035 195.796 62.3859L198.383 62.1725C198.403 65.6154 198.403 68.1395 198.403 69.7635C198.403 71.2576 198.369 72.413 198.307 73.2435C198.245 74.0741 198.111 74.8118 197.891 75.4707C197.422 75.7166 196.776 75.9347 195.953 76.1157C195.131 76.2966 194.327 76.3894 193.547 76.3894H193.428L193.437 76.3802H193.428Z" fill="white"/>
<path d="M204.42 76.3802H201.851V62.3859L204.42 62.1725V76.3894V76.3802Z" fill="white"/>
</g>
<defs>
<clipPath id="clip0_1_2">
<rect width="285" height="81" fill="white"/>
</clipPath>
</defs>
</svg>
