<svg width="269" height="107" viewBox="0 0 269 107" fill="none" xmlns="http://www.w3.org/2000/svg">
<g clip-path="url(#clip0_1_68)">
<path d="M92.1343 72.4284C91.2823 72.4284 90.8516 71.9186 90.4114 71.3381C89.9712 70.7575 89.7535 69.9787 89.7535 69.0064C89.7535 68.1285 89.9759 67.463 90.4256 67.0051C90.8421 66.5756 91.3865 66.349 92.0491 66.3207C93.5685 66.3207 95.4003 66.6086 95.4003 66.6086V64.5366C95.4003 64.5366 93.5685 64.2439 92.0491 64.2439C91.377 64.2581 90.7569 64.3666 90.1937 64.5743C89.5925 64.7914 89.0766 65.1077 88.6411 65.5183C88.2104 65.929 87.8743 66.4293 87.6329 67.0193C87.3963 67.6093 87.2779 68.2701 87.2779 69.0111C87.2779 69.3132 87.3158 69.6153 87.3915 69.9221C87.4673 70.2289 87.5714 70.5262 87.6945 70.8047C87.8223 71.0832 87.9548 71.3428 88.1015 71.5741C88.2483 71.8054 88.6269 72.2066 88.7689 72.3434V72.4284H77.3521C77.1439 72.4284 76.9309 72.3906 76.7131 72.3151C76.4954 72.2396 76.3061 72.1216 76.1357 71.9564C75.9653 71.7912 75.8327 71.5835 75.7286 71.3286C75.6245 71.0738 75.5724 70.7717 75.5724 70.413V59.5711L73.0969 60.5387V70.8189C73.0969 71.1351 73.0495 71.3947 72.9501 71.5977C72.8507 71.8054 72.7324 71.9658 72.5809 72.0886C72.4342 72.2113 72.278 72.2962 72.1076 72.3434C71.9372 72.3906 71.7857 72.4142 71.6437 72.4142H69.6841V64.1778L67.2086 65.1502V72.4142H64.8751V74.5288H71.3881C71.6106 74.5288 71.8709 74.5146 72.1644 74.4863C72.4579 74.458 72.7608 74.4014 73.0779 74.3117C73.3903 74.222 73.7075 74.0946 74.0199 73.9341C74.3323 73.7689 74.6163 73.5423 74.8671 73.2544C75.1464 73.6084 75.5393 73.9105 76.041 74.1559C76.5427 74.4014 77.0634 74.5241 77.5935 74.5241H78.4739C78.5071 74.5241 78.526 74.5241 78.5544 74.5194C78.5828 74.5194 78.6065 74.5241 78.6349 74.5241H96.6073V72.4095H92.1107L92.1343 72.4284Z" fill="white"/>
<path d="M110.329 70.4177V59.5758L107.854 60.5434V70.8236C107.854 71.1398 107.806 71.3994 107.707 71.6024C107.608 71.8101 107.489 71.9706 107.338 72.0933C107.191 72.216 107.035 72.301 106.864 72.3482C106.694 72.3954 106.543 72.419 106.401 72.419H104.441V64.1826L101.965 65.1549V72.419H99.6319V74.5335H106.145C106.367 74.5335 106.628 74.5194 106.921 74.491C107.215 74.4627 107.518 74.4061 107.835 74.3164C108.147 74.2267 108.474 74.1134 108.777 73.9388C109.605 73.4526 110.32 72.5464 110.32 70.4082L110.329 70.4177Z" fill="white"/>
<path d="M115.73 59.5758L113.34 60.5151V74.543H115.73V59.5758Z" fill="white"/>
<path d="M130.29 65.5561C129.835 65.1266 129.291 64.8009 128.652 64.579C128.018 64.3619 127.308 64.2486 126.522 64.2486C125.736 64.2486 125.031 64.3572 124.392 64.579C123.758 64.7962 123.209 65.1218 122.759 65.5561C122.305 65.9856 121.95 66.5237 121.699 67.1656C121.448 67.8075 121.32 68.5533 121.32 69.4029C121.32 70.2525 121.448 70.9982 121.699 71.6402C121.95 72.2821 122.305 72.8202 122.759 73.2497C123.213 73.6792 123.758 74.0049 124.392 74.2267C125.026 74.4438 125.736 74.5571 126.522 74.5571C127.308 74.5571 128.013 74.4486 128.652 74.2267C129.286 74.0096 129.835 73.6839 130.29 73.2497C130.744 72.8202 131.099 72.2821 131.35 71.6402C131.601 70.9982 131.729 70.2525 131.729 69.4029C131.729 68.5533 131.601 67.8075 131.35 67.1656C131.099 66.5237 130.744 65.9856 130.29 65.5561ZM128.581 71.5835C128.122 72.1594 127.436 72.4473 126.527 72.4473C125.618 72.4473 124.932 72.1594 124.472 71.5835C124.013 71.0077 123.781 70.2855 123.781 69.4076C123.781 68.5297 124.013 67.8075 124.472 67.2317C124.936 66.6558 125.618 66.3679 126.527 66.3679C127.436 66.3679 128.122 66.6558 128.581 67.2317C129.045 67.8075 129.272 68.5297 129.272 69.4076C129.272 70.2855 129.04 71.0077 128.581 71.5835Z" fill="white"/>
<path d="M136.287 78.673C136.841 77.847 137.115 76.6575 137.115 75.1094V64.225L134.725 65.1643V75.1094C134.725 75.7135 134.692 76.1997 134.621 76.5678C134.55 76.936 134.455 77.2192 134.327 77.4174C134.199 77.6157 134.048 77.7478 133.863 77.8186C133.684 77.8894 133.471 77.9225 133.234 77.9225H131.662V79.9143H133.485C134.801 79.9143 135.733 79.499 136.282 78.673H136.287Z" fill="white"/>
<path d="M142.506 59.5758L140.116 60.5434V74.3306H142.506V59.5758Z" fill="white"/>
<path d="M147.126 78.673C147.68 77.847 147.955 76.6575 147.955 75.1094V64.2486L145.564 65.1879V75.1046C145.564 75.7088 145.531 76.195 145.46 76.5631C145.389 76.9313 145.294 77.2145 145.167 77.4127C145.039 77.611 144.887 77.7431 144.703 77.8139C144.523 77.8847 144.31 77.9178 144.073 77.9178H142.502V79.9096H144.324C145.64 79.9096 146.572 79.4942 147.121 78.6682L147.126 78.673Z" fill="white"/>
<path d="M147.95 59.5758V62.4409L145.559 61.5016V59.5758H147.95Z" fill="white"/>
<path d="M129.992 59.5758V62.4409L127.601 61.5016V59.5758H129.992Z" fill="white"/>
<path d="M125.452 59.5758V62.4409L123.062 61.5016V59.5758H125.452Z" fill="white"/>
<path d="M103.343 79.0742C103.092 79.0742 102.893 78.9939 102.756 78.8382C102.614 78.6824 102.548 78.47 102.548 78.2104C102.548 77.9508 102.609 77.7478 102.737 77.6062C102.865 77.4646 103.026 77.3891 103.22 77.3891C103.793 77.3891 104.479 77.4977 104.479 77.4977V76.7189C104.479 76.7189 103.793 76.6103 103.22 76.6103C102.69 76.6103 102.278 76.7425 101.984 77.0021C101.691 77.2617 101.544 77.6298 101.544 78.1113C101.544 78.2623 101.577 78.4181 101.639 78.5833C101.7 78.7485 101.781 78.8854 101.88 78.9939V79.0742H101.166V79.9143H104.895V79.0742H103.343Z" fill="white"/>
<path d="M160.569 67.7934C160.408 67.0334 160.133 66.3915 159.75 65.8629C159.367 65.3342 158.851 64.9378 158.207 64.664C157.563 64.3902 156.768 64.2534 155.817 64.2534C154.865 64.2534 154.075 64.3997 153.445 64.697C152.816 64.9897 152.319 65.3814 151.945 65.8676C151.576 66.3538 151.315 66.9154 151.168 67.5526C151.022 68.1898 150.951 69.0772 150.951 69.7616C150.951 70.4885 151.074 71.1446 151.315 71.7298C151.561 72.3198 151.907 72.8249 152.352 73.2497C152.797 73.6745 153.327 74.0002 153.933 74.2267C154.539 74.4533 155.215 74.5666 155.959 74.5666H156.617C157.199 74.3589 158.235 73.4762 158.235 73.4762C158.051 75.8929 157.644 77.913 154.221 77.913H152.238V79.9238H154.539C155.712 79.9238 156.697 79.7633 157.497 79.4423C158.292 79.1214 158.941 78.6022 159.438 77.8942C159.935 77.1814 160.285 75.7985 160.498 74.6798C160.706 73.5659 160.81 72.216 160.81 70.6254C160.81 69.653 160.73 68.5627 160.569 67.8028V67.7934ZM158.316 72.4426H155.968C155.102 72.4426 154.463 72.2302 154.061 71.8054C153.653 71.3806 153.455 70.6962 153.455 69.7522C153.455 69.3274 153.493 68.6949 153.568 68.3031C153.644 67.9114 153.777 67.5762 153.966 67.2883C154.155 67.0004 154.406 66.7738 154.718 66.5992C155.031 66.4293 155.428 66.3443 155.902 66.3443C156.839 66.3443 157.487 66.6794 157.842 67.3497C158.197 68.0199 158.377 69.2235 158.377 70.5121C158.377 71.2248 158.358 71.8667 158.316 72.4426Z" fill="white"/>
<path d="M62.4847 67.0806C62.2244 66.4529 61.8647 65.9242 61.3961 65.4994C60.9275 65.0746 60.3737 64.7584 59.7394 64.5554C59.1051 64.3525 58.4093 64.2486 57.652 64.2486C56.8947 64.2486 56.1989 64.3572 55.5646 64.579C54.9303 64.7962 54.3765 65.1218 53.9079 65.5561C53.4393 65.9856 53.0749 66.5142 52.8193 67.1373C52.5589 67.7603 52.4311 68.4306 52.4311 69.2518C52.4311 69.7805 52.6299 70.7717 52.9565 71.3758C53.1364 71.6638 54.386 72.3529 54.7457 72.4756C54.4286 72.4331 53.7943 72.5134 53.7943 72.5134C53.6429 72.537 53.4961 72.5653 53.3541 72.5983C53.3305 72.603 53.3068 72.6125 53.2831 72.6172C52.8855 72.7116 52.5258 72.839 52.2134 72.9995C51.7685 73.2261 51.404 73.514 51.1247 73.8727C50.5567 74.5854 50.2775 75.4964 50.2775 76.6009V79.8954H52.6678V76.582C52.6678 76.3224 52.7009 76.0675 52.7625 75.8221C52.824 75.5766 52.9423 75.3548 53.108 75.166C53.2737 74.9725 53.5009 74.8262 53.7896 74.7129C54.0736 74.6043 54.4428 74.5477 54.8877 74.5477H57.6567C58.4377 74.5477 59.1525 74.4438 59.7962 74.2409C60.4399 74.0379 60.989 73.7264 61.4434 73.3063C61.8978 72.891 62.2528 72.367 62.5037 71.7346C62.7545 71.1068 62.8823 70.0967 62.8823 69.2518C62.8823 68.407 62.7545 67.7178 62.4942 67.0854L62.4847 67.0806ZM59.6968 71.6874C59.2282 72.2349 58.5466 72.5086 57.652 72.5086C56.7574 72.5086 56.0758 72.2349 55.6072 71.6874C55.1386 71.1398 54.9067 70.1486 54.9067 69.2424C54.9067 68.3362 55.1386 67.6612 55.5977 67.109C56.0616 66.552 56.7432 66.2782 57.652 66.2782C58.5608 66.2782 59.2471 66.5567 59.7063 67.109C60.1654 67.6612 60.3973 68.3409 60.3973 69.2424C60.3973 70.1439 60.1607 71.1398 59.6968 71.6874Z" fill="white"/>
<path d="M27.0368 87.6976V101.343H24.6701V91.7615C24.4808 92.2666 24.2252 92.8754 23.8039 93.7014L20.9119 99.3654H18.8434L15.9939 93.7014C15.549 92.8613 15.2555 92.2477 15.0662 91.7238V101.348H12.7421V87.7023H15.3407L18.4458 93.7062C19.0375 94.8626 19.6055 96.0662 19.9037 96.9724C20.1971 96.0662 20.7699 94.8437 21.3615 93.7062L24.4855 87.7023H27.0415L27.0368 87.6976Z" fill="white"/>
<path d="M28.9822 92.0353L31.2636 91.804V101.343H28.9822V92.0353Z" fill="white"/>
<path d="M41.6675 94.6266V101.343H39.3861V95.3629C39.3861 93.9941 39.0074 93.5504 37.8856 93.5504C37.1472 93.5504 36.2999 93.8053 35.5 94.2018V101.343H33.2185V92.0353L35.5 91.804V92.7102C36.4088 92.1816 37.5495 91.719 38.7944 91.719C40.5457 91.719 41.6675 92.5592 41.6675 94.6266Z" fill="white"/>
<path d="M43.6129 92.0353L45.8944 91.804V101.343H43.6129V92.0353Z" fill="white"/>
<path d="M47.8445 100.352L48.8149 98.8132C49.9367 99.6156 51.0537 99.8894 52.0051 99.8894C53.1222 99.8894 53.6949 99.5118 53.6949 98.8368C53.6949 98.2893 53.3352 97.8881 51.7495 97.468L51.1153 97.2981C49.1509 96.7694 48.2658 95.9718 48.2658 94.518C48.2658 92.8566 49.7852 91.719 51.9199 91.719C53.1459 91.719 54.3907 91.9928 55.6593 92.7291L54.7741 94.2442C53.5908 93.6354 52.895 93.4418 51.9673 93.4418C51.0395 93.4418 50.5946 93.8194 50.5946 94.367C50.5946 94.872 50.9117 95.1033 52.0714 95.4006L52.7483 95.5706C55.0487 96.1794 56.0001 97.1093 56.0001 98.6244C56.0001 100.328 54.6889 101.617 52.0714 101.617C50.3201 101.617 49.0089 101.173 47.8493 100.352H47.8445Z" fill="white"/>
<path d="M64.3071 100.984C63.7391 101.277 62.9155 101.617 61.7747 101.617C60.1891 101.617 58.8827 100.734 58.8827 98.6244V93.8006H57.0887V92.0117H58.8827V89.9066L61.1641 89.5714V92.0164H64.0799L63.8479 93.8053H61.1641V98.2704C61.1641 99.323 61.5665 99.7666 62.2859 99.7666C62.7498 99.7666 63.1521 99.6392 63.6775 99.4315L64.3118 100.989L64.3071 100.984Z" fill="white"/>
<path d="M72.42 91.9078L72.0413 94.2254C71.6816 94.0979 71.2793 93.9705 70.7539 93.9705C70.0344 93.9705 69.296 94.1829 68.5339 95.2779V101.343H66.2525V92.0117L68.5339 91.7993V93.1256C69.2297 92.1769 70.1622 91.7143 71.1941 91.7143C71.639 91.7143 71.9987 91.7757 72.42 91.9031V91.9078Z" fill="white"/>
<path d="M82.5777 92.0117V92.1391L79.3448 101.551C78.3745 104.392 77.1912 105.53 75.0375 105.53C74.195 105.53 73.5181 105.341 73.0732 105.195L73.6648 103.533C74.0672 103.661 74.4458 103.722 74.8482 103.722C75.7333 103.722 76.4528 103.491 77.1486 101.636L77.2527 101.343H76.6421L73.0921 92.1391V92.0117H75.5014L77.4468 97.5482C77.6787 98.1996 77.8491 98.7471 77.9769 99.2333C78.1236 98.7046 78.294 98.0958 78.4644 97.5482L80.2394 92.0117H82.5824H82.5777Z" fill="white"/>
<path d="M45.9275 87.6976V90.5626L43.5372 89.6186V87.6976H45.9275Z" fill="white"/>
<path d="M31.3204 87.6976V90.5626L28.9301 89.6186V87.6976H31.3204Z" fill="white"/>
<path d="M86.8472 96.8119C86.8472 93.338 89.0766 91.8418 91.5805 91.8418C94.6288 91.8418 96.1908 93.9186 96.1908 96.8733C96.1908 100.347 93.9756 101.659 91.4764 101.659C88.4281 101.659 86.8472 99.7666 86.8472 96.8166V96.8119ZM94.075 96.8686C94.075 94.9711 93.2656 93.6826 91.5711 93.6826C89.8765 93.6826 88.963 94.957 88.963 96.793C88.963 98.6291 89.7724 99.8186 91.4811 99.8186C93.1899 99.8186 94.0797 98.7046 94.0797 96.8733L94.075 96.8686Z" fill="white"/>
<path d="M101.98 91.3934V93.017H104.663L104.432 94.8059H101.98V101.381H99.6982V94.8059H98.1362V93.017H99.6982V91.4358C99.6982 89.2646 100.967 87.707 103.248 87.707C104.157 87.707 104.853 87.8534 105.487 88.1082L104.919 89.8971C104.413 89.6847 103.949 89.6045 103.442 89.6045C102.491 89.6045 101.984 90.2794 101.984 91.3934H101.98Z" fill="white"/>
<path d="M124.96 87.7354V101.381H122.593V91.7993C122.404 92.3043 122.148 92.9132 121.727 93.7392L118.835 99.4032H116.767L113.917 93.7392C113.472 92.899 113.179 92.2854 112.989 91.7615V101.386H110.665V87.7401H113.264L116.369 93.7439C116.961 94.9003 117.529 96.1039 117.827 97.0102C118.12 96.1039 118.693 94.8814 119.285 93.7439L122.409 87.7401H124.965L124.96 87.7354Z" fill="white"/>
<path d="M135.482 97.1706H129.187C129.291 99.1483 130.455 99.8658 131.743 99.8658C132.841 99.8658 133.579 99.5495 134.512 99.0256L135.317 100.498C134.408 101.131 133.139 101.655 131.577 101.655C129.021 101.655 126.91 100.371 126.91 96.8308C126.91 93.9044 128.496 91.7568 131.492 91.7568C134.176 91.7568 135.548 93.5032 135.548 95.7594C135.548 96.1181 135.53 96.6656 135.487 97.1706H135.482ZM129.291 95.5894H133.347V95.5281C133.347 94.013 132.585 93.3994 131.511 93.3994C130.223 93.3994 129.528 94.2395 129.291 95.5894Z" fill="white"/>
<path d="M146.355 87.7118V101.381H144.348L144.201 100.687C143.25 101.296 142.26 101.655 141.266 101.655C138.71 101.655 137.361 99.9082 137.361 96.9394C137.361 93.3805 139.662 91.7568 142.218 91.7568C142.852 91.7568 143.486 91.8606 144.078 92.0306V87.943L146.359 87.7118H146.355ZM141.877 99.8422C142.596 99.8422 143.292 99.6298 144.073 99.1672V93.7109C143.586 93.541 143.079 93.456 142.488 93.456C140.926 93.456 139.742 94.551 139.742 96.911C139.742 98.9548 140.523 99.8374 141.877 99.8374V99.8422Z" fill="white"/>
<path d="M148.305 92.073L150.586 91.8418V101.381H148.305V92.073Z" fill="white"/>
<path d="M160.81 94.8531V101.381H158.827L158.657 100.602C157.558 101.404 156.46 101.655 155.381 101.655C153.672 101.655 152.532 100.645 152.532 99.1058C152.532 96.727 155.301 95.7169 158.529 95.6319V95.2732C158.529 94.0932 158.169 93.5693 157.009 93.5693C156.058 93.5693 155.026 93.9044 153.885 94.6454L152.958 93.1917C154.269 92.2854 155.66 91.7615 157.35 91.7615C159.589 91.7615 160.815 92.6442 160.815 94.8578L160.81 94.8531ZM156.12 99.8846C156.882 99.8846 157.663 99.6722 158.529 99.1672V97.147C156.333 97.2509 154.917 97.822 154.917 98.851C154.917 99.5259 155.339 99.8846 156.12 99.8846Z" fill="white"/>
<path d="M150.643 87.7354V90.6004L148.253 89.6564V87.7354H150.643Z" fill="white"/>
<path d="M243.345 34.4277C241.902 29.382 237.983 25.3747 232.979 23.803C234.475 23.331 236.066 23.0761 237.722 23.0761C238.906 23.0761 240.056 23.2082 241.163 23.4537C241.49 23.5245 241.712 23.128 241.471 22.8967C240.785 22.2359 240.037 21.6412 239.237 21.1126C236.757 19.4747 233.779 18.5213 230.584 18.5213C230.475 18.5213 230.367 18.5213 230.262 18.5213C231.777 17.2799 233.528 16.317 235.441 15.7082C235.758 15.609 235.734 15.1465 235.412 15.0757C234.343 14.8491 233.235 14.7264 232.099 14.7264C230.135 14.7264 228.26 15.0851 226.528 15.7412C227.025 14.1647 227.995 12.8006 229.278 11.8094C229.534 11.6112 229.373 11.1958 229.046 11.2194C226.428 11.3752 224.185 12.8054 222.907 14.6273C222.836 12.8856 222.173 11.2666 221.184 10.0158C221.056 9.85536 220.805 9.85536 220.673 10.0158C219.679 11.2666 219.021 12.8903 218.95 14.6273C217.672 12.8054 215.428 11.3799 212.811 11.2194C212.484 11.2006 212.323 11.6112 212.579 11.8094C213.857 12.8006 214.832 14.1647 215.329 15.7412C213.596 15.0851 211.717 14.7264 209.758 14.7264C208.622 14.7264 207.509 14.8491 206.444 15.0757C206.118 15.1465 206.099 15.609 206.416 15.7082C208.328 16.317 210.08 17.2799 211.594 18.5213C211.485 18.5213 211.376 18.5213 211.272 18.5213C208.073 18.5213 205.1 19.4747 202.62 21.1126C201.82 21.6412 201.072 22.2359 200.386 22.8967C200.144 23.128 200.367 23.5245 200.693 23.4537C201.801 23.2082 202.951 23.0761 204.134 23.0761C205.786 23.0761 207.382 23.331 208.877 23.803C203.874 25.3794 199.955 29.382 198.511 34.4277C198.417 34.7628 198.833 35.0035 199.07 34.7486C201.597 32.0582 205.081 30.2741 208.977 29.9248C205.005 32.4736 201.512 37.5287 201.886 43.8677C201.905 44.2217 202.397 44.3066 202.53 43.9715C204.153 39.8651 207.49 36.6225 211.665 35.1121C209.185 37.8544 207.68 41.4794 207.68 45.463C207.68 47.2897 207.997 49.0408 208.579 50.6692C208.697 50.9996 209.185 50.9524 209.223 50.6031C209.772 45.6377 212.759 41.4086 216.962 39.1146L217.511 38.8078C217.591 38.7606 217.695 38.8078 217.71 38.8975C217.861 39.6669 218.41 41.7862 218.41 48.0449C218.41 55.8423 217.781 70.9274 217.71 71.5505C217.71 71.5835 217.719 71.6213 217.748 71.6402L220.886 73.9294C220.919 73.953 220.966 73.953 220.999 73.9294L224.133 71.6402C224.166 71.6166 224.18 71.5835 224.175 71.541C224.104 70.8944 223.475 55.8187 223.475 48.0402C223.475 41.7862 224.024 39.6622 224.175 38.8928C224.194 38.8031 224.294 38.7559 224.374 38.8031L224.923 39.1099C229.126 41.3991 232.108 45.633 232.662 50.5984C232.7 50.943 233.188 50.9902 233.306 50.6645C233.888 49.0361 234.205 47.285 234.205 45.4583C234.205 41.4794 232.695 37.8497 230.22 35.1074C234.39 36.6178 237.727 39.8604 239.355 43.9668C239.488 44.2972 239.975 44.217 239.999 43.863C240.368 37.5287 236.88 32.4689 232.908 29.9201C236.804 30.2694 240.288 32.0535 242.815 34.7439C243.052 34.9988 243.468 34.7534 243.374 34.423L243.345 34.4277Z" fill="white"/>
<path d="M232.127 93.692C231.933 93.9091 231.739 94.1168 231.526 94.315C231.351 94.485 231.167 94.6454 230.968 94.787C230.807 94.9003 230.636 95.0042 230.452 95.075C230.3 95.1316 230.139 95.1646 229.978 95.1552C229.827 95.141 229.68 95.0844 229.557 94.9947C229.382 94.8673 229.273 94.6832 229.136 94.518C228.937 94.2726 228.691 94.0649 228.412 93.9091C228.099 93.7345 227.749 93.6259 227.394 93.5882C227.058 93.5551 226.717 93.5882 226.395 93.6873C226.386 93.6873 226.381 93.692 226.372 93.6967C226.069 93.7911 225.78 93.9422 225.534 94.1404C225.297 94.3292 225.094 94.5605 224.937 94.8201C224.805 95.0419 224.706 95.2826 224.644 95.5375C224.526 96.0331 224.568 96.5665 224.734 97.0526C225.221 98.5064 226.817 99.0634 228.284 98.9548C230.272 98.8132 232.269 96.4485 232.43 96.255C232.856 95.7452 232.894 94.6218 232.127 93.692Z" fill="white"/>
<path d="M235.909 91.6907C235.89 91.719 235.606 92.0778 235.587 92.1061C235.587 92.1061 238.11 91.1715 238.494 91.5302C240.354 93.2814 241.826 94.6643 243.175 95.8868C243.568 96.2455 243.984 96.5806 244.42 96.8827C244.77 97.1234 245.139 97.3453 245.532 97.5246C245.849 97.671 246.181 97.789 246.526 97.8692C246.82 97.9353 247.118 97.9683 247.421 97.9636C247.695 97.9636 247.965 97.9258 248.235 97.8692C248.505 97.8126 248.741 97.7323 248.983 97.6332C249.224 97.5341 249.456 97.4302 249.688 97.317C249.925 97.199 250.152 97.0668 250.398 96.9771C250.644 96.8874 250.881 96.8355 251.132 96.8166C251.293 96.8025 251.454 96.8072 251.615 96.8214C252.083 96.8686 252.537 97.0338 252.926 97.3075C253.323 97.5907 253.65 97.9872 253.849 98.4356C254.038 98.8604 254.109 99.3324 254.066 99.795C254.019 100.276 253.834 100.739 253.555 101.135C253.352 101.419 253.106 101.669 252.831 101.886C252.528 102.122 252.197 102.32 251.851 102.485C251.473 102.665 251.07 102.806 250.663 102.915C250.223 103.033 249.768 103.113 249.314 103.165C248.827 103.217 248.339 103.231 247.852 103.217C247.629 103.208 247.411 103.193 247.194 103.174C244.022 102.863 240.922 100.177 239.317 98.6669C212.664 73.6084 196.708 65.5136 173.675 67.3214C173.221 67.3591 173.079 66.7314 173.5 66.5662C200.793 55.8612 226.409 80.0229 235.777 88.9437C236.16 88.415 236.794 87.6032 237.121 87.2162C237.282 87.0226 239.279 84.6579 241.267 84.5163C242.735 84.4125 244.33 84.9694 244.817 86.4185C244.983 86.9046 245.026 87.438 244.907 87.9336C244.846 88.1838 244.746 88.4292 244.614 88.651C244.458 88.9106 244.254 89.1419 244.018 89.3307C243.767 89.529 243.483 89.68 243.18 89.7744C243.17 89.7744 243.166 89.7791 243.156 89.7838C242.834 89.883 242.493 89.916 242.157 89.883C241.802 89.8499 241.452 89.7414 241.14 89.562C240.865 89.4062 240.619 89.1986 240.415 88.9531C240.278 88.7879 240.169 88.6038 239.994 88.4764C239.871 88.3867 239.724 88.3301 239.573 88.3159C239.412 88.3018 239.251 88.3395 239.1 88.3962C238.915 88.467 238.745 88.5708 238.584 88.6841C237.978 89.1089 236.884 90.473 236.624 90.8034C236.402 91.0913 236.141 91.4122 235.909 91.7049" fill="white"/>
<path d="M209.715 93.692C209.909 93.9091 210.103 94.1168 210.316 94.315C210.491 94.485 210.676 94.6454 210.875 94.787C211.036 94.9003 211.206 95.0042 211.391 95.075C211.542 95.1316 211.703 95.1646 211.864 95.1552C212.015 95.141 212.162 95.0844 212.285 94.9947C212.46 94.8673 212.569 94.6832 212.706 94.518C212.905 94.2726 213.151 94.0649 213.431 93.9091C213.743 93.7345 214.093 93.6259 214.448 93.5882C214.784 93.5551 215.125 93.5882 215.447 93.6873C215.457 93.6873 215.461 93.692 215.471 93.6967C215.774 93.7911 216.062 93.9422 216.309 94.1404C216.545 94.3292 216.749 94.5605 216.905 94.8201C217.037 95.0419 217.137 95.2826 217.198 95.5375C217.317 96.0331 217.274 96.5665 217.108 97.0526C216.621 98.5064 215.026 99.0634 213.558 98.9548C211.57 98.8132 209.573 96.4485 209.412 96.255C208.986 95.7452 208.948 94.6218 209.715 93.692Z" fill="white"/>
<path d="M205.933 91.6907C205.952 91.719 206.236 92.0778 206.255 92.1061C206.255 92.1061 203.732 91.1715 203.349 91.5302C201.489 93.2814 200.016 94.6643 198.667 95.8868C198.275 96.2455 197.858 96.5806 197.423 96.8827C197.072 97.1234 196.703 97.3453 196.31 97.5246C195.993 97.671 195.662 97.789 195.316 97.8692C195.023 97.9353 194.725 97.9683 194.422 97.9636C194.147 97.9636 193.877 97.9258 193.608 97.8692C193.338 97.8126 193.101 97.7323 192.86 97.6332C192.618 97.5341 192.386 97.4302 192.154 97.317C191.918 97.199 191.691 97.0668 191.444 96.9771C191.208 96.8874 190.962 96.8355 190.711 96.8166C190.55 96.8025 190.389 96.8072 190.228 96.8214C189.759 96.8686 189.305 97.0338 188.917 97.3075C188.519 97.5907 188.193 97.9872 187.994 98.4356C187.804 98.8604 187.733 99.3324 187.776 99.795C187.823 100.276 188.008 100.739 188.287 101.135C188.491 101.419 188.737 101.669 189.011 101.886C189.314 102.122 189.646 102.32 189.991 102.485C190.37 102.665 190.772 102.806 191.179 102.915C191.62 103.033 192.074 103.113 192.528 103.165C193.016 103.217 193.503 103.231 193.991 103.217C194.213 103.208 194.431 103.193 194.649 103.174C197.82 102.863 200.921 100.177 202.525 98.6669C229.179 73.6084 245.135 65.5136 268.167 67.3214C268.621 67.3591 268.763 66.7314 268.342 66.5662C241.05 55.8612 215.433 80.0229 206.066 88.9437C205.682 88.415 205.048 87.6032 204.721 87.2162C204.56 87.0226 202.563 84.6579 200.575 84.5163C199.108 84.4125 197.513 84.9694 197.025 86.4185C196.859 86.9046 196.817 87.438 196.935 87.9336C196.997 88.1838 197.096 88.4292 197.229 88.651C197.385 88.9106 197.588 89.1419 197.825 89.3307C198.076 89.529 198.36 89.68 198.663 89.7744C198.672 89.7744 198.677 89.7791 198.686 89.7838C199.008 89.883 199.349 89.916 199.685 89.883C200.04 89.8499 200.39 89.7414 200.703 89.562C200.977 89.4062 201.223 89.1986 201.427 88.9531C201.564 88.7879 201.673 88.6038 201.848 88.4764C201.971 88.3867 202.118 88.3301 202.27 88.3159C202.43 88.3018 202.591 88.3395 202.743 88.3962C202.927 88.467 203.098 88.5708 203.259 88.6841C203.865 89.1089 204.958 90.473 205.218 90.8034C205.441 91.0913 205.701 91.4122 205.933 91.7049" fill="white"/>
</g>
<defs>
<clipPath id="clip0_1_68">
<rect width="269" height="107" fill="white"/>
</clipPath>
</defs>
</svg>
