<svg width="17" height="18" viewBox="0 0 17 18" fill="none" xmlns="http://www.w3.org/2000/svg">
<g clip-path="url(#clip0_6269_106020)">
<mask id="mask0_6269_106020" style="mask-type:luminance" maskUnits="userSpaceOnUse" x="0" y="0" width="17" height="18">
<path d="M16.6861 7.45455H8.76563V10.7386H13.3247C12.8997 12.825 11.1224 14.0227 8.76563 14.0227C5.98381 14.0227 3.7429 11.7818 3.7429 9C3.7429 6.21818 5.98381 3.97727 8.76563 3.97727C9.96336 3.97727 11.0452 4.40227 11.8952 5.09773L14.3679 2.625C12.8611 1.31136 10.9293 0.5 8.76563 0.5C4.05199 0.5 0.265625 4.28637 0.265625 9C0.265625 13.7136 4.05199 17.5 8.76563 17.5C13.0156 17.5 16.8793 14.4091 16.8793 9C16.8793 8.49773 16.802 7.95682 16.6861 7.45455Z" fill="white"/>
</mask>
<g mask="url(#mask0_6269_106020)">
<path d="M-0.507812 14.022V3.97656L6.06037 8.99929L-0.507812 14.022Z" fill="#FBBC05"/>
</g>
<mask id="mask1_6269_106020" style="mask-type:luminance" maskUnits="userSpaceOnUse" x="0" y="0" width="17" height="18">
<path d="M16.6861 7.45455H8.76563V10.7386H13.3247C12.8997 12.825 11.1224 14.0227 8.76563 14.0227C5.98381 14.0227 3.7429 11.7818 3.7429 9C3.7429 6.21818 5.98381 3.97727 8.76563 3.97727C9.96336 3.97727 11.0452 4.40227 11.8952 5.09773L14.3679 2.625C12.8611 1.31136 10.9293 0.5 8.76563 0.5C4.05199 0.5 0.265625 4.28637 0.265625 9C0.265625 13.7136 4.05199 17.5 8.76563 17.5C13.0156 17.5 16.8793 14.4091 16.8793 9C16.8793 8.49773 16.802 7.95682 16.6861 7.45455Z" fill="white"/>
</mask>
<g mask="url(#mask1_6269_106020)">
<path d="M-0.507812 3.97656L6.06037 8.99929L8.76492 6.64247L18.0376 5.13566V-0.273438H-0.507812V3.97656Z" fill="#EA4335"/>
</g>
<mask id="mask2_6269_106020" style="mask-type:luminance" maskUnits="userSpaceOnUse" x="0" y="0" width="17" height="18">
<path d="M16.6861 7.45455H8.76563V10.7386H13.3247C12.8997 12.825 11.1224 14.0227 8.76563 14.0227C5.98381 14.0227 3.7429 11.7818 3.7429 9C3.7429 6.21818 5.98381 3.97727 8.76563 3.97727C9.96336 3.97727 11.0452 4.40227 11.8952 5.09773L14.3679 2.625C12.8611 1.31136 10.9293 0.5 8.76563 0.5C4.05199 0.5 0.265625 4.28637 0.265625 9C0.265625 13.7136 4.05199 17.5 8.76563 17.5C13.0156 17.5 16.8793 14.4091 16.8793 9C16.8793 8.49773 16.802 7.95682 16.6861 7.45455Z" fill="white"/>
</mask>
<g mask="url(#mask2_6269_106020)">
<path d="M-0.507812 14.022L11.0831 5.13566L14.1354 5.52202L18.0376 -0.273438V18.272H-0.507812V14.022Z" fill="#34A853"/>
</g>
<mask id="mask3_6269_106020" style="mask-type:luminance" maskUnits="userSpaceOnUse" x="0" y="0" width="17" height="18">
<path d="M16.6861 7.45455H8.76563V10.7386H13.3247C12.8997 12.825 11.1224 14.0227 8.76563 14.0227C5.98381 14.0227 3.7429 11.7818 3.7429 9C3.7429 6.21818 5.98381 3.97727 8.76563 3.97727C9.96336 3.97727 11.0452 4.40227 11.8952 5.09773L14.3679 2.625C12.8611 1.31136 10.9293 0.5 8.76563 0.5C4.05199 0.5 0.265625 4.28637 0.265625 9C0.265625 13.7136 4.05199 17.5 8.76563 17.5C13.0156 17.5 16.8793 14.4091 16.8793 9C16.8793 8.49773 16.802 7.95682 16.6861 7.45455Z" fill="white"/>
</mask>
<g mask="url(#mask3_6269_106020)">
<path d="M18.0384 18.272L6.06108 8.99929L4.51562 7.8402L18.0384 3.97656V18.272Z" fill="#4285F4"/>
</g>
</g>
<defs>
<clipPath id="clip0_6269_106020">
<rect width="17" height="17" fill="white" transform="translate(0 0.5)"/>
</clipPath>
</defs>
</svg>
