<svg width="180" height="50" viewBox="0 0 180 50" fill="none" xmlns="http://www.w3.org/2000/svg">
<g clip-path="url(#clip0_8453_86710)">
<path d="M12.505 3.51562C10.9109 18.2098 22.7488 30.6436 37.9118 29.8121C42.5952 29.549 47.0973 28.0506 51.0702 25.28C49.3904 27.0189 47.4731 28.3138 45.246 29.4004C40.7423 31.5785 35.4605 32.2195 30.5199 31.2233C17.6005 28.6626 8.82385 16.0382 12.505 3.51562Z" fill="#A5E5D9"/>
<path d="M5.02415 10.1914C3.62787 21.8825 10.0983 33.5639 21.1861 38.2284C29.099 41.7143 38.4015 41.1201 46.0638 37.0417C37.3712 43.3547 25.037 43.387 16.0725 37.447C7.10787 31.7378 2.32555 20.3567 5.02415 10.1914Z" fill="#A5E5D9"/>
<path d="M0.276142 22.6113C-0.0106983 36.143 10.1079 47.7776 23.9537 49.1274C27.0248 49.4471 30.1059 49.2033 33.1342 48.5413C29.2157 49.9767 24.8834 50.348 20.7457 49.6473C7.7241 47.4983 -1.58502 35.4375 0.276142 22.6113Z" fill="#A5E5D9"/>
<path d="M51.0736 25.2796C51.128 20.042 48.8167 14.9222 44.5966 11.4428C45.2741 11.4686 45.9582 11.6188 46.616 11.8948C47.4551 12.2468 48.2843 13.616 48.3024 13.6257C47.6018 12.2581 46.1033 10.0252 45.3549 9.15977C44.6955 8.39608 43.8844 7.73733 42.9349 7.22713C42.2952 6.88322 41.6292 6.62973 40.9534 6.45859C41.0275 6.01943 41.077 5.54474 41.0638 5.10558C40.7918 4.90376 39.6049 4.04965 38.3355 3.33278C37.0612 2.61269 35.7029 2.03144 35.3863 1.90227C34.9907 2.11055 34.5951 2.38826 34.2423 2.67081C33.7527 2.18482 33.1955 1.74728 32.5707 1.37754C31.6442 0.828586 30.6551 0.471766 29.6479 0.294163C28.5071 0.0939565 25.7788 -0.0578131 24.2161 0.0326028C24.2342 0.0422902 25.8613 0.0616651 26.5932 0.594473C27.1669 1.01265 27.6417 1.51801 28.0043 2.07826C22.8115 0.245726 17.1192 0.849575 12.5067 3.51362C15.8614 1.99592 19.8673 2.00238 23.3292 3.81877C16.6148 2.91784 9.72072 5.22667 4.99115 10.1834C9.56246 6.76536 15.6026 5.6287 21.1943 7.23197C13.8156 9.25664 3.58662 16.0798 0.324219 22.6075C5.38019 16.1266 14.5162 12.2888 21.8241 11.8028C14.1123 16.3947 6.70889 21.3029 3.5553 37.0402C11.0708 24.3044 17.3451 21.7308 26.0805 17.2714C20.6058 26.9313 15.1427 37.263 12.8018 46.55C19.859 39.9254 26.28 30.133 32.1025 20.67C32.5179 30.2945 33.3768 36.8916 25.8497 49.6225C38.2152 39.0842 38.8614 30.3623 39.0741 21.5387C42.2985 27.9679 43.464 37.6214 40.2511 45.1421C44.4037 39.1165 45.3351 27.046 43.436 19.7885C47.6529 23.72 49.6641 29.4 48.9222 34.98C50.9483 28.4975 49.547 21.508 45.3928 16.2736C48.7327 18.2966 50.7406 21.684 51.0736 25.2829V25.2796Z" fill="url(#paint0_linear_8453_86710)"/>
<path d="M68.9506 35.8426C68.3143 35.4874 67.5378 35.1532 66.6245 34.8367L66.1349 34.6704C65.1887 34.3556 64.4699 34.0795 63.9803 33.8421C63.4907 33.6064 63.1149 33.3142 62.8544 32.967C62.5939 32.6199 62.462 32.1711 62.462 31.6189C62.462 30.8778 62.6829 30.2869 63.1231 29.8445C63.5632 29.4037 64.249 29.1825 65.1804 29.1825C65.7525 29.1825 66.3113 29.3165 66.857 29.5845C67.3004 29.8025 67.7406 30.0963 68.1791 30.458L70.3452 33.7937L70.4672 33.7469L69.6446 28.3203H69.5226L68.4577 29.1696C68.2087 29.0824 67.9648 29.0049 67.7257 28.9452C67.1059 28.7869 66.4284 28.7078 65.6931 28.7078C64.5012 28.7078 63.4643 28.9016 62.584 29.2874C61.7021 29.6733 61.0295 30.2223 60.5646 30.9311C60.0997 31.6399 59.8673 32.4536 59.8673 33.3675C59.8673 34.1408 60.0173 34.798 60.3206 35.3421C60.6223 35.8862 61.0625 36.3431 61.6427 36.7145C62.2214 37.0858 62.9764 37.4362 63.9078 37.7672L64.4963 37.9561C65.459 38.3032 66.2141 38.6229 66.7614 38.9135C67.3087 39.2057 67.729 39.5609 68.0225 39.9775C68.3159 40.3957 68.4626 40.943 68.4626 41.6211C68.4626 42.6302 68.123 43.423 67.4471 43.9978C66.7696 44.5742 65.7706 44.8616 64.4468 44.8616C63.9902 44.8616 63.5484 44.7873 63.1247 44.6372C62.9615 44.579 62.7901 44.5096 62.6137 44.4321L59.6728 40.0841H59.5508L60.408 44.6016C61.0938 44.8535 61.7548 45.036 62.3912 45.1457C63.0275 45.2555 63.771 45.312 64.6199 45.312C65.8118 45.2959 66.9097 45.0666 67.9137 44.6259C68.9176 44.1851 69.7221 43.5538 70.3254 42.7336C70.9288 41.9134 71.2305 40.9672 71.2305 39.8952C71.2305 38.8231 71.0112 38.0271 70.5694 37.3651C70.1293 36.7032 69.5902 36.1946 68.9539 35.8394L68.9506 35.8426Z" fill="white"/>
<path d="M83.3962 43.8273C82.8572 43.8273 82.5884 43.5431 82.5884 42.9764V36.6618C82.5884 35.5575 82.2653 34.7179 81.6208 34.1431C80.9762 33.5683 79.9673 33.2793 78.5958 33.2793C77.7962 33.2793 76.9588 33.4327 76.0867 33.7411C75.213 34.0478 74.4745 34.4386 73.8711 34.9116C73.2678 35.3847 72.9661 35.8029 72.9661 36.1645C72.9661 36.4164 73.0551 36.6021 73.2348 36.7199C73.4145 36.8378 73.6832 36.8975 74.0426 36.8975C74.303 36.8975 74.5487 36.8459 74.7778 36.7442C75.0053 36.6408 75.1767 36.5278 75.2921 36.4019C75.4224 36.2436 75.5213 35.9998 75.5856 35.6689C75.6466 35.3621 75.7059 34.8955 75.7669 34.2755C76.0801 34.227 76.451 34.2028 76.883 34.2028C77.6825 34.2028 78.2743 34.3837 78.6584 34.7469C79.0425 35.1102 79.2337 35.6463 79.2337 36.3551V38.0391C77.488 38.5331 76.151 38.9803 75.2311 39.3824C74.2915 39.7925 73.6634 40.2219 73.3453 40.6724C73.0271 41.1213 72.8672 41.6864 72.8672 42.3629C72.8672 43.2783 73.1573 43.992 73.736 44.5038C74.3146 45.0156 75.1191 45.2804 76.1477 45.2965C76.9637 45.2965 77.6462 45.0447 78.1919 44.5393C78.6914 44.0792 79.0425 43.4172 79.2502 42.5615C79.303 43.1831 79.3903 43.69 79.5156 44.0775C79.6541 44.5119 79.8816 44.8267 80.2014 45.0237C80.5212 45.2207 80.9482 45.3191 81.4872 45.3191C82.0758 45.3191 82.6049 45.2013 83.0797 44.9639C83.5528 44.7266 84.0836 44.2939 84.6722 43.6626V43.5447C84.443 43.64 84.2271 43.711 84.0226 43.7579C83.8182 43.8047 83.6105 43.8289 83.3979 43.8289L83.3962 43.8273ZM78.487 43.1766C78.2496 43.2945 77.9759 43.3542 77.666 43.3542C77.1929 43.3542 76.817 43.2008 76.5401 42.8924C76.2615 42.5857 76.123 42.132 76.123 41.533C76.123 41.0131 76.2054 40.5868 76.3686 40.2559C76.5318 39.9249 76.8368 39.5939 77.2868 39.2629C77.7187 38.9432 78.3699 38.5799 79.2337 38.1747V41.6282C79.2337 42.006 79.1678 42.3306 79.0376 42.5986C78.9073 42.8666 78.7227 43.0604 78.487 43.1782V43.1766Z" fill="white"/>
<path d="M96.5691 43.7524V34.3814C96.5691 34.3814 96.5691 34.3782 96.5691 34.3766H96.5674V33.2852H96.4454L91.7686 34.5381V34.6559L92.5929 35.2146C92.9968 35.4874 93.2374 35.9363 93.2374 36.4174V42.1847H93.2391V42.866C92.9803 42.9419 92.7083 43 92.4181 43.0339C92.0835 43.0743 91.7373 43.0937 91.3779 43.0937C90.9361 43.0937 90.5817 43.0307 90.313 42.9048C90.0443 42.7788 89.8399 42.5899 89.7014 42.3364C89.5629 42.0846 89.4937 41.7455 89.4937 41.3193V40.9172H89.5019V33.2852H89.3799L84.7031 34.5381V34.6559L85.5274 35.2146C85.9148 35.4761 86.1456 35.9024 86.1637 36.3609V41.865C86.1637 43 86.4242 43.8525 86.9467 44.4192C87.4693 44.9876 88.2276 45.2701 89.2233 45.2701C89.7294 45.2701 90.1696 45.2104 90.5454 45.0925C90.9197 44.9746 91.3285 44.7534 91.7686 44.4305C92.1791 44.1302 92.672 43.6749 93.2374 43.0791V43.6636L93.3842 45.2927H93.4584L98.2819 44.6307V44.5129L96.5938 43.7895C96.579 43.7831 96.5691 43.7686 96.5691 43.7524Z" fill="white"/>
<path d="M117.748 33.2672H117.626L112.949 34.5201V34.638L113.773 35.195C114.177 35.4679 114.418 35.9168 114.418 36.3979V44.8179L113.096 45.1731V45.2909H119.07V45.1731L117.748 44.8421V33.2656V33.2672Z" fill="white"/>
<path d="M130.787 33.9038C130.11 33.4856 129.307 33.2773 128.375 33.2773C127.935 33.2773 127.535 33.3452 127.175 33.4776C126.816 33.6116 126.415 33.836 125.975 34.1524C125.561 34.4479 125.105 34.8709 124.603 35.4166V33.2951H124.482L119.805 34.548V34.6659L120.606 35.2068C121.025 35.4893 121.274 35.9559 121.274 36.4548V49.5005L119.927 49.8783V49.9962H126.171V49.8783L124.603 49.5005V45.0992C125.237 45.2235 125.866 45.2897 126.489 45.2897C127.729 45.2897 128.829 45.0298 129.783 44.5099C130.738 43.99 131.484 43.2247 132.023 42.2156C132.562 41.2065 132.831 40.0004 132.831 38.5974C132.831 37.4785 132.66 36.5194 132.317 35.7234C131.974 34.9274 131.465 34.3204 130.787 33.9022V33.9038ZM129.036 42.5837C128.824 43.349 128.519 43.9157 128.118 44.2871C127.718 44.6584 127.241 44.8425 126.686 44.8425C126.064 44.8425 125.563 44.6375 125.179 44.2274C124.795 43.8173 124.603 43.2893 124.603 42.6418V35.5975C124.856 35.4764 125.126 35.3747 125.423 35.2972C125.757 35.21 126.12 35.1664 126.512 35.1664C127.165 35.1664 127.708 35.3246 128.141 35.6395C128.573 35.9543 128.883 36.4403 129.071 37.0942C129.259 37.7481 129.353 38.5957 129.353 39.6371C129.353 40.8351 129.246 41.8168 129.035 42.5821L129.036 42.5837Z" fill="white"/>
<path d="M143.094 42.7148C142.555 42.936 141.966 43.0458 141.33 43.0458C140.057 43.0458 139.101 42.6406 138.465 41.8284C137.828 41.0163 137.51 39.7279 137.51 37.9615C137.51 37.9212 137.51 37.8824 137.51 37.8437H144.585C144.488 36.4083 144.051 35.2894 143.275 34.4854C142.5 33.6813 141.434 33.2793 140.08 33.2793C138.855 33.2793 137.812 33.5635 136.946 34.1302C136.081 34.6985 135.42 35.4541 134.963 36.4003C134.505 37.3464 134.277 38.3797 134.277 39.4986C134.277 40.7289 134.51 41.7768 134.975 42.6438C135.441 43.5108 136.089 44.1696 136.922 44.6184C137.754 45.0673 138.717 45.2933 139.811 45.2933C140.497 45.2933 141.117 45.1867 141.673 44.9736C142.226 44.7605 142.757 44.394 143.263 43.8741C143.769 43.3542 144.267 42.6357 144.757 41.7219L144.66 41.6508C144.154 42.1401 143.631 42.4953 143.092 42.7148H143.094ZM138.502 34.1754C138.821 33.8767 139.225 33.7265 139.714 33.7265C140.253 33.7265 140.674 34.0188 140.975 34.6016C141.252 35.1361 141.427 36.0063 141.506 37.2027H137.53C137.564 36.5617 137.642 36.0128 137.767 35.5591C137.939 34.9358 138.184 34.4757 138.502 34.1754Z" fill="white"/>
<path d="M157.539 30.3926L157.663 28.334H157.539L152.348 29.4464V29.5643L153.326 30.0793C153.885 30.3732 154.233 30.9447 154.233 31.5664V33.4183C153.669 33.3262 153.098 33.2778 152.518 33.2778C151.229 33.2778 150.09 33.5377 149.102 34.0576C148.115 34.5775 147.343 35.3315 146.79 36.3164C146.234 37.3013 145.957 38.4799 145.957 39.8523C145.957 40.9405 146.157 41.898 146.557 42.7263C146.956 43.5545 147.52 44.1891 148.247 44.6298C148.974 45.0706 149.818 45.2918 150.781 45.2918C151.188 45.2918 151.572 45.2369 151.931 45.1255C152.291 45.0157 152.666 44.7945 153.057 44.4635C153.412 44.1632 153.807 43.7467 154.241 43.2155L154.391 45.2918H154.513L159.251 44.583V44.4878L157.536 43.8726V30.3909L157.539 30.3926ZM152.324 43.3785C151.638 43.3947 151.087 43.2445 150.672 42.9297C150.255 42.6149 149.945 42.1176 149.74 41.4394C149.536 40.7613 149.434 39.8701 149.434 38.7673C149.434 37.6 149.536 36.6393 149.74 35.8821C149.945 35.1249 150.246 34.5775 150.647 34.2385C151.048 33.8994 151.541 33.7299 152.129 33.7299C152.749 33.7299 153.255 33.9349 153.647 34.345C154.04 34.7551 154.236 35.275 154.236 35.9063V42.9781C153.667 43.2462 153.031 43.3802 152.325 43.3802L152.324 43.3785Z" fill="white"/>
<path d="M178.244 43.7562C178.039 43.8031 177.832 43.8273 177.619 43.8273C177.08 43.8273 176.811 43.5431 176.811 42.9764V36.6618C176.811 35.5575 176.488 34.7179 175.843 34.1431C175.199 33.5683 174.19 33.2793 172.818 33.2793C172.019 33.2793 171.181 33.4327 170.309 33.7411C169.436 34.0478 168.697 34.4386 168.094 34.9116C167.49 35.3847 167.189 35.8029 167.189 36.1645C167.189 36.4164 167.278 36.6021 167.457 36.7199C167.637 36.8378 167.906 36.8975 168.265 36.8975C168.526 36.8975 168.771 36.8459 169 36.7442C169.228 36.6408 169.399 36.5278 169.515 36.4019C169.645 36.2436 169.742 35.9998 169.808 35.6689C169.869 35.3621 169.929 34.8955 169.99 34.2755C170.303 34.227 170.674 34.2028 171.106 34.2028C171.905 34.2028 172.497 34.3837 172.881 34.7469C173.265 35.1102 173.456 35.6463 173.456 36.3551V38.0391C171.711 38.5331 170.374 38.9803 169.454 39.3824C168.514 39.7925 167.886 40.2219 167.568 40.6724C167.25 41.1213 167.09 41.6864 167.09 42.3629C167.09 43.2783 167.38 43.992 167.959 44.5038C168.537 45.0156 169.342 45.2804 170.37 45.2965C171.186 45.2965 171.869 45.0447 172.415 44.5393C172.914 44.0792 173.265 43.4172 173.473 42.5615C173.526 43.1831 173.613 43.69 173.737 44.0775C173.875 44.5119 174.104 44.8267 174.422 45.0237C174.741 45.2207 175.169 45.3191 175.708 45.3191C176.297 45.3191 176.826 45.2013 177.301 44.9639C177.774 44.7266 178.305 44.2939 178.893 43.6626V43.5447C178.664 43.64 178.448 43.711 178.244 43.7579V43.7562ZM172.71 43.1766C172.472 43.2945 172.199 43.3542 171.889 43.3542C171.416 43.3542 171.04 43.2008 170.763 42.8924C170.484 42.5857 170.346 42.132 170.346 41.533C170.346 41.0131 170.428 40.5868 170.591 40.2559C170.754 39.9249 171.059 39.5939 171.509 39.2629C171.941 38.9432 172.593 38.5799 173.456 38.1747V41.6282C173.456 42.006 173.39 42.3306 173.26 42.5986C173.13 42.8666 172.945 43.0604 172.71 43.1782V43.1766Z" fill="white"/>
<path d="M117.355 31.3306C117.726 30.7962 118.021 30.4216 118.241 30.2085L115.356 28.334C115.204 28.6456 114.959 29.0525 114.622 29.5546C114.284 30.0567 113.999 30.4297 113.762 30.6767L116.622 32.5755C116.739 32.28 116.985 31.8634 117.355 31.3306Z" fill="white"/>
<path d="M164.627 33.2676H164.505L159.828 34.5205V34.6383L160.671 35.2083C161.063 35.4731 161.297 35.9106 161.297 36.3789V44.8198L159.975 45.175V45.2929H165.949V45.175L164.627 44.844V33.2676Z" fill="white"/>
<path d="M164.234 31.3306C164.605 30.7962 164.9 30.4216 165.12 30.2085L162.235 28.334C162.083 28.6456 161.837 29.0525 161.501 29.5546C161.163 30.0567 160.878 30.4297 160.641 30.6767L163.501 32.5755C163.618 32.28 163.863 31.8634 164.234 31.3306Z" fill="white"/>
<path d="M110.675 30.3926L110.798 28.334H110.675L105.483 29.4464V29.5643L106.463 30.0793C107.021 30.3732 107.369 30.9447 107.369 31.5664V33.4183C106.805 33.3262 106.235 33.2778 105.655 33.2778C104.366 33.2778 103.227 33.5377 102.239 34.0576C101.252 34.5775 100.48 35.3315 99.9262 36.3164C99.3707 37.3013 99.0938 38.4799 99.0938 39.8523C99.0938 40.9405 99.2932 41.898 99.6938 42.7263C100.094 43.5545 100.657 44.1891 101.384 44.6298C102.111 45.0706 102.955 45.2918 103.917 45.2918C104.324 45.2918 104.709 45.2369 105.068 45.1255C105.427 45.0157 105.803 44.7945 106.194 44.4635C106.548 44.1632 106.944 43.7467 107.378 43.2139L107.528 45.2902H107.65L112.387 44.5814V44.4861L110.673 43.871V30.3893L110.675 30.3926ZM105.459 43.3785C104.773 43.3947 104.222 43.2445 103.807 42.9297C103.39 42.6149 103.08 42.1176 102.875 41.4394C102.671 40.7613 102.569 39.8701 102.569 38.7673C102.569 37.6 102.671 36.6393 102.875 35.8821C103.08 35.1249 103.382 34.5775 103.782 34.2385C104.183 33.8994 104.676 33.7299 105.264 33.7299C105.884 33.7299 106.39 33.9349 106.782 34.345C107.175 34.7551 107.371 35.275 107.371 35.9063V42.9781C106.802 43.2462 106.166 43.3802 105.46 43.3802L105.459 43.3785Z" fill="white"/>
<path d="M66.1456 15.1911C65.4203 15.2073 64.8219 15.1137 64.3488 14.907C63.8756 14.7019 63.5179 14.3645 63.2739 13.8963C63.03 13.428 62.9063 12.7984 62.9063 12.0088C62.9063 8.42449 62.8898 5.99617 62.8552 4.72066C62.8222 3.44677 62.7547 2.51839 62.6524 1.93392C62.5519 1.35106 62.3409 0.705229 62.0194 -0.00195312C61.7837 0.392002 61.4128 0.910279 60.9067 1.55126C60.4006 2.19225 59.9786 2.67016 59.6406 2.98177C60.028 3.7051 60.2984 4.36707 60.45 4.96769C60.6017 5.56831 60.7105 6.49669 60.7797 7.75444C60.8473 9.01219 60.9067 10.9981 60.9561 13.7106C60.9891 15.7175 61.4029 17.1625 62.1958 18.0506C62.9887 18.9386 64.3043 19.3826 66.144 19.3826C66.8364 19.3826 67.4677 19.3341 68.0414 19.234C68.6151 19.1355 69.1212 18.9789 69.5597 18.7658C69.7954 18.6673 70.0905 18.2895 70.445 17.6308C70.7994 16.9736 71.2461 15.9791 71.7868 14.647C71.1621 14.8602 70.3394 15.0039 69.319 15.0781C68.2986 15.1524 67.2403 15.1895 66.144 15.1895L66.1456 15.1911Z" fill="white"/>
<path d="M70.9528 6.83008C70.7846 7.27408 70.4846 7.82142 70.0543 8.47048C69.6241 9.11954 69.2581 9.63459 68.9531 10.0124L71.7869 14.6494C71.9715 14.1409 72.1364 13.6097 72.2798 13.0591C72.4232 12.5085 72.4958 12.0694 72.4958 11.74C72.4958 11.3121 72.3952 10.7858 72.1924 10.1609C71.9897 9.5361 71.5759 8.42689 70.9528 6.83169V6.83008Z" fill="white"/>
<path d="M68.4113 22.9014C68.1855 23.2276 67.9794 23.4956 67.7898 23.7152L64.9066 21.7422C64.7714 22.0377 64.539 22.4235 64.2109 22.9014C63.8812 23.3777 63.5829 23.7394 63.3125 23.9864L66.1727 25.9837C66.3078 25.6882 66.5568 25.2894 66.9194 24.7873C67.1585 24.4563 67.3645 24.1931 67.5426 23.9881L70.4258 25.9837C70.5264 25.6882 70.7588 25.2894 71.1215 24.7873C71.4842 24.2851 71.7825 23.9283 72.0199 23.7152L69.1598 21.7422C68.99 22.0377 68.7427 22.4235 68.413 22.9014H68.4113ZM67.5722 23.9509C67.6448 23.867 67.714 23.7911 67.7767 23.7297C67.7058 23.8105 67.6382 23.8847 67.5722 23.9509Z" fill="white"/>
<path d="M90.9348 22.9014C90.7089 23.2276 90.5029 23.4956 90.3133 23.7152L87.43 21.7422C87.2949 22.0377 87.0641 22.4235 86.7344 22.9014C86.4047 23.3777 86.1063 23.7394 85.8359 23.9864L88.6961 25.9837C88.8313 25.6882 89.0802 25.2894 89.4429 24.7873C89.6819 24.4579 89.888 24.1915 90.0644 23.9864L92.9476 25.9837C93.0482 25.6882 93.2806 25.2894 93.6433 24.7873C94.0059 24.2851 94.3043 23.9283 94.5417 23.7152L91.6815 21.7422C91.5134 22.0377 91.2645 22.4235 90.9348 22.9014ZM90.3034 23.7265C90.2276 23.8137 90.1534 23.8944 90.0825 23.9638C90.1616 23.8718 90.2358 23.7911 90.3034 23.7265Z" fill="white"/>
<path d="M103.497 22.9628C103.159 23.4649 102.874 23.8379 102.637 24.0849L105.497 25.9837C105.614 25.6882 105.86 25.2716 106.23 24.7388C106.601 24.2044 106.896 23.8298 107.116 23.6167L104.231 21.7422C104.079 22.0538 103.834 22.4607 103.497 22.9628Z" fill="white"/>
<path d="M118.277 6.83008C118.107 7.27408 117.809 7.82142 117.379 8.47048C116.948 9.11954 116.581 9.63459 116.277 10.0124L119.111 14.6494C119.296 14.1392 119.461 13.6097 119.604 13.0591C119.747 12.5085 119.82 12.0694 119.82 11.74C119.82 11.3121 119.719 10.7874 119.517 10.1609C119.314 9.5361 118.9 8.42689 118.277 6.83169V6.83008Z" fill="white"/>
<path d="M115.732 22.9014C115.506 23.2276 115.3 23.4956 115.11 23.7152L112.227 21.7422C112.092 22.0377 111.859 22.4235 111.531 22.9014C111.203 23.3777 110.903 23.7394 110.633 23.9864L113.493 25.9837C113.628 25.6882 113.877 25.2894 114.24 24.7873C114.477 24.4579 114.685 24.1915 114.861 23.9864L117.744 25.9837C117.845 25.6882 118.077 25.2894 118.44 24.7873C118.803 24.2851 119.103 23.9283 119.339 23.7152L116.478 21.7422C116.31 22.0377 116.061 22.4235 115.732 22.9014ZM115.1 23.7265C115.024 23.8137 114.95 23.8944 114.879 23.9638C114.959 23.8718 115.033 23.7927 115.1 23.7265Z" fill="white"/>
<path d="M113.469 15.1912C112.608 15.2074 111.888 15.1056 111.306 14.8828C110.724 14.66 110.381 14.3533 110.281 13.9577L110.989 11.3195H110.862C110.559 11.9944 110.264 12.6111 109.977 13.1698C109.69 13.7284 109.455 14.1401 109.268 14.4033C109.049 14.6665 108.556 14.8635 107.788 14.9959C107.02 15.1282 105.818 15.1928 104.181 15.1928H98.6652C97.8046 15.209 97.0842 15.1073 96.5007 14.8844C95.9188 14.6616 95.5775 14.3549 95.4753 13.9593L96.1842 11.3211H96.0572C95.7539 11.996 95.4588 12.6127 95.172 13.1714C94.8851 13.73 94.6494 14.1417 94.4631 14.4049C94.2439 14.6681 93.7493 14.8651 92.9828 14.9975C92.2146 15.1299 91.0128 15.1944 89.3758 15.1944H88.9208C88.0257 15.1944 87.3135 15.0879 86.7827 14.8731C86.2519 14.66 85.8299 14.2822 85.5167 13.7381C85.2051 13.1956 84.9726 12.4061 84.821 11.3711C84.5506 9.71137 84.3363 8.69419 84.1748 7.90466C84.0149 7.11514 83.1758 5.51671 82.8214 4.92578C82.6862 5.31974 81.2783 7.56076 81.0245 7.85623C81.43 8.35028 81.7828 8.90085 82.0878 9.50793C82.3911 10.1166 82.6581 10.5865 82.8856 11.334C83.0851 11.9928 83.2615 12.7209 83.4165 13.5121C82.701 14.0562 81.857 14.5276 80.8827 14.8166C79.8887 15.1121 78.8798 15.259 77.8527 15.259C76.9774 15.259 76.2801 15.0943 75.7575 14.7666C75.2349 14.4388 74.9744 13.9561 74.9744 13.4313C74.9744 13.0374 75.0157 12.595 75.0997 12.1025C75.1838 11.6101 75.3272 10.9869 75.5283 10.2329H75.4031C74.9827 11.5294 74.6744 12.6354 74.4815 13.554C74.2887 14.4727 74.1914 15.3172 74.1914 16.0873C74.1914 17.2191 74.4651 18.0522 75.0124 18.585C75.5597 19.1179 76.3378 19.3843 77.3466 19.3843C78.3555 19.3843 79.3067 19.1792 80.2497 18.7691C81.1926 18.359 81.9328 17.7697 82.4702 16.9979C82.673 16.7025 82.8444 16.3133 82.9878 15.829C83.1247 15.3656 83.273 14.6229 83.4346 13.6106C83.4494 13.6864 83.4643 13.7591 83.4791 13.835C83.6819 15.2154 84.0066 16.3101 84.4534 17.1158C84.9001 17.9215 85.4738 18.5011 86.1744 18.8547C86.875 19.2083 87.7899 19.3843 88.9208 19.3843C89.6116 19.3843 90.2495 19.3229 90.8315 19.1986C91.4134 19.0759 91.8568 18.9063 92.1602 18.6932C92.3794 18.5447 92.6531 18.2379 92.9828 17.7681C93.3108 17.2998 93.7032 16.6056 94.1598 15.6837C94.1763 16.851 94.5472 17.76 95.2725 18.4091C95.9979 19.0597 97.0447 19.3826 98.4113 19.3826H103.726C104.418 19.3826 105.055 19.3213 105.637 19.197C106.219 19.0743 106.662 18.9047 106.965 18.6916C107.185 18.5431 107.458 18.2363 107.788 17.7665C108.118 17.2982 108.508 16.604 108.965 15.682C108.982 16.8494 109.352 17.7584 110.079 18.4074C110.805 19.0581 111.852 19.381 113.217 19.381H113.469C114.161 19.381 114.793 19.3326 115.368 19.2325C115.942 19.134 116.448 18.9774 116.886 18.7643C117.122 18.6658 117.417 18.288 117.771 17.6292C118.126 16.9721 118.573 15.9775 119.113 14.6455C118.488 14.8586 117.666 15.0023 116.645 15.0766C115.625 15.1509 114.567 15.188 113.469 15.188V15.1912Z" fill="white"/>
<path d="M130.387 17.2137C130.778 16.5808 131.165 15.7154 131.548 14.6175L131.553 14.6045C131.556 14.5949 131.559 14.5852 131.563 14.5739C131.566 14.5642 131.569 14.5545 131.573 14.5432L131.584 14.5061C131.728 14.0491 131.856 13.5841 131.968 13.1062C132.087 12.6041 132.145 12.1972 132.145 11.8856C132.145 11.1122 131.863 10.2904 131.297 9.41854C130.732 8.54667 130.02 7.82335 129.159 7.24856C128.299 6.67377 127.438 6.38477 126.578 6.38477C126.442 6.38477 126.167 6.38477 125.864 6.53169L125.438 6.7545C125.371 7.16622 125.236 7.78298 125.033 8.6048C124.83 9.42662 124.67 9.96911 124.553 10.2323L125.008 10.1338C125.414 10.0515 125.666 10.0111 125.768 10.0111C126.475 10.0111 127.235 10.2613 128.045 10.7635C128.854 11.2656 129.588 11.8727 130.246 12.5879C130.851 13.2467 131.269 13.8586 131.503 14.4269C131.525 14.519 131.432 14.6126 131.419 14.6239C130.847 14.8274 130.115 14.971 129.22 15.0534C128.249 15.1438 127.216 15.189 126.119 15.189C125.023 15.189 124.146 15.1147 123.487 14.9678C122.829 14.8193 122.356 14.59 122.071 14.2768C122.071 14.0459 122.095 13.7101 122.146 13.2661C122.197 12.8221 122.255 12.4765 122.323 12.2311H122.196C122.01 12.8883 121.85 13.6003 121.714 14.364C121.579 15.1293 121.512 15.8397 121.512 16.4968C121.512 17.1539 121.647 17.7223 121.917 18.1485C122.186 18.5764 122.596 18.888 123.144 19.0866C123.691 19.2836 124.37 19.3821 125.181 19.3821C126.075 19.3821 126.889 19.2965 127.623 19.1237C128.356 18.951 128.951 18.7249 129.406 18.4456C129.659 18.2648 129.983 17.8531 130.381 17.2121L130.387 17.2137Z" fill="white"/>
<path d="M174.026 14.2054L174.835 11.3202H174.708C174.422 12.0112 174.135 12.628 173.848 13.1705C173.561 13.7129 173.317 14.1247 173.114 14.404C172.945 14.6672 172.608 14.8641 172.102 14.9965C171.596 15.1289 170.955 15.1935 170.178 15.1935C169.537 15.1935 168.985 15.1289 168.522 14.9965C168.057 14.8658 167.699 14.6429 167.447 14.3313L169.117 11.0021H168.99C168.635 11.6431 168.256 12.2275 167.851 12.7523C167.445 13.2786 167.074 13.7146 166.736 14.0601C166.331 14.4557 165.594 14.743 164.522 14.9239C163.451 15.1047 161.886 15.1951 159.827 15.1951C158.326 15.1951 157.224 15.1741 156.525 15.1338C156.199 15.1144 155.675 14.9675 155.185 14.8028C155.846 14.073 156.397 13.3642 156.83 12.6796C157.277 11.9724 157.501 11.3815 157.501 10.9036C157.501 10.0656 157.16 9.39074 156.476 8.88054C155.793 8.37195 154.768 8.11523 153.401 8.11523C152.457 8.11523 151.064 8.18143 149.226 8.31221L148.543 8.36065L148.443 8.6319C148.342 9.05976 148.161 9.58934 147.899 10.2222C147.637 10.8552 147.414 11.3363 147.228 11.6657C148.594 11.8465 149.707 12.0516 150.568 12.2824C151.428 12.5133 152.124 12.7926 152.655 13.1204C153.185 13.4498 153.629 13.8518 153.983 14.3281C153.307 14.6236 152.241 14.8415 150.782 14.982C149.323 15.1225 145.505 15.1919 143.177 15.1919H143.171C143.136 14.2538 142.95 13.3448 142.609 12.4665C142.229 11.4881 141.735 10.7034 141.128 10.1108C140.52 9.5183 139.846 9.22283 139.104 9.22283C138.295 9.22283 137.599 9.62163 137.017 10.4192C136.435 11.2168 135.891 12.5036 135.385 14.278C135.705 13.6855 136.059 13.2334 136.448 12.9218C136.836 12.6102 137.284 12.4455 137.79 12.4278C138.904 12.4278 139.89 12.8588 140.751 13.7226C141.168 14.1424 141.554 14.6591 141.908 15.271C141.697 15.2855 141.478 15.3001 141.244 15.313C140.645 15.3453 139.864 15.3614 138.903 15.3614C137.856 15.3614 137.06 15.271 136.511 15.0902C135.962 14.9093 135.586 14.6381 135.385 14.2764C135.266 14.7043 135.166 15.1483 135.082 15.6085C134.997 16.0686 134.963 16.4464 134.981 16.7435C134.981 17.5815 135.276 18.2321 135.866 18.6923C136.456 19.1524 137.368 19.3833 138.599 19.3833H141.895C141.45 19.8241 140.909 20.2778 140.245 20.7024C138.843 21.5985 137.393 22.3461 135.893 22.9467C134.391 23.5473 133.286 23.846 132.577 23.846C132.307 23.846 131.961 23.7685 131.541 23.6119C131.119 23.4553 130.36 23.1227 129.262 22.6125L129.086 22.514V22.6367C130.385 23.4585 131.814 24.2642 133.375 25.0537C134.935 25.8432 136.095 26.3615 136.855 26.6069C137.513 26.2937 138.159 25.932 138.791 25.5219C139.424 25.1102 140.022 24.6549 140.588 24.1528C141.153 23.6506 141.621 23.1291 141.992 22.5866C142.246 22.2088 142.452 21.6986 142.612 21.0576C142.711 20.6604 142.778 20.0695 142.859 19.3801H145.104C146.303 19.3801 147.627 19.2202 149.077 18.8989C150.528 18.5776 151.608 18.1885 152.317 17.7268C152.655 17.4975 153.026 17.1843 153.429 16.7903C153.795 16.4335 154.196 16.0008 154.631 15.497C155.192 16.5175 155.63 17.3247 155.91 17.8753C156.222 18.4888 156.593 18.907 157.101 19.0959C157.607 19.2848 158.375 19.3801 159.404 19.3801H159.834C160.576 19.3801 161.323 19.2977 162.074 19.1331C162.824 18.9684 163.386 18.7633 163.757 18.5163C164.263 18.1869 164.929 17.3409 165.757 15.9766C165.673 17.0955 165.909 17.9415 166.466 18.5163C167.023 19.0911 167.773 19.3801 168.718 19.3801C169.478 19.3801 170.152 19.154 170.742 18.702C171.332 18.2499 171.939 17.3829 172.564 16.0993C172.429 17.2004 172.74 18.0432 173.5 18.6277C174.258 19.2106 175.229 19.527 176.41 19.5771L178.282 15.5326C177.27 15.5326 176.372 15.4179 175.587 15.1871C174.802 14.9578 174.283 14.6284 174.031 14.2005L174.026 14.2054Z" fill="white"/>
<path d="M178.912 11.5159C178.828 11.088 178.684 10.4793 178.482 9.69141C178.262 9.98687 177.933 10.3663 177.494 10.8264C177.056 11.2866 176.693 11.6321 176.406 11.8614C177.048 12.7171 177.516 13.4437 177.811 14.0443C178.106 14.6449 178.254 15.0679 178.254 15.315C178.254 15.3634 178.258 15.4054 178.267 15.4377C178.276 15.4716 178.279 15.5039 178.279 15.5362C178.549 14.8629 178.744 14.3155 178.861 13.8957C178.978 13.476 179.037 13.0788 179.037 12.6994C179.037 12.3199 178.994 11.9437 178.91 11.5159H178.912Z" fill="white"/>
<path d="M173.327 4.89571L174.092 4.14171C173.774 3.97057 173.492 3.81395 173.238 3.66541C173.299 3.60729 173.358 3.55078 173.414 3.48942C173.694 3.1875 173.912 2.86136 174.065 2.51099L172.658 3.31182C172.32 3.09385 172.069 2.90495 171.911 2.74995C171.579 2.42381 171.413 2.1348 171.413 1.88454C171.413 1.80058 171.469 1.68756 171.579 1.54548C171.69 1.4034 171.843 1.27746 172.038 1.16929C172.234 1.06111 172.45 1.00622 172.689 1.00622C173.096 1.00622 173.429 1.13538 173.683 1.39533C173.938 1.65527 174.065 2.02662 174.065 2.51261C174.149 2.32855 174.219 2.13641 174.268 1.93459C174.319 1.73439 174.344 1.55033 174.344 1.38241C174.344 0.964237 174.242 0.630021 174.037 0.378148C173.833 0.126275 173.596 0.00195312 173.324 0.00195312C172.967 0.00195312 172.621 0.169868 172.292 0.504084C171.96 0.839915 171.688 1.22418 171.476 1.6585C171.263 2.09444 171.156 2.46256 171.156 2.76287C171.156 3.09708 171.304 3.41515 171.602 3.71708C171.64 3.75583 171.685 3.79619 171.733 3.83817L168.988 5.39946L168.859 6.27779L172.361 4.30801C172.63 4.48723 172.948 4.68259 173.324 4.89571H173.327Z" fill="white"/>
<path d="M71.3694 0L66.1403 2.88685L66.0117 3.76518L71.2408 1.1302L71.3694 0Z" fill="white"/>
</g>
<defs>
<linearGradient id="paint0_linear_8453_86710" x1="15.6949" y1="45.7185" x2="33.8815" y2="6.7685" gradientUnits="userSpaceOnUse">
<stop stop-color="#00A19B"/>
<stop offset="1" stop-color="#90D5AC"/>
</linearGradient>
<clipPath id="clip0_8453_86710">
<rect width="179" height="50" fill="white" transform="translate(0.0390625)"/>
</clipPath>
</defs>
</svg>
