<svg width="418" height="120" viewBox="0 0 418 120" fill="none" xmlns="http://www.w3.org/2000/svg">
<g clip-path="url(#clip0_6263_42225)">
<path d="M29.1095 8.44043C25.387 43.7065 53.0309 73.5476 88.4394 71.552C99.3761 70.9204 109.889 67.3244 119.167 60.675C115.244 64.8483 110.767 67.9561 105.566 70.5639C95.0492 75.7912 82.7151 77.3296 71.1778 74.9388C41.0086 68.7931 20.5134 38.4947 29.1095 8.44043Z" fill="#A5E5D9"/>
<path d="M11.6359 24.4629C8.37528 52.5215 23.4849 80.5569 49.3773 91.7517C67.8553 100.118 89.5785 98.6918 107.471 88.9036C87.1725 104.055 58.3699 104.132 37.4358 89.8762C16.5018 76.1743 5.3341 48.8597 11.6359 24.4629Z" fill="#A5E5D9"/>
<path d="M0.553628 54.2695C-0.116201 86.7456 23.5126 114.669 55.8453 117.908C63.0171 118.675 70.212 118.09 77.2837 116.502C68.1332 119.946 58.0165 120.838 48.354 119.156C17.9461 113.998 -3.79256 85.0523 0.553628 54.2695Z" fill="#A5E5D9"/>
<path d="M119.17 60.6746C119.297 48.1042 113.9 35.8167 104.045 27.4662C105.627 27.5282 107.225 27.8885 108.76 28.5511C110.72 29.3959 112.656 32.6819 112.699 32.7051C111.063 29.423 107.563 24.0639 105.816 21.987C104.276 20.1541 102.382 18.5731 100.164 17.3486C98.6707 16.5233 97.1155 15.9149 95.5371 15.5041C95.7104 14.4501 95.8259 13.3109 95.7951 12.2569C95.1599 11.7725 92.3882 9.72268 89.424 8.0022C86.4483 6.27396 83.2762 4.87897 82.5371 4.56897C81.6132 5.06885 80.6893 5.73534 79.8655 6.41346C78.7221 5.24709 77.421 4.19698 75.962 3.30961C73.7985 1.99212 71.4888 1.13575 69.1367 0.709507C66.4727 0.229011 60.1017 -0.135236 56.4523 0.0817624C56.4946 0.105012 60.2942 0.151512 62.0034 1.43025C63.343 2.43387 64.4517 3.64673 65.2986 4.99135C53.1724 0.593258 39.8798 2.0425 29.1086 8.43619C36.9425 4.79372 46.297 4.80922 54.3812 9.16856C38.7018 7.00633 22.6028 12.5475 11.5583 24.4437C22.2333 16.2404 36.3382 13.5124 49.396 17.3602C32.1652 22.2195 8.27849 38.5951 0.660156 54.2616C12.4668 38.7074 33.8013 29.4966 50.8665 28.3303C32.8581 39.3507 15.5696 51.1306 8.20535 88.8999C25.7556 58.3342 40.4072 52.1575 60.8061 41.4548C48.0217 64.6387 35.2641 89.4346 29.7977 111.723C46.2778 95.8245 61.2719 72.3228 74.8687 49.6116C75.8388 72.7103 77.8444 88.5434 60.2672 119.098C89.143 93.8056 90.652 72.873 91.1486 51.6963C98.6784 67.1265 101.4 90.2949 93.8972 108.344C103.594 93.8831 105.769 64.9138 101.335 47.4959C111.182 56.9314 115.878 70.5636 114.146 83.9554C118.877 68.3974 115.605 51.6227 105.904 39.0601C113.703 43.9154 118.392 52.0451 119.17 60.6824V60.6746Z" fill="url(#paint0_linear_6263_42225)"/>
<path d="M160.923 86.0242C159.437 85.1717 157.624 84.3696 155.491 83.6101L154.348 83.211C152.138 82.4553 150.46 81.7927 149.317 81.2231C148.173 80.6573 147.295 79.956 146.687 79.1229C146.079 78.2897 145.771 77.2125 145.771 75.8873C145.771 74.1086 146.287 72.6904 147.315 71.6287C148.343 70.5708 149.944 70.0399 152.119 70.0399C153.455 70.0399 154.76 70.3616 156.034 71.0048C157.07 71.5279 158.097 72.2332 159.121 73.1012L164.18 81.1068L164.465 80.9945L162.544 67.9707H162.259L159.772 70.0089C159.191 69.7997 158.621 69.6137 158.063 69.4703C156.615 69.0906 155.033 68.9007 153.316 68.9007C150.533 68.9007 148.112 69.3657 146.056 70.2918C143.996 71.2179 142.426 72.5354 141.34 74.2365C140.255 75.9376 139.712 77.8906 139.712 80.0839C139.712 81.94 140.062 83.5171 140.77 84.8229C141.475 86.1288 142.503 87.2254 143.858 88.1167C145.209 89.0079 146.972 89.8488 149.147 90.6431L150.521 91.0965C152.77 91.9296 154.533 92.6969 155.811 93.3944C157.089 94.0957 158.07 94.9482 158.756 95.948C159.441 96.9516 159.784 98.2652 159.784 99.8927C159.784 102.315 158.991 104.217 157.412 105.597C155.83 106.98 153.497 107.67 150.406 107.67C149.34 107.67 148.308 107.492 147.319 107.131C146.937 106.992 146.537 106.825 146.125 106.639L139.258 96.2037H138.973L140.974 107.046C142.576 107.65 144.12 108.088 145.605 108.352C147.091 108.615 148.828 108.751 150.81 108.751C153.593 108.712 156.157 108.162 158.502 107.104C160.846 106.046 162.725 104.531 164.134 102.563C165.543 100.594 166.247 98.3233 166.247 95.7503C166.247 93.1774 165.735 91.267 164.703 89.6783C163.675 88.0895 162.417 86.8689 160.931 86.0164L160.923 86.0242Z" fill="#004750"/>
<path d="M194.658 105.186C193.399 105.186 192.771 104.504 192.771 103.144V87.9892C192.771 85.3387 192.017 83.3237 190.512 81.9442C189.006 80.5647 186.65 79.8711 183.448 79.8711C181.581 79.8711 179.625 80.2392 177.589 80.9793C175.548 81.7156 173.824 82.6533 172.415 83.7887C171.006 84.9241 170.301 85.9277 170.301 86.7957C170.301 87.4002 170.509 87.8458 170.929 88.1286C171.348 88.4115 171.976 88.5549 172.815 88.5549C173.423 88.5549 173.997 88.4309 174.532 88.1868C175.063 87.9388 175.464 87.6675 175.733 87.3653C176.037 86.9855 176.268 86.4004 176.418 85.606C176.561 84.8698 176.699 83.7499 176.842 82.2619C177.573 82.1457 178.439 82.0876 179.448 82.0876C181.315 82.0876 182.697 82.5216 183.594 83.3934C184.491 84.2653 184.937 85.5518 184.937 87.2529V91.2945C180.861 92.4802 177.739 93.5536 175.591 94.5185C173.396 95.5027 171.93 96.5335 171.187 97.6146C170.444 98.6918 170.07 100.048 170.07 101.672C170.07 103.869 170.748 105.582 172.099 106.81C173.45 108.038 175.329 108.674 177.731 108.712C179.637 108.712 181.23 108.108 182.504 106.895C183.671 105.791 184.491 104.202 184.976 102.148C185.099 103.64 185.303 104.857 185.596 105.787C185.919 106.829 186.45 107.585 187.197 108.058C187.944 108.53 188.941 108.767 190.2 108.767C191.574 108.767 192.81 108.484 193.919 107.914C195.023 107.345 196.263 106.306 197.637 104.791V104.508C197.102 104.737 196.598 104.907 196.12 105.02C195.643 105.132 195.158 105.19 194.661 105.19L194.658 105.186ZM183.194 103.625C182.639 103.908 182 104.051 181.276 104.051C180.172 104.051 179.294 103.683 178.647 102.943C177.997 102.206 177.673 101.118 177.673 99.6799C177.673 98.4322 177.866 97.4092 178.247 96.6148C178.628 95.8205 179.34 95.0261 180.391 94.2317C181.4 93.4645 182.92 92.5926 184.937 91.62V99.9085C184.937 100.815 184.783 101.594 184.479 102.237C184.175 102.881 183.744 103.346 183.194 103.629V103.625Z" fill="#004750"/>
<path d="M225.42 105.008V82.5178C225.42 82.5178 225.42 82.5101 225.42 82.5062H225.416V79.8867H225.132L214.21 82.8937V83.1766L216.135 84.5173C217.078 85.1722 217.64 86.2494 217.64 87.4042V101.246H217.644V102.881C217.04 103.063 216.405 103.202 215.727 103.284C214.946 103.381 214.137 103.427 213.298 103.427C212.266 103.427 211.439 103.276 210.811 102.974C210.184 102.672 209.706 102.218 209.383 101.61C209.06 101.005 208.898 100.192 208.898 99.1686V98.2037H208.917V79.8867H208.632L197.711 82.8937V83.1766L199.636 84.5173C200.54 85.145 201.079 86.168 201.122 87.2685V100.478C201.122 103.202 201.73 105.248 202.95 106.608C204.171 107.972 205.941 108.651 208.267 108.651C209.448 108.651 210.476 108.507 211.354 108.224C212.228 107.941 213.182 107.411 214.21 106.636C215.169 105.915 216.32 104.822 217.64 103.392V104.795L217.983 108.705H218.156L229.42 107.116V106.833L225.478 105.097C225.443 105.082 225.42 105.047 225.42 105.008Z" fill="#004750"/>
<path d="M274.878 79.8437H274.593L263.672 82.8507V83.1336L265.597 84.4704C266.54 85.1253 267.102 86.2025 267.102 87.3573V107.565L264.014 108.418V108.701H277.965V108.418L274.878 107.623V79.8398V79.8437Z" fill="#004750"/>
<path d="M305.326 81.3707C303.743 80.3671 301.869 79.8672 299.694 79.8672C298.666 79.8672 297.73 80.0299 296.891 80.3477C296.052 80.6693 295.117 81.2079 294.089 81.9674C293.122 82.6765 292.056 83.6918 290.886 85.0015V79.9098H290.601L279.68 82.9168V83.1997L281.551 84.4978C282.528 85.1759 283.11 86.2958 283.11 87.4931V118.803L279.965 119.71V119.992H294.547V119.71L290.886 118.803V108.24C292.364 108.538 293.835 108.697 295.29 108.697C298.185 108.697 300.752 108.073 302.981 106.825C305.21 105.578 306.954 103.741 308.213 101.319C309.472 98.8972 310.099 96.0026 310.099 92.6352C310.099 89.9499 309.699 87.6481 308.898 85.7378C308.097 83.8274 306.908 82.3704 305.326 81.3668V81.3707ZM301.237 102.202C300.741 104.039 300.029 105.399 299.093 106.291C298.158 107.182 297.045 107.624 295.748 107.624C294.297 107.624 293.126 107.131 292.229 106.147C291.332 105.163 290.886 103.896 290.886 102.342V85.4355C291.475 85.1449 292.106 84.9008 292.799 84.7148C293.581 84.5055 294.427 84.4009 295.344 84.4009C296.868 84.4009 298.135 84.7806 299.147 85.5363C300.156 86.2919 300.879 87.4582 301.318 89.0276C301.757 90.597 301.977 92.6313 301.977 95.1307C301.977 98.0059 301.726 100.362 301.234 102.199L301.237 102.202Z" fill="#004750"/>
<path d="M334.056 102.516C332.798 103.047 331.423 103.311 329.937 103.311C326.965 103.311 324.733 102.338 323.247 100.389C321.761 98.4399 321.018 95.3477 321.018 91.1085C321.018 91.0116 321.018 90.9186 321.018 90.8256H337.54C337.313 87.3808 336.293 84.6954 334.48 82.7657C332.671 80.836 330.18 79.8711 327.019 79.8711C324.159 79.8711 321.722 80.5531 319.701 81.9132C317.68 83.2772 316.137 85.0907 315.07 87.3614C314 89.6321 313.469 92.1121 313.469 94.7975C313.469 97.7502 314.012 100.265 315.097 102.346C316.187 104.427 317.699 106.008 319.644 107.085C321.588 108.162 323.836 108.705 326.392 108.705C327.993 108.705 329.441 108.449 330.738 107.937C332.031 107.426 333.271 106.546 334.453 105.299C335.635 104.051 336.797 102.327 337.941 100.133L337.713 99.9628C336.532 101.137 335.311 101.989 334.053 102.516H334.056ZM323.335 82.0217C324.078 81.3048 325.021 80.9445 326.165 80.9445C327.424 80.9445 328.405 81.6458 329.11 83.0447C329.756 84.3273 330.164 86.4159 330.349 89.2873H321.064C321.145 87.7489 321.326 86.4314 321.618 85.3426C322.019 83.8468 322.592 82.7424 323.335 82.0217Z" fill="#004750"/>
<path d="M367.797 72.9425L368.086 68.002H367.797L355.675 70.6718V70.9547L357.958 72.1908C359.263 72.896 360.075 74.2678 360.075 75.7596V80.2042C358.758 79.9834 357.426 79.8671 356.071 79.8671C353.061 79.8671 350.401 80.491 348.095 81.7387C345.789 82.9865 343.988 84.7961 342.694 87.1598C341.397 89.5235 340.75 92.3523 340.75 95.646C340.75 98.2577 341.216 100.556 342.151 102.543C343.083 104.531 344.399 106.054 346.097 107.112C347.795 108.17 349.766 108.701 352.014 108.701C352.965 108.701 353.862 108.569 354.701 108.302C355.54 108.038 356.418 107.507 357.33 106.713C358.158 105.992 359.082 104.992 360.094 103.718L360.445 108.701H360.729L371.793 107V106.771L367.79 105.295V72.9387L367.797 72.9425ZM355.617 104.109C354.016 104.148 352.73 103.787 351.76 103.032C350.786 102.276 350.062 101.083 349.585 99.4551C349.107 97.8276 348.869 95.6886 348.869 93.042C348.869 90.2404 349.107 87.9348 349.585 86.1174C350.062 84.3001 350.767 82.9865 351.702 82.1727C352.638 81.359 353.789 80.9521 355.163 80.9521C356.61 80.9521 357.792 81.4442 358.708 82.4285C359.625 83.4127 360.083 84.6604 360.083 86.1756V103.148C358.755 103.791 357.269 104.113 355.621 104.113L355.617 104.109Z" fill="#004750"/>
<path d="M416.14 105.016C415.663 105.128 415.178 105.186 414.681 105.186C413.422 105.186 412.795 104.504 412.795 103.144V87.9892C412.795 85.3387 412.04 83.3237 410.535 81.9442C409.03 80.5647 406.674 79.8711 403.471 79.8711C401.604 79.8711 399.648 80.2392 397.612 80.9793C395.572 81.7156 393.847 82.6533 392.438 83.7887C391.029 84.9241 390.325 85.9277 390.325 86.7957C390.325 87.4002 390.533 87.8458 390.952 88.1286C391.372 88.4115 391.999 88.5549 392.838 88.5549C393.447 88.5549 394.02 88.4309 394.555 88.1868C395.087 87.9388 395.487 87.6675 395.757 87.3653C396.061 86.9855 396.288 86.4004 396.442 85.606C396.584 84.8698 396.723 83.7499 396.865 82.2619C397.597 82.1457 398.463 82.0876 399.471 82.0876C401.338 82.0876 402.72 82.5216 403.617 83.3934C404.514 84.2653 404.961 85.5518 404.961 87.2529V91.2945C400.884 92.4802 397.762 93.5536 395.614 94.5185C393.42 95.5027 391.953 96.5335 391.21 97.6146C390.467 98.6918 390.094 100.048 390.094 101.672C390.094 103.869 390.771 105.582 392.122 106.81C393.474 108.038 395.352 108.674 397.754 108.712C399.66 108.712 401.254 108.108 402.528 106.895C403.694 105.791 404.514 104.202 404.999 102.148C405.123 103.64 405.327 104.857 405.615 105.787C405.939 106.829 406.474 107.585 407.217 108.058C407.96 108.53 408.961 108.767 410.219 108.767C411.594 108.767 412.829 108.484 413.938 107.914C415.043 107.345 416.282 106.306 417.657 104.791V104.508C417.122 104.737 416.617 104.907 416.14 105.02V105.016ZM403.217 103.625C402.663 103.908 402.024 104.051 401.3 104.051C400.195 104.051 399.317 103.683 398.671 102.943C398.02 102.206 397.697 101.118 397.697 99.6799C397.697 98.4322 397.889 97.4092 398.27 96.6148C398.651 95.8205 399.364 95.0261 400.415 94.2317C401.423 93.4645 402.944 92.5926 404.961 91.62V99.9085C404.961 100.815 404.807 101.594 404.503 102.237C404.199 102.881 403.768 103.346 403.217 103.629V103.625Z" fill="#004750"/>
<path d="M273.962 75.1939C274.829 73.9113 275.518 73.0123 276.03 72.5008L269.293 68.002C268.939 68.7498 268.365 69.7263 267.58 70.9314C266.791 72.1365 266.125 73.0317 265.57 73.6245L272.249 78.1815C272.523 77.4724 273.096 76.4726 273.962 75.1939Z" fill="#004750"/>
<path d="M384.343 79.8438H384.058L373.137 82.8507V83.1336L375.104 84.5015C376.02 85.137 376.567 86.1871 376.567 87.3108V107.569L373.479 108.422V108.705H387.43V108.422L384.343 107.627V79.8438Z" fill="#004750"/>
<path d="M383.427 75.1939C384.293 73.9113 384.983 73.0123 385.495 72.5008L378.758 68.002C378.404 68.7498 377.83 69.7263 377.045 70.9314C376.255 72.1365 375.589 73.0317 375.035 73.6245L381.714 78.1815C381.988 77.4724 382.561 76.4726 383.427 75.1939Z" fill="#004750"/>
<path d="M258.352 72.9425L258.641 68.002H258.352L246.23 70.6718V70.9547L248.516 72.1908C249.821 72.896 250.634 74.2678 250.634 75.7596V80.2042C249.317 79.9834 247.985 79.8671 246.63 79.8671C243.62 79.8671 240.96 80.491 238.654 81.7387C236.348 82.9865 234.546 84.7961 233.253 87.1598C231.955 89.5235 231.309 92.3523 231.309 95.646C231.309 98.2577 231.774 100.556 232.71 102.543C233.645 104.531 234.958 106.054 236.656 107.112C238.353 108.17 240.324 108.701 242.572 108.701C243.523 108.701 244.42 108.569 245.26 108.302C246.099 108.038 246.976 107.507 247.889 106.713C248.716 105.992 249.64 104.992 250.653 103.714L251.003 108.697H251.288L262.352 106.996V106.767L258.348 105.291V72.9348L258.352 72.9425ZM246.172 104.109C244.57 104.148 243.285 103.787 242.315 103.032C241.341 102.276 240.617 101.083 240.14 99.4551C239.662 97.8276 239.424 95.6886 239.424 93.042C239.424 90.2404 239.662 87.9348 240.14 86.1174C240.617 84.3001 241.321 82.9865 242.257 82.1727C243.192 81.359 244.343 80.9521 245.718 80.9521C247.165 80.9521 248.347 81.4442 249.263 82.4285C250.179 83.4127 250.637 84.6604 250.637 86.1756V103.148C249.309 103.791 247.823 104.113 246.176 104.113L246.172 104.109Z" fill="#004750"/>
<path d="M154.374 36.4595C152.68 36.4983 151.283 36.2735 150.178 35.7775C149.073 35.2854 148.238 34.4756 147.668 33.3518C147.098 32.2281 146.81 30.7168 146.81 28.822C146.81 20.2195 146.771 14.3916 146.69 11.3304C146.613 8.27302 146.455 6.04492 146.217 4.64218C145.982 3.24332 145.489 1.69333 144.739 -0.00390625C144.188 0.941586 143.322 2.18545 142.14 3.72381C140.958 5.26217 139.973 6.40916 139.184 7.15703C140.088 8.89302 140.72 10.4818 141.074 11.9232C141.428 13.3647 141.682 15.5928 141.844 18.6114C142.001 21.63 142.14 26.3962 142.256 32.9062C142.333 37.7228 143.299 41.1909 145.15 43.3221C147.002 45.4533 150.074 46.519 154.37 46.519C155.987 46.519 157.461 46.4027 158.801 46.1625C160.141 45.9261 161.323 45.5502 162.347 45.0387C162.897 44.8023 163.586 43.8956 164.414 42.3146C165.241 40.7375 166.285 38.3505 167.547 35.1537C166.088 35.6652 164.167 36.01 161.785 36.1883C159.402 36.3665 156.93 36.4557 154.37 36.4557L154.374 36.4595Z" fill="#004750"/>
<path d="M165.603 16.3945C165.21 17.4601 164.51 18.7738 163.505 20.3315C162.5 21.8892 161.646 23.1254 160.934 24.0321L167.551 35.161C167.982 33.9404 168.367 32.6655 168.702 31.3442C169.037 30.0228 169.206 28.9688 169.206 28.1783C169.206 27.1514 168.972 25.8882 168.498 24.3886C168.025 22.889 167.058 20.2269 165.603 16.3984V16.3945Z" fill="#004750"/>
<path d="M159.665 54.9629C159.137 55.7456 158.656 56.3889 158.213 56.9159L151.48 52.1807C151.165 52.8898 150.622 53.8159 149.856 54.9629C149.086 56.106 148.389 56.974 147.758 57.5669L154.437 62.3602C154.753 61.6511 155.334 60.694 156.181 59.4889C156.739 58.6945 157.22 58.0629 157.636 57.5707L164.369 62.3602C164.604 61.6511 165.146 60.694 165.993 59.4889C166.84 58.2837 167.537 57.4274 168.091 56.9159L161.412 52.1807C161.016 52.8898 160.438 53.8159 159.668 54.9629H159.665ZM157.705 57.4816C157.875 57.2801 158.036 57.098 158.183 56.9507C158.017 57.1445 157.859 57.3227 157.705 57.4816Z" fill="#004750"/>
<path d="M212.262 54.9629C211.735 55.7456 211.254 56.3889 210.811 56.9159L204.078 52.1807C203.762 52.8898 203.223 53.8159 202.453 54.9629C201.684 56.106 200.987 56.974 200.355 57.5669L207.034 62.3602C207.35 61.6511 207.931 60.694 208.778 59.4889C209.337 58.6984 209.818 58.059 210.23 57.5669L216.963 62.3602C217.197 61.6511 217.74 60.694 218.587 59.4889C219.434 58.2837 220.131 57.4274 220.685 56.9159L214.006 52.1807C213.613 52.8898 213.032 53.8159 212.262 54.9629ZM210.788 56.943C210.611 57.1522 210.438 57.346 210.272 57.5126C210.457 57.2917 210.63 57.098 210.788 56.943Z" fill="#004750"/>
<path d="M241.599 55.1101C240.81 56.3153 240.144 57.2104 239.59 57.8032L246.269 62.3602C246.542 61.6511 247.116 60.6513 247.982 59.3726C248.848 58.09 249.537 57.191 250.049 56.6795L243.312 52.1807C242.958 52.9285 242.385 53.905 241.599 55.1101Z" fill="#004750"/>
<path d="M276.111 16.3945C275.714 17.4601 275.018 18.7738 274.013 20.3315C273.008 21.8892 272.15 23.1254 271.441 24.0321L278.059 35.161C278.49 33.9365 278.875 32.6655 279.21 31.3442C279.545 30.0228 279.714 28.9688 279.714 28.1783C279.714 27.1514 279.479 25.8921 279.006 24.3886C278.532 22.889 277.566 20.2269 276.111 16.3984V16.3945Z" fill="#004750"/>
<path d="M270.168 54.9629C269.641 55.7456 269.16 56.3889 268.717 56.9159L261.984 52.1807C261.669 52.8898 261.126 53.8159 260.36 54.9629C259.594 56.106 258.893 56.974 258.262 57.5669L264.941 62.3602C265.256 61.6511 265.838 60.694 266.685 59.4889C267.239 58.6984 267.724 58.059 268.136 57.5669L274.869 62.3602C275.104 61.6511 275.646 60.694 276.493 59.4889C277.34 58.2837 278.041 57.4274 278.591 56.9159L271.912 52.1807C271.52 52.8898 270.938 53.8159 270.168 54.9629ZM268.694 56.943C268.517 57.1522 268.344 57.346 268.178 57.5126C268.363 57.2917 268.536 57.1019 268.694 56.943Z" fill="#004750"/>
<path d="M264.88 36.4593C262.871 36.4981 261.189 36.2539 259.83 35.7192C258.471 35.1844 257.67 34.4482 257.435 33.4988L259.091 27.1671H258.794C258.086 28.7869 257.397 30.2671 256.727 31.6079C256.057 32.9486 255.507 33.9367 255.072 34.5683C254.56 35.1999 253.409 35.6727 251.615 35.9904C249.821 36.3082 247.015 36.4632 243.192 36.4632H230.311C228.302 36.5019 226.619 36.2578 225.257 35.7231C223.898 35.1883 223.101 34.4521 222.862 33.5027L224.518 27.171H224.221C223.513 28.7908 222.824 30.271 222.154 31.6117C221.484 32.9525 220.934 33.9406 220.499 34.5722C219.987 35.2038 218.832 35.6766 217.042 35.9943C215.248 36.3121 212.441 36.4671 208.619 36.4671H207.556C205.466 36.4671 203.803 36.2113 202.563 35.6959C201.324 35.1844 200.338 34.2777 199.607 32.9718C198.879 31.6698 198.336 29.775 197.982 27.2911C197.351 23.3077 196.851 20.8664 196.473 18.9716C196.1 17.0767 194.14 13.2405 193.313 11.8223C192.997 12.7678 189.71 18.1462 189.117 18.8553C190.064 20.0411 190.888 21.3624 191.6 22.8194C192.308 24.2803 192.932 25.4079 193.463 27.202C193.929 28.783 194.341 30.5306 194.702 32.4293C193.032 33.7352 191.061 34.8667 188.786 35.5603C186.464 36.2694 184.108 36.6221 181.71 36.6221C179.666 36.6221 178.038 36.2268 176.817 35.4402C175.597 34.6536 174.989 33.495 174.989 32.2356C174.989 31.2901 175.085 30.2284 175.281 29.0465C175.478 27.8646 175.813 26.3689 176.282 24.5593H175.99C175.008 27.6709 174.288 30.3252 173.838 32.5301C173.387 34.7349 173.16 36.7616 173.16 38.6099C173.16 41.3263 173.799 43.3258 175.077 44.6045C176.355 45.8832 178.172 46.5226 180.528 46.5226C182.884 46.5226 185.105 46.0305 187.307 45.0462C189.509 44.062 191.238 42.6476 192.493 40.7954C192.966 40.0863 193.367 39.1524 193.702 37.9899C194.021 36.8778 194.368 35.0953 194.745 32.6657C194.779 32.8478 194.814 33.0222 194.849 33.2043C195.322 36.5174 196.081 39.1447 197.124 41.0783C198.167 43.0119 199.507 44.403 201.143 45.2516C202.779 46.1002 204.915 46.5226 207.556 46.5226C209.169 46.5226 210.659 46.3754 212.018 46.077C213.377 45.7825 214.412 45.3756 215.121 44.8641C215.633 44.5076 216.272 43.7714 217.042 42.6438C217.808 41.52 218.724 39.8538 219.79 37.6412C219.829 40.4428 220.695 42.6244 222.389 44.1821C224.083 45.7437 226.527 46.5187 229.718 46.5187H242.129C243.746 46.5187 245.232 46.3715 246.591 46.0731C247.95 45.7786 248.986 45.3717 249.694 44.8602C250.206 44.5037 250.845 43.7675 251.615 42.6399C252.385 41.5161 253.297 39.8499 254.363 37.6373C254.402 40.4389 255.268 42.6205 256.966 44.1782C258.66 45.7399 261.104 46.5149 264.291 46.5149H264.88C266.497 46.5149 267.972 46.3986 269.315 46.1584C270.655 45.922 271.837 45.5461 272.861 45.0346C273.411 44.7982 274.1 43.8915 274.928 42.3105C275.756 40.7334 276.799 38.3464 278.061 35.1496C276.602 35.6611 274.682 36.0059 272.299 36.1842C269.916 36.3624 267.444 36.4516 264.88 36.4516V36.4593Z" fill="#004750"/>
<path d="M304.39 41.3146C305.303 39.7956 306.207 37.7186 307.1 35.0837L307.112 35.0527C307.12 35.0294 307.127 35.0062 307.135 34.979C307.143 34.9558 307.15 34.9325 307.158 34.9054L307.185 34.8163C307.52 33.7197 307.82 32.6037 308.082 31.4567C308.359 30.2516 308.494 29.2751 308.494 28.5272C308.494 26.6711 307.836 24.6987 306.515 22.6063C305.195 20.5138 303.532 18.7778 301.522 17.3983C299.513 16.0188 297.503 15.3252 295.494 15.3252C295.178 15.3252 294.535 15.3252 293.827 15.6778L292.834 16.2126C292.676 17.2007 292.36 18.6809 291.887 20.6533C291.413 22.6256 291.04 23.9276 290.767 24.5592L291.829 24.3229C292.776 24.1252 293.365 24.0284 293.604 24.0284C295.255 24.0284 297.03 24.629 298.92 25.8341C300.81 27.0392 302.523 28.4962 304.059 30.2128C305.472 31.7938 306.45 33.2624 306.996 34.6264C307.046 34.8473 306.831 35.072 306.8 35.0992C305.464 35.5874 303.755 35.9323 301.665 36.1299C299.397 36.3469 296.984 36.4554 294.424 36.4554C291.864 36.4554 289.816 36.2771 288.276 35.9245C286.74 35.568 285.635 35.0178 284.969 34.266C284.969 33.7119 285.027 32.9059 285.146 31.8403C285.265 30.7747 285.4 29.9455 285.558 29.3565H285.262C284.827 30.9336 284.453 32.6424 284.138 34.4753C283.822 36.312 283.664 38.017 283.664 39.5941C283.664 41.1712 283.98 42.5352 284.611 43.5582C285.239 44.5851 286.197 45.3329 287.475 45.8096C288.753 46.2823 290.339 46.5187 292.233 46.5187C294.32 46.5187 296.221 46.3133 297.935 45.8987C299.648 45.4841 301.037 44.9416 302.1 44.2712C302.689 43.8372 303.447 42.8491 304.375 41.3107L304.39 41.3146Z" fill="#004750"/>
<path d="M406.295 34.092L408.185 27.1674H407.889C407.219 28.8259 406.549 30.3061 405.879 31.6081C405.21 32.9101 404.64 33.8982 404.166 34.5686C403.77 35.2002 402.985 35.673 401.803 35.9907C400.621 36.3084 399.123 36.4634 397.31 36.4634C395.813 36.4634 394.523 36.3084 393.441 35.9907C392.356 35.6768 391.521 35.1421 390.932 34.3942L394.831 26.404H394.535C393.707 27.9424 392.822 29.3451 391.875 30.6045C390.928 31.8677 390.062 32.914 389.272 33.7432C388.325 34.6926 386.605 35.3823 384.102 35.8163C381.6 36.2503 377.947 36.4673 373.139 36.4673C369.632 36.4673 367.06 36.4169 365.428 36.3201C364.666 36.2736 363.442 35.9209 362.298 35.5257C363.842 33.7742 365.128 32.0731 366.14 30.4301C367.183 28.7329 367.707 27.3146 367.707 26.1677C367.707 24.1565 366.91 22.5368 365.312 21.3123C363.719 20.0917 361.324 19.4756 358.133 19.4756C355.927 19.4756 352.674 19.6345 348.382 19.9483L346.788 20.0646L346.553 20.7156C346.319 21.7424 345.895 23.0134 345.283 24.5324C344.671 26.0514 344.151 27.2061 343.716 27.9966C346.908 28.4306 349.506 28.9228 351.516 29.4769C353.525 30.031 355.15 30.7014 356.389 31.488C357.629 32.2785 358.664 33.2433 359.492 34.3865C357.914 35.0956 355.423 35.6187 352.016 35.9558C348.609 36.2929 339.693 36.4596 334.258 36.4596H334.242C334.162 34.2082 333.727 32.0266 332.93 29.9186C332.044 27.5704 330.889 25.6872 329.473 24.265C328.052 22.8429 326.478 22.1338 324.746 22.1338C322.855 22.1338 321.231 23.0909 319.872 25.0052C318.513 26.9194 317.243 30.0077 316.061 34.2663C316.808 32.8442 317.635 31.7592 318.544 31.0114C319.448 30.2635 320.496 29.8683 321.677 29.8256C324.28 29.8256 326.582 30.8602 328.591 32.9333C329.565 33.9408 330.466 35.1808 331.294 36.6494C330.801 36.6843 330.289 36.7192 329.742 36.7502C328.345 36.8277 326.52 36.8664 324.276 36.8664C321.831 36.8664 319.972 36.6494 318.69 36.2154C317.408 35.7815 316.531 35.1305 316.061 34.2625C315.784 35.2893 315.549 36.3549 315.353 37.4593C315.156 38.5637 315.075 39.4704 315.118 40.1834C315.118 42.1945 315.807 43.7561 317.185 44.8605C318.563 45.9649 320.692 46.519 323.568 46.519H331.263C330.223 47.5769 328.961 48.6657 327.409 49.6848C324.137 51.8354 320.75 53.6296 317.247 55.071C313.74 56.5125 311.16 57.2294 309.505 57.2294C308.874 57.2294 308.065 57.0434 307.084 56.6675C306.098 56.2917 304.327 55.4934 301.763 54.2689L301.352 54.0326V54.327C304.385 56.2994 307.723 58.233 311.368 60.1279C315.01 62.0227 317.72 63.2666 319.495 63.8556C321.031 63.1038 322.54 62.2359 324.014 61.2516C325.492 60.2635 326.89 59.1708 328.21 57.9656C329.531 56.7605 330.624 55.5089 331.49 54.2069C332.083 53.3002 332.564 52.0757 332.937 50.5373C333.168 49.5841 333.326 48.1658 333.515 46.5112H338.758C341.557 46.5112 344.648 46.1276 348.036 45.3565C351.423 44.5854 353.945 43.6515 355.6 42.5433C356.389 41.993 357.255 41.2413 358.198 40.2958C359.053 39.4394 359.989 38.4009 361.005 37.1919C362.314 39.6409 363.338 41.5784 363.992 42.8998C364.72 44.3723 365.586 45.3759 366.771 45.8292C367.953 46.2826 369.747 46.5112 372.149 46.5112H373.154C374.886 46.5112 376.63 46.3136 378.386 45.9184C380.137 45.5231 381.45 45.031 382.316 44.4381C383.498 43.6476 385.053 41.6172 386.986 38.3428C386.789 41.0282 387.34 43.0586 388.641 44.4381C389.942 45.8176 391.694 46.5112 393.9 46.5112C395.674 46.5112 397.249 45.9687 398.627 44.8838C400.005 43.7988 401.422 41.7179 402.881 38.6373C402.565 41.28 403.293 43.3028 405.067 44.7055C406.838 46.1044 409.105 46.8639 411.862 46.984L416.235 37.2772C413.871 37.2772 411.773 37.0021 409.941 36.4479C408.108 35.8977 406.896 35.1072 406.307 34.0803L406.295 34.092Z" fill="#004750"/>
<path d="M417.703 27.6404C417.507 26.6136 417.172 25.1527 416.698 23.2617C416.186 23.9708 415.416 24.8815 414.392 25.9858C413.368 27.0902 412.521 27.9194 411.852 28.4697C413.349 30.5234 414.442 32.2671 415.131 33.7086C415.82 35.1501 416.167 36.1654 416.167 36.7582C416.167 36.8745 416.175 36.9752 416.198 37.0527C416.217 37.1341 416.225 37.2116 416.225 37.2891C416.856 35.6732 417.31 34.3596 417.584 33.3521C417.857 32.3446 417.995 31.3914 417.995 30.4808C417.995 29.5702 417.895 28.6673 417.699 27.6404H417.703Z" fill="#004750"/>
<path d="M404.667 11.7489L406.453 9.93932C405.71 9.52858 405.052 9.15271 404.459 8.79621C404.601 8.65671 404.74 8.52109 404.871 8.37384C405.525 7.64922 406.033 6.86647 406.391 6.02561L403.104 7.94759C402.315 7.42447 401.73 6.9711 401.36 6.5991C400.586 5.81636 400.197 5.12274 400.197 4.52212C400.197 4.32062 400.328 4.04937 400.586 3.70838C400.844 3.36738 401.202 3.06513 401.656 2.80551C402.114 2.54589 402.619 2.41414 403.177 2.41414C404.128 2.41414 404.905 2.72413 405.498 3.348C406.095 3.97187 406.391 4.86312 406.391 6.02948C406.588 5.58774 406.749 5.12661 406.865 4.64224C406.984 4.16175 407.042 3.72 407.042 3.317C407.042 2.31339 406.803 1.51127 406.326 0.906774C405.849 0.302279 405.294 0.00390625 404.659 0.00390625C403.828 0.00390625 403.019 0.406903 402.249 1.20902C401.475 2.01501 400.84 2.93726 400.344 3.97962C399.847 5.02587 399.597 5.90936 399.597 6.6301C399.597 7.43222 399.943 8.19559 400.64 8.92021C400.729 9.01321 400.833 9.11008 400.944 9.21083L394.535 12.9579L394.234 15.0659L402.411 10.3384C403.038 10.7686 403.781 11.2374 404.659 11.7489H404.667Z" fill="#004750"/>
<path d="M166.57 0L154.359 6.92844L154.059 9.03642L166.269 2.71248L166.57 0Z" fill="#004750"/>
</g>
<defs>
<linearGradient id="paint0_linear_6263_42225" x1="36.5537" y1="109.728" x2="80.9654" y2="17.1801" gradientUnits="userSpaceOnUse">
<stop stop-color="#00A19B"/>
<stop offset="1" stop-color="#90D5AC"/>
</linearGradient>
<clipPath id="clip0_6263_42225">
<rect width="418" height="120" fill="white"/>
</clipPath>
</defs>
</svg>
